<svg id="Слой_1" data-name="Слой 1" xmlns="http://www.w3.org/2000/svg" xmlns:xlink="http://www.w3.org/1999/xlink" viewBox="0 0 268 120"><defs><style>.cls-1{fill:none;}.cls-2{clip-path:url(#clip-path);}.cls-3{fill:#e45241;}.cls-4{fill:#fff;}</style><clipPath id="clip-path"><polygon class="cls-1" points="0.96 118.27 65.49 118.27 65.49 53.73 0.96 53.73 0.96 118.27 0.96 118.27"/></clipPath></defs><title>Монтажная область 53</title><g class="cls-2"><polygon class="cls-3" points="0.82 118.27 65.36 118.27 65.36 53.73 0.82 53.73 0.82 118.27 0.82 118.27"/></g><path class="cls-4" d="M.5,118.72H65.95V53.28H.5v65.45Zm.91-64.54H65v63.63H1.41V54.19Z"/><path class="cls-4" d="M32,88.13H28.52a.21.21,0,0,0-.18.09,3.59,3.59,0,0,1-3.16,1.93A4,4,0,0,1,21.4,86a3.9,3.9,0,0,1,3.77-4.11,3.56,3.56,0,0,1,3.19,2l0,0a.22.22,0,0,0,.18.09H32a.21.21,0,0,0,.21-.21.23.23,0,0,0,0-.05v0A7.39,7.39,0,0,0,17.8,86a7.32,7.32,0,0,0,7.42,7.33,7.21,7.21,0,0,0,6.92-4.89v0a.22.22,0,0,0,0-.07.21.21,0,0,0-.21-.21"/><path class="cls-4" d="M47.27,88.13H43.84a.21.21,0,0,0-.18.09,3.58,3.58,0,0,1-3.15,1.93A4,4,0,0,1,36.72,86a3.9,3.9,0,0,1,3.77-4.11,3.55,3.55,0,0,1,3.19,2l0,0a.21.21,0,0,0,.18.09h3.44a.21.21,0,0,0,.21-.21.16.16,0,0,0,0-.05v0A7.4,7.4,0,0,0,33.12,86a7.33,7.33,0,0,0,7.42,7.33,7.21,7.21,0,0,0,6.92-4.89v0a.18.18,0,0,0,0-.07.21.21,0,0,0-.21-.21"/><path class="cls-4" d="M12.47,88v0l-1.3-4.35a.13.13,0,0,0-.13-.1.12.12,0,0,0-.12.09L9.61,88v0a.12.12,0,0,0,.13.12h2.61a.12.12,0,0,0,.13-.12v0m1,3.13a.21.21,0,0,0-.2-.13H8.72a.22.22,0,0,0-.2.13l-.65,1.78h0a.21.21,0,0,1-.19.13H4.28a.21.21,0,0,1-.21-.21.18.18,0,0,1,0-.08h0L9.56,79.1v0A.21.21,0,0,1,9.76,79h2.55a.21.21,0,0,1,.19.12v0l5.42,13.63v0a.16.16,0,0,1,0,.06.21.21,0,0,1-.21.21H14.3a.21.21,0,0,1-.2-.13h0l-.6-1.77Z"/><path class="cls-4" d="M56,88v0l-1.3-4.35a.13.13,0,0,0-.13-.1.12.12,0,0,0-.12.09L53.19,88v0a.09.09,0,0,0,0,0,.12.12,0,0,0,.13.12h2.62A.12.12,0,0,0,56,88v0m1,3.13a.21.21,0,0,0-.2-.13H52.3a.22.22,0,0,0-.2.13l-.65,1.78h0a.21.21,0,0,1-.19.13h-3.4a.21.21,0,0,1-.21-.21.19.19,0,0,1,0-.08h0L53.14,79.1v0a.21.21,0,0,1,.19-.12h2.55a.21.21,0,0,1,.19.12v0l5.42,13.63v0a.17.17,0,0,1,0,.06.21.21,0,0,1-.21.21H57.88a.21.21,0,0,1-.2-.13h0l-.6-1.77Z"/><polygon points="85.68 93.04 81.13 93.04 81.13 91.82 82.49 91.82 82.56 81.85 79.23 81.85 79.12 83.78 77.7 83.78 77.7 83.73 77.81 80.63 88.94 80.63 89.05 83.78 87.63 83.78 87.52 81.85 84.19 81.85 84.12 91.82 85.68 91.82 85.68 93.04 85.68 93.04"/><path d="M100.28,93H96.17V91.82h1.18c0-.7,0-1.42,0-2.12s0-1.5,0-2.25,0-2.64-2-2.64c-1.69,0-2.69,1.21-2.69,3.25l-.05,3.77H94V93H89.74V91.82h1.33l.07-11.64H89.34V79H92.7v0l0,5.07a12.92,12.92,0,0,1-.13,1.39,3.5,3.5,0,0,1,3.21-2C97.9,83.49,99,84.67,99,87c0,.81,0,1.69,0,2.54s0,1.58,0,2.26h1.36V93Z"/><path d="M103.32,81.35a1.16,1.16,0,1,1,1.16-1.16,1.16,1.16,0,0,1-1.16,1.16M105.67,93h-4.5V91.82h1.47l.07-6.89H101V83.7h3.25v0l-.07,8.06h1.47V93Z"/><path d="M117,93h-4.11V91.82h1.18c0-.7,0-1.42,0-2.12s0-1.5,0-2.25,0-2.64-2-2.64c-1.69,0-2.69,1.21-2.69,3.25l0,3.77h1.34V93h-4.11V91.82h1.18l.07-6.89h-1.49V83.7h3.05v0a9.93,9.93,0,0,1-.06,1.12l-.09.6a3.51,3.51,0,0,1,3.21-2c2.14,0,3.22,1.19,3.22,3.52,0,.81,0,1.69,0,2.54s0,1.58,0,2.26H117V93Z"/><polygon points="127.55 93.04 123.44 93.04 123.44 91.82 124.52 91.82 120.9 88.38 120.87 91.82 122.09 91.82 122.09 93.04 117.98 93.04 117.98 91.82 119.31 91.82 119.38 80.18 117.59 80.18 117.59 78.96 120.94 78.96 120.94 79 120.91 87.72 124.3 84.93 123.05 84.93 123.05 83.7 127.16 83.7 127.16 84.93 126.18 84.93 122.4 88 126.52 91.82 127.55 91.82 127.55 93.04 127.55 93.04"/><path d="M136.9,86.87h3.55L139,82.77a7.59,7.59,0,0,1-.22-.74,7.38,7.38,0,0,1-.22.74l-1.62,4.11ZM145.21,93h-4.32V91.82h1.31l-1.31-3.72h-4.46L135,91.82h1.48V93h-4.22V91.82h1.16l4.66-11.41h1.71L144,91.82h1.21V93Z"/><path d="M155.62,93h-4.11V91.82h1.18c0-.7,0-1.42,0-2.12s0-1.5,0-2.25,0-2.64-2-2.64C149,84.8,148,86,148,88L148,91.82h1.36V93h-4.25V91.82h1.33l.07-11.64h-1.79V79H148v0l0,5.07a13,13,0,0,1-.13,1.39,3.5,3.5,0,0,1,3.21-2c2.14,0,3.22,1.19,3.22,3.52,0,.81,0,1.69,0,2.54s0,1.58,0,2.26h1.36V93Z"/><path d="M158.09,87.32h5.1a2.45,2.45,0,0,0-2.41-2.61,2.66,2.66,0,0,0-2.69,2.61m3.14,5.93c-3.08,0-4.78-1.73-4.78-4.86,0-3,1.7-4.9,4.33-4.9s4,1.73,4,5v0h-6.73c.08,2.25,1.24,3.4,3.46,3.4a6.27,6.27,0,0,0,2.75-.69l.07,0-.06,1.38h0a8.45,8.45,0,0,1-3.06.65"/><path d="M172.09,88.8c-2.12,0-4.29,0-4.29,1.69A1.54,1.54,0,0,0,169.49,92c.61,0,2.58-.23,2.6-3.24m-2.94,4.46a3.51,3.51,0,0,1-1.86-.49,2.45,2.45,0,0,1-1.06-2.21c0-2.64,2.89-2.88,5.86-2.88v-.61c0-1.67-.6-2.35-2.06-2.35a5.72,5.72,0,0,0-2,.36v1.45h-1.42v-2.3h0a8.71,8.71,0,0,1,3.26-.72c2.56,0,3.7,1,3.7,3.38,0,.33,0,1,0,1.68,0,1-.07,2.29-.07,3.27h1.33V93h-2.75v-.43a9.27,9.27,0,0,1,.13-1.34,3,3,0,0,1-3,2"/><path d="M180.83,84.8c-2.18,0-3.43,1.44-3.43,4,0,2.34,1.32,3.18,2.55,3.18,1.75,0,2.64-1.29,2.64-3.84V85.2l-.18-.08a3.28,3.28,0,0,0-1.58-.32m-1.18,8.45c-2.36,0-3.88-1.77-3.88-4.51,0-3.24,1.9-5.26,5-5.26a4.46,4.46,0,0,1,1.87.37l0-3.68h-1.84V79h3.41v0l-.07,12.81h1.38V93h-2.94v0a9.83,9.83,0,0,1,.14-1.63,3.2,3.2,0,0,1-3,1.89"/><rect class="cls-1" width="268" height="120"/></svg>