<svg id="Слой_1" data-name="Слой 1" xmlns="http://www.w3.org/2000/svg" viewBox="0 0 28 37"><defs><style>.cls-1{fill:#0070ba;}.cls-2{fill:#0070ba;}.cls-3{fill:#fff;}</style></defs><title>Монтажная область 22</title><path class="cls-1" d="M23.17,3.8a13,13,0,0,0-18.33,0C.31,8.32-.25,16.84,3.62,22L14,37,24.37,22C28.26,16.84,27.69,8.32,23.17,3.8Z"/><circle class="cls-2" cx="14.12" cy="12.84" r="4.73"/><path class="cls-3" d="M17.61,16.79a3.72,3.72,0,0,1-2.86,2.73V14h3a.74.74,0,0,0,0-1.49h-3v-.89a2.24,2.24,0,1,0-1.5,0v.89h-3a.74.74,0,0,0,0,1.49h3v5.53a3.73,3.73,0,0,1-2.86-2.73H8.86a5.22,5.22,0,0,0,10.27,0ZM14,10.26a.75.75,0,1,1,.74-.75A.75.75,0,0,1,14,10.26Z"/></svg>