<svg id="Слой_1" data-name="Слой 1" xmlns="http://www.w3.org/2000/svg" viewBox="0 0 639 117.84"><defs><style>.cls-1{fill:#fff;}</style></defs><title>Монтажная область 25</title><path class="cls-1" d="M365.61,90.83a8,8,0,0,0-1.35-.25V89.36h9.42v1.22a5,5,0,0,0-1.35.22,1.5,1.5,0,0,0-.78,1.53v15.74a1.45,1.45,0,0,0,.78,1.5,8,8,0,0,0,1.35.25V111h-9.42v-1.22a5.77,5.77,0,0,0,1.38-.22,1.51,1.51,0,0,0,.75-1.53v-7.54h-8.83v7.54c0,.85.25,1.25.78,1.5a8,8,0,0,0,1.35.25V111h-9.42v-1.22a5.5,5.5,0,0,0,1.35-.22,1.5,1.5,0,0,0,.78-1.53V92.33a1.45,1.45,0,0,0-.78-1.5,8,8,0,0,0-1.35-.25V89.36h9.42v1.22a5.78,5.78,0,0,0-1.38.22,1.51,1.51,0,0,0-.75,1.53v6.6h8.83v-6.6C366.39,91.49,366.14,91.08,365.61,90.83Z"/><path class="cls-1" d="M384.94,111.52c-4.51,0-7.76-2.63-7.76-7.57,0-5.38,3.88-8.76,9-8.76,4.57,0,7.57,2.75,7.57,7.42C393.74,107.48,390.48,111.52,384.94,111.52ZM385.22,97c-2.32,0-3,2.28-3,5.79,0,3.91.84,6.92,3.38,6.92,2.13,0,3-2.1,3-6.07S387.73,97,385.22,97Z"/><path class="cls-1" d="M398,97a3.49,3.49,0,0,0-1.16-.25V95.62h9.48c3.79,0,6.23,1.22,6.23,3.85,0,2.16-1.66,3.41-4.19,3.76,2.88.22,4.66,1.25,4.66,3.41,0,3.1-2.35,4.41-6.7,4.41h-9.48v-1.16a4.51,4.51,0,0,0,1.16-.22c.53-.22.78-.72.78-1.53V98.53C398.8,97.75,398.55,97.24,398,97Zm5.54,5.51h.88c2.22,0,3.1-.94,3.1-2.79s-.94-2.69-3.19-2.69h-.78Zm0,7.07h1.19c2.22,0,3.25-.88,3.25-2.91,0-1.66-.94-2.75-3.19-2.75h-1.25Z"/><path class="cls-1" d="M417.39,97a3.47,3.47,0,0,0-1.16-.25V95.62h8.61v1.16a4.36,4.36,0,0,0-1.13.25c-.53.25-.78.66-.78,1.5v2.88h2.54c3.91,0,6.95,1.31,6.95,4.48,0,3.63-3,5.16-7.64,5.16h-8.54v-1.16a4.49,4.49,0,0,0,1.16-.22c.53-.22.78-.72.78-1.53V98.53C418.17,97.75,417.92,97.24,417.39,97Zm5.54,12.52h.94c2.25,0,3.38-1.13,3.38-3.35s-1-3.29-3.32-3.29h-1ZM433.38,97a3.31,3.31,0,0,0-1.16-.25V95.62h8.64v1.16a4.05,4.05,0,0,0-1.16.25c-.53.22-.78.72-.78,1.5v9.61c0,.81.25,1.31.78,1.53a3.47,3.47,0,0,0,1.16.22V111h-8.64v-1.16a3.17,3.17,0,0,0,1.16-.25c.53-.25.78-.66.78-1.5V98.53C434.16,97.68,433.91,97.28,433.38,97Z"/><path class="cls-1" d="M451.34,111.52c-4.72,0-7.35-2.72-7.35-7.48,0-5.1,3.07-8.86,8.54-8.86,3.79,0,5.95,1.82,6.07,5.41a8.06,8.06,0,0,1,0,1.22l-.88,1.31h-9.17c.09,3.07,1.25,5.13,4.73,5.13a14.71,14.71,0,0,0,4.6-.81l.06,1.69A9.76,9.76,0,0,1,451.34,111.52Zm-2.79-10h5.29c0-.34.06-.69.06-1.06,0-2.13-.78-3.5-2.38-3.5C449.65,97,448.77,98.9,448.55,101.56Z"/><path class="cls-1" d="M477.12,108.14c0,.85.25,1.25.78,1.5a3.18,3.18,0,0,0,1.13.25V111h-8.61v-1.16a4.51,4.51,0,0,0,1.16-.22c.53-.22.78-.72.78-1.53V98.53c0-.78-.25-1.28-.78-1.5a3.49,3.49,0,0,0-1.16-.25V95.62h13.24v5.57h-1c-.75-2.69-1.66-4.07-4.29-4.07h-1.25Z"/><path class="cls-1" d="M487,97.31c-.28,0-.69,0-1,.06v-1.1a20.1,20.1,0,0,1,5.2-1.1c1.47,0,1.85.59,1.85,1.94v.72a6.32,6.32,0,0,1,5.07-2.63c3.72,0,5.76,3,5.76,7.17,0,6-4.23,9.11-10.11,9.11a5.31,5.31,0,0,1-.72,0v3.47a1.38,1.38,0,0,0,1.38,1.56c.06,0,1.16.06,1.44.06v1.28h-9.48v-1.16a4.44,4.44,0,0,0,1.16-.22c.5-.22.75-.72.75-1.53V98.62C488.23,97.62,488.07,97.31,487,97.31Zm6,1.35v10.7a5.89,5.89,0,0,0,1.94.34c2.88,0,4.1-2.94,4.1-6.2s-1.25-5.35-3.79-5.35A5.57,5.57,0,0,0,493,98.65Z"/><path class="cls-1" d="M522.21,109.76a3,3,0,0,0,.53,0l0,.78a8.28,8.28,0,0,1-3.72.91c-2.66,0-3.38-1.13-3.38-2.88v-.13a5.8,5.8,0,0,1-4.88,3A3.52,3.52,0,0,1,507,107.7c0-2.66,2-3.76,5.2-4.51l3.47-.78v-.63c0-2.16-.69-3.25-3.1-3.25a22.31,22.31,0,0,0-5.07.72V97.31a17.32,17.32,0,0,1,7.48-2.1c3.79,0,5.45,2,5.45,6v6.57C520.43,109.36,521,109.76,522.21,109.76Zm-6.54-2v-4l-1.78.47c-1.6.41-2.5.88-2.5,2.1s.88,1.88,2.16,1.88A6,6,0,0,0,515.67,107.73Z"/><path class="cls-1" d="M531.69,103.94v4.19c0,.85.25,1.25.78,1.5a3.18,3.18,0,0,0,1.13.25V111H525v-1.16a4.49,4.49,0,0,0,1.16-.22c.53-.22.78-.72.78-1.53V98.53c0-.78-.25-1.28-.78-1.5a3.47,3.47,0,0,0-1.16-.25V95.62h8.61v1.16a4.36,4.36,0,0,0-1.13.25c-.53.25-.78.66-.78,1.5v3.91h5.76V98.53a1.45,1.45,0,0,0-.78-1.5,4.2,4.2,0,0,0-1.16-.25V95.62h8.64v1.16A4.31,4.31,0,0,0,543,97a1.46,1.46,0,0,0-.75,1.5v9.61c0,.81.25,1.31.75,1.53a4.25,4.25,0,0,0,1.19.22V111h-8.64v-1.16a3.48,3.48,0,0,0,1.16-.25,1.45,1.45,0,0,0,.78-1.5v-4.19Z"/><path class="cls-1" d="M553.09,111h-6v-1.16a4.51,4.51,0,0,0,1.16-.22c.53-.22.78-.72.78-1.53V98.53c0-.78-.25-1.28-.78-1.5a3.49,3.49,0,0,0-1.16-.25V95.62h8.61v1.16a4.37,4.37,0,0,0-1.13.25c-.53.25-.78.66-.78,1.5v8.42l6.57-11.33h6v1.16a4.33,4.33,0,0,0-1.16.25,1.46,1.46,0,0,0-.75,1.5v9.61c0,.81.25,1.31.75,1.53a4,4,0,0,0,1.16.22V111h-8.61v-1.16a3,3,0,0,0,1.13-.25,1.42,1.42,0,0,0,.81-1.5V99.81Z"/><path class="cls-1" d="M361.94,30.85h-.15q-5.82,0-9.31-3a10,10,0,0,1-3.49-8q0-5.26,3.41-8.11t9.53-2.85V6.64h5.78V8.92a14.69,14.69,0,0,1,9.38,2.82q3.56,2.82,3.56,8.15a10,10,0,0,1-3.45,8q-3.45,3-9.27,3h-.22v3h-5.78Zm-5.24-7a7.31,7.31,0,0,0,5.13,1.6h.11V14.32q-3.73,0-5.35,1.32A5.15,5.15,0,0,0,355,19.88,5.17,5.17,0,0,0,356.7,23.84Zm11-9.51V25.44h.22q6.75,0,6.75-5.56a5.21,5.21,0,0,0-1.6-4.18q-1.6-1.38-5.3-1.38Z"/><path class="cls-1" d="M384.22,33.31V7.2H390v16l12.65-16h4.81V33.31h-5.78V17.38L389,33.31Z"/><path class="cls-1" d="M430.11,22.87h-11.6V33.31h-5.78V7.2h5.78V17.46h11.6V7.2h5.78V33.31h-5.78Z"/><path class="cls-1" d="M450.19,7.2h4.29l11.45,26.11h-6l-2.13-4.85H446.83l-2.13,4.85h-6Zm-1.34,16.38h6.79l-3.36-7.8Z"/><path class="cls-1" d="M486.15,22.87h-11.6V33.31h-5.78V7.2h5.78V17.46h11.6V7.2h5.78V33.31h-5.78Z"/><path class="cls-1" d="M520.27,28.39a11.59,11.59,0,0,1-4.68,4,14.73,14.73,0,0,1-6.43,1.4A13,13,0,0,1,499.44,30a13.39,13.39,0,0,1-3.64-9.79,13.29,13.29,0,0,1,3.77-9.61,12.94,12.94,0,0,1,9.74-3.9,14.34,14.34,0,0,1,6.32,1.36,10,10,0,0,1,4.23,3.6l-3.92,3.58a7.37,7.37,0,0,0-2.83-2.18,8.29,8.29,0,0,0-3.39-.76A7.82,7.82,0,0,0,504,14.49a7.71,7.71,0,0,0-2.18,5.76,7.57,7.57,0,0,0,7.83,7.91,8.77,8.77,0,0,0,7.2-3.47Z"/><path class="cls-1" d="M527,10.67a13.42,13.42,0,0,1,23,9.59,13.45,13.45,0,1,1-26.89,0A13.07,13.07,0,0,1,527,10.67ZM531.31,26a7.48,7.48,0,0,0,10.58,0A7.86,7.86,0,0,0,544,20.25a7.69,7.69,0,0,0-2.22-5.71,7.34,7.34,0,0,0-10.48,0,7.76,7.76,0,0,0-2.18,5.71A7.76,7.76,0,0,0,531.31,26Z"/><path class="cls-1" d="M553.82,7.2H565.5q9,0,9,6.68a7.08,7.08,0,0,1-2.54,5.6q3.39,1.6,3.39,6.08a6.62,6.62,0,0,1-2.76,5.86,12.88,12.88,0,0,1-7.42,1.9H553.82Zm5.78,5.41v4.77H565a4.84,4.84,0,0,0,2.61-.58,1.83,1.83,0,0,0,.9-1.62,2.24,2.24,0,0,0-.86-2,5.7,5.7,0,0,0-3.13-.62Zm0,10v5.3h5a7.88,7.88,0,0,0,3.66-.62,2.19,2.19,0,0,0,1.08-2.07,2.16,2.16,0,0,0-1-2,7,7,0,0,0-3.43-.62Z"/><path class="cls-1" d="M585.34,15.85h3.88q5.37,0,8.17,2.33a7.8,7.8,0,0,1,2.8,6.32,7.71,7.71,0,0,1-3,6.56q-3,2.24-8.34,2.24h-9.33V7.2h5.78Zm0,5.41V27.9H589a7.84,7.84,0,0,0,3.92-.75,2.84,2.84,0,0,0,1.23-2.65q0-3.25-5.07-3.25ZM602.5,7.2h5.78V33.31H602.5Z"/><path class="cls-1" d="M613.57,33.31V7.2h5.78v16L632,7.2h4.81V33.31H631V17.38L618.31,33.31ZM623.2,0a2.15,2.15,0,0,0,2.24,1.9,2.47,2.47,0,0,0,1.51-.48,2.09,2.09,0,0,0,.8-1.42h4.85a6,6,0,0,1-2.31,4.31,7.09,7.09,0,0,1-4.63,1.81,7.27,7.27,0,0,1-5.07-1.66A7.21,7.21,0,0,1,618.35,0Z"/><path class="cls-1" d="M349.63,67.48h2.83q2.72-5.74,2.72-17.57V46.77h19v20.7h3v9.77h-5.41V72.88H355v4.36h-5.41Zm11-13.84q-.22,9.14-2.24,13.84h10V52.18h-7.68Z"/><path class="cls-1" d="M381.33,72.88V46.77h5.78v16l12.65-16h4.81V72.88h-5.78V57L386.07,72.88Z"/><path class="cls-1" d="M410.43,72.88V46.77h10.82a16.8,16.8,0,0,1,5.45.78,7.88,7.88,0,0,1,3.45,2.13,8.38,8.38,0,0,1,1.68,2.83,10.1,10.1,0,0,1,.5,3.25,8.45,8.45,0,0,1-2.69,6.32q-2.69,2.59-8.39,2.59h-5v8.21Zm5.78-20.7v7.09h5q5.15,0,5.15-3.54t-4.92-3.54Z"/><path class="cls-1" d="M436.25,46.77h20v5.41H442V57h13.24v5.22H442v5.22h14.51v5.41H436.25Z"/><path class="cls-1" d="M461.64,46.77h5.78V57l10-10.18H485L473.65,58.34l12.09,14.55h-7.61l-8.84-10.67-1.87,1.9v8.77h-5.78Z"/><path class="cls-1" d="M487.52,46.77H510v5.41h-8.39v20.7h-5.78V52.18h-8.36Z"/><path class="cls-1" d="M515.85,50.24a13.42,13.42,0,0,1,23,9.59,13.45,13.45,0,1,1-23-9.59Zm4.29,15.29a7.48,7.48,0,0,0,10.58,0,7.86,7.86,0,0,0,2.13-5.73,7.69,7.69,0,0,0-2.22-5.71,7.34,7.34,0,0,0-10.48,0A7.76,7.76,0,0,0,518,59.83,7.76,7.76,0,0,0,520.14,65.54Z"/><path class="cls-1" d="M543.25,72.88V46.77h10.82a16.8,16.8,0,0,1,5.45.78A7.88,7.88,0,0,1,563,49.68a8.38,8.38,0,0,1,1.68,2.83,10.1,10.1,0,0,1,.5,3.25,8.45,8.45,0,0,1-2.69,6.32q-2.69,2.59-8.39,2.59h-5v8.21ZM549,52.18v7.09h5q5.15,0,5.15-3.54t-4.92-3.54Z"/><path class="cls-1" d="M592,68.33H578.2V64.6L593,46.77h4.63V63.3h4v5h-4v4.55H592Zm0-5V56l-6.38,7.27Z"/><path class="cls-1" d="M606.63,67.66a3.45,3.45,0,0,1,2.52-1,3.34,3.34,0,0,1,2.42,1,3,3,0,0,1,1,2.18,3.08,3.08,0,0,1-1,2.26,3.34,3.34,0,0,1-2.42,1,3.45,3.45,0,0,1-2.52-1,3.09,3.09,0,0,1-1-2.28A3,3,0,0,1,606.63,67.66Z"/><path class="cls-1" d="M618.91,50.19q3-3.67,8.52-3.67A10.43,10.43,0,0,1,636,50.2a14.65,14.65,0,0,1,3,9.62,14.76,14.76,0,0,1-3,9.64,10.34,10.34,0,0,1-8.49,3.67q-5.6,0-8.6-3.66t-3-9.66A14.76,14.76,0,0,1,618.91,50.19Zm4.48,15.39a4.91,4.91,0,0,0,4.12,2q5.52,0,5.52-7.72t-5.6-7.72a4.81,4.81,0,0,0-4.08,2,9.51,9.51,0,0,0-1.47,5.74A9.33,9.33,0,0,0,623.39,65.57Z"/><path class="cls-1" d="M153.21,55.4h16.87c4.87,0,8-1.39,9.57-4.35,1.39-2.61,1.91-6.61,2.44-10.79h6.09V79.93h-6.09c-.52-3.48-.87-8-2.26-10.61-1.57-3.3-4.35-4.87-9.74-4.87H153.21V95.89c0,4.35,1.57,7.31,4.7,8.7,1.91.87,5.57,1.22,9.22,1.74v6.78H112.67v-6.78a30.58,30.58,0,0,0,7.48-1.22,7.46,7.46,0,0,0,4.35-6.8V26.73c0-7.11-.87-9.72-4.18-11.29-1.39-.7-3.65-1-7.65-1.57V7.08h93.25v30.1h-7.31c-4.18-16.53-11.48-20.88-26.44-20.88h-19Z"/><circle class="cls-1" cx="266.77" cy="60.14" r="53.94"/><path class="cls-1" d="M54.25,60.14a53,53,0,0,1,53-53H0v106H107.27A53,53,0,0,1,54.25,60.14Z"/></svg>