<?xml version="1.0" encoding="utf-8"?>
<!-- Generator: Adobe Illustrator 21.0.2, SVG Export Plug-In . SVG Version: 6.00 Build 0)  -->
<svg version="1.1" id="Слой_1" xmlns="http://www.w3.org/2000/svg" xmlns:xlink="http://www.w3.org/1999/xlink" x="0px" y="0px"
	 width="28px" height="37px" viewBox="0 0 28 37" style="enable-background:new 0 0 28 37;" xml:space="preserve">
<style type="text/css">
	.st0{fill:#013AA2;}
	.st1{fill:#FFFFFF;}
</style>
<title>Монтажная область 22</title>
<path class="st0" d="M23.2,3.8c-5.1-5-13.3-5-18.3,0C0.3,8.3-0.2,16.8,3.6,22L14,37l10.4-15C28.3,16.8,27.7,8.3,23.2,3.8z"/>
<circle class="st0" cx="14.1" cy="12.8" r="4.7"/>
<path class="st1" d="M17.6,16.8c-0.4,1.4-1.5,2.4-2.9,2.7V14h3c0.4,0,0.7-0.3,0.7-0.7s-0.3-0.7-0.7-0.7h-3v-0.9
	c1.2-0.4,1.8-1.7,1.4-2.9c-0.4-1.2-1.7-1.8-2.9-1.4s-1.8,1.7-1.4,2.9c0.2,0.6,0.7,1.1,1.4,1.4v0.9h-3c-0.4,0-0.7,0.3-0.7,0.7
	S9.8,14,10.2,14h3v5.5c-1.4-0.3-2.5-1.3-2.9-2.7H8.9c0.5,2.8,3.2,4.7,6.1,4.2c2.1-0.4,3.8-2.1,4.2-4.2L17.6,16.8z M14,10.3
	c-0.4,0-0.8-0.3-0.8-0.7s0.3-0.8,0.7-0.8s0.8,0.3,0.8,0.7c0,0,0,0,0,0C14.7,9.9,14.4,10.3,14,10.3z"/>
</svg>
