<svg id="Слой_1" data-name="Слой 1" xmlns="http://www.w3.org/2000/svg" viewBox="0 0 688 107"><defs><style>.cls-1{fill:#fff;}</style></defs><title>Монтажная область 1</title><path class="cls-1" d="M148.57,48.92H165.1c4.77,0,7.84-1.36,9.38-4.26,1.36-2.56,1.88-6.48,2.39-10.57h6V73h-6c-.51-3.41-.85-7.84-2.22-10.4-1.53-3.24-4.26-4.77-9.55-4.77H148.57V88.6c0,4.26,1.53,7.16,4.6,8.52,1.87.85,5.46,1.19,9,1.71v6.65H108.85V98.83a30,30,0,0,0,7.33-1.19A7.31,7.31,0,0,0,120.44,91V20.83c0-7-.85-9.53-4.09-11.06-1.36-.68-3.58-1-7.5-1.54V1.58h91.38V31.07h-7.16C189,14.88,181.82,10.62,167.16,10.62H148.57Z"/><circle class="cls-1" cx="259.85" cy="53.57" r="52.86"/><path class="cls-1" d="M51.6,53.57a52,52,0,0,1,52-52H.1v103.9H103.55A52,52,0,0,1,51.6,53.57Z"/><path class="cls-1" d="M422.64,54.07a26.4,26.4,0,0,1-10.89,8.77A36.14,36.14,0,0,1,396.55,66q-15.15,0-24.11-9t-9-23.92q0-14.06,9.1-23.47T396.37.25a36,36,0,0,1,15.15,3.08,24,24,0,0,1,10.11,8l-7.35,7q-6.7-7.44-17.36-7.44Q387,10.9,381,17t-6,16.17q0,10,6.2,16.12t16.12,6.11q11.67,0,18.74-8.45Z"/><polygon class="cls-1" points="426.77 0.98 474.07 0.98 474.07 11.45 437.89 11.45 437.89 29.64 471.69 29.64 471.69 40.11 437.89 40.11 437.89 65.27 426.77 65.27 426.77 0.98"/><path class="cls-1" d="M486,9.75a33.67,33.67,0,0,1,46.75-.14q9.51,9.37,9.51,23.51t-9.55,23.47a33.67,33.67,0,0,1-46.66,0q-9.55-9.37-9.55-23.51A31.76,31.76,0,0,1,486,9.75m8.31,39.36a21.51,21.51,0,0,0,30.26,0q6.11-6.2,6.11-16t-6.29-16a21.29,21.29,0,0,0-30.08,0q-6.25,6.2-6.24,16t6.24,16"/><path class="cls-1" d="M592.11,53.06H555.73V45.89L593.67,1h9.18V43.23h10.93v9.83H602.85V65.27H592.11Zm0-9.83V18.52L570.43,43.23Z"/><path class="cls-1" d="M618,53.93a7.31,7.31,0,0,1,5.33-2.06A7.15,7.15,0,0,1,628.53,54a6.34,6.34,0,0,1,2.16,4.59,6.54,6.54,0,0,1-2.12,4.82,7.84,7.84,0,0,1-10.6,0,6.6,6.6,0,0,1-2.07-4.82A6.36,6.36,0,0,1,618,53.93"/><path class="cls-1" d="M639.55,9.43Q646.85.34,660,.34t20.58,9.09q7.34,9.09,7.34,23.7t-7.25,23.74q-7.26,9.05-20.48,9t-20.57-9q-7.35-9-7.35-23.74t7.3-23.7M648,49.57q4.36,5.78,12.17,5.79,16.35,0,16.35-22.23,0-10.84-4.13-16.53T660,10.9q-7.9,0-12.12,5.79t-4.22,16.44q0,10.65,4.36,16.44"/><path class="cls-1" d="M367.71,93.5v9.65a2,2,0,0,0,.78,1.81,3.59,3.59,0,0,0,1.57.52v.91h-6.35v-.91a4.24,4.24,0,0,0,1.4-.42,1.92,1.92,0,0,0,1-1.91v-10c0-1.69-.66-2.64-2.23-2.86v-.88h5.73l8.62,11.21v-8a2,2,0,0,0-.78-1.81,3.67,3.67,0,0,0-1.57-.51v-.91h6.34v.91a4.23,4.23,0,0,0-1.39.42,1.92,1.92,0,0,0-1,1.91v13.84h-2.47Z"/><path class="cls-1" d="M385.35,105.21c.46-.27.54-.64.54-1.35V91.94c0-.76-.12-1.13-.59-1.35a3.85,3.85,0,0,0-1.07-.22v-1h13.12v4.23h-1c-.59-2.33-1.62-2.94-3.72-2.94h-2.67v6.34h2a1.34,1.34,0,0,0,1.32-.61,4.79,4.79,0,0,0,.35-1.52h1.08v5.58H393.6a5.51,5.51,0,0,0-.32-1.49,1.37,1.37,0,0,0-1.35-.66h-2v6.74h3.13c2.4,0,3.23-1,4.14-3.8l.93.1-.42,5H384.22v-1a2.63,2.63,0,0,0,1.13-.22"/><path class="cls-1" d="M418.31,101.76l3.11-9.31a2,2,0,0,0,.14-.71c0-.91-.78-1.3-2-1.37v-1h5.66v.93c-1,.13-1.64.49-2.15,2l-5.12,14.3h-1.67l-4.14-12.42-4.31,12.42h-1.71l-4.62-14.67a2,2,0,0,0-2-1.57v-1h7.71v1c-1.15.07-1.77.44-1.77,1.22a1.21,1.21,0,0,0,.1.52l2.64,9.5,4.06-12.2h2.21Z"/><path class="cls-1" d="M433.75,105.21c.47-.27.54-.64.54-1.35V91.94c0-.76-.12-1.13-.59-1.35a3.85,3.85,0,0,0-1.08-.22v-1h13.13v4.23h-1c-.59-2.33-1.62-2.94-3.73-2.94h-2.66v6.34h2a1.34,1.34,0,0,0,1.32-.61,4.79,4.79,0,0,0,.35-1.52h1.07v5.58H442a5.44,5.44,0,0,0-.32-1.49,1.37,1.37,0,0,0-1.34-.66h-2v6.74h3.13c2.4,0,3.23-1,4.14-3.8l.93.1-.42,5H432.63v-1a2.61,2.61,0,0,0,1.13-.22"/><path class="cls-1" d="M454.33,105.09H456c4.31,0,5.14-3.43,5.14-7.2,0-4.14-1.15-7.17-5-7.17h-1.81Zm-4.65.17c.42-.17.61-.56.61-1.2V91.74c0-.61-.19-1-.61-1.18a4.54,4.54,0,0,0-1-.2v-1h8.15c5.22,0,8.79,2.74,8.79,8.11,0,5.58-4,8.86-9.06,8.86h-7.88v-1a4.34,4.34,0,0,0,1-.17"/><path class="cls-1" d="M476.77,106.75c-5.19-.07-8.89-3.16-8.89-8.62S472,89,477.31,89A12,12,0,0,1,483,90.35v4.38h-.93c-.76-3-2.45-4.55-4.9-4.55-3.82,0-4.9,3.62-4.9,7.49,0,4.73,1.15,7.94,4.77,7.94a4.48,4.48,0,0,0,1.91-.52v-4.36c0-.61-.2-1-.61-1.17a7.52,7.52,0,0,0-1.15-.2v-1h7v1a1.4,1.4,0,0,0-.81.37,1.21,1.21,0,0,0-.39,1V105a11.1,11.1,0,0,1-6.22,1.71"/><path class="cls-1" d="M487.2,105.21c.47-.27.54-.64.54-1.35V91.94c0-.76-.12-1.13-.59-1.35a3.87,3.87,0,0,0-1.08-.22v-1H499.2v4.23h-1c-.59-2.33-1.62-2.94-3.73-2.94h-2.67v6.34h2a1.34,1.34,0,0,0,1.32-.61,4.8,4.8,0,0,0,.35-1.52h1.08v5.58h-1.08a5.29,5.29,0,0,0-.32-1.49,1.37,1.37,0,0,0-1.35-.66h-2v6.74h3.14c2.4,0,3.23-1,4.13-3.8l.93.1-.42,5H486.08v-1a2.6,2.6,0,0,0,1.12-.22"/><path class="cls-1" d="M502.61,105.41v-4.48h.93c1.1,3.33,2.76,4.55,5,4.55,2,0,3.06-1,3.06-2.55,0-1.25-.71-2.38-2.74-3l-1.67-.59c-2.4-.79-4.5-2-4.5-4.83,0-3,2.3-5.43,6.69-5.43a10.25,10.25,0,0,1,5.12,1.35v4.38h-1.1c-.81-3.16-2.11-4.51-4.28-4.51-2,0-3,1.06-3,2.55s.93,2.33,2.38,2.82l2,.64c3.26,1.08,4.7,2.57,4.7,4.95,0,3.43-3,5.54-7,5.54a11.58,11.58,0,0,1-5.56-1.35"/></svg>