<svg id="Слой_1" data-name="Слой 1" xmlns="http://www.w3.org/2000/svg" viewBox="0 0 237 61"><defs><style>.cls-1{fill:#fff;}.cls-2{fill:#013aa2;}</style></defs><title>Монтажная область 37</title><rect class="cls-1" width="237" height="61"/><path class="cls-2" d="M40.1,25h-7V35.5H31.54V23.6H41.65V35.5H40.1Z"/><path class="cls-2" d="M44.85,35.5V23.6h4.62q4.88,0,4.88,3.74A3.5,3.5,0,0,1,53.17,30a5.39,5.39,0,0,1-3.71,1.08H46.4V35.5ZM46.4,25v4.64h3a4.12,4.12,0,0,0,2.51-.63,2.06,2.06,0,0,0,.82-1.73q0-2.28-3.21-2.28Z"/><path class="cls-2" d="M56.8,35.5V23.6h1.55v9.21l7.21-9.21h1.33V35.5H65.33V26.29L58.11,35.5Z"/><path class="cls-2" d="M78.73,30.18H71.64V35.5H70.09V23.6h1.55v5.13h7.09V23.6h1.55V35.5H78.73Z"/><path class="cls-2" d="M90.9,31.1H87.7l-3.62,4.4H82.21l3.86-4.66a4,4,0,0,1-2.24-1.21A3.33,3.33,0,0,1,83,27.34a3.42,3.42,0,0,1,1.2-2.69A5.14,5.14,0,0,1,87.7,23.6h4.74V35.5H90.9Zm0-1.45V25H87.55a3.28,3.28,0,0,0-2.21.63,2.15,2.15,0,0,0-.71,1.7,2,2,0,0,0,.71,1.55,3.11,3.11,0,0,0,1.93.72Z"/><path class="cls-2" d="M94.44,23.6h9.83V25h-4.15V35.5H98.57V25H94.44Z"/><path class="cls-2" d="M107.78,28h3.11a5.75,5.75,0,0,1,3.59.94,3.22,3.22,0,0,1,1.21,2.69,3.37,3.37,0,0,1-1.29,2.86,5.92,5.92,0,0,1-3.65,1h-4.5V23.6h1.55Zm0,1.45v4.59h3q3.28,0,3.28-2.4,0-2.19-3.23-2.19Z"/><path class="cls-2" d="M126.31,33.88a.9.9,0,0,0,.54.19q.68,0,1.41-1.53L122.5,23.6h1.85L129.06,31l3.52-7.36h1.6l-4.45,9.18a7.37,7.37,0,0,1-1.33,2.06,2.19,2.19,0,0,1-1.59.66,1.7,1.7,0,0,1-1.26-.48Z"/><path class="cls-2" d="M145,35.5H143.5V30.43A5.59,5.59,0,0,1,142,31a7.46,7.46,0,0,1-1.9.25,5.44,5.44,0,0,1-3.35-1,3.44,3.44,0,0,1-1.29-2.94V23.6H137v3q0,3.21,3.37,3.21a6.31,6.31,0,0,0,3.14-.9V23.6H145Z"/><path class="cls-2" d="M152.22,23.57h1.22l5.22,11.93H157l-1.33-3h-5.83l-1.31,3H147Zm-1.75,7.56h4.67l-2.35-5.41Z"/><path class="cls-2" d="M170.32,33.56a4.69,4.69,0,0,1-1.93,1.52,6.41,6.41,0,0,1-2.69.57A6.06,6.06,0,0,1,161.23,34a6,6,0,0,1-1.67-4.44,6.08,6.08,0,0,1,1.66-4.36,5.74,5.74,0,0,1,4.36-1.74,6.45,6.45,0,0,1,2.73.55,4.69,4.69,0,0,1,1.84,1.42l-1,1a4.82,4.82,0,0,0-3.54-1.46,4.22,4.22,0,0,0-3.25,1.28,4.71,4.71,0,0,0-1.19,3.35,4.37,4.37,0,0,0,4.62,4.62,4.66,4.66,0,0,0,3.64-1.6Z"/><path class="cls-2" d="M171.38,23.6h9.83V25h-4.15V35.5h-1.55V25h-4.13Z"/><path class="cls-2" d="M183.18,35.5V23.6h1.55v9.21l7.21-9.21h1.33V35.5h-1.55V26.29l-7.22,9.21Z"/><path class="cls-2" d="M196.47,23.6H205V25h-7v3.71h6.54v1.41H198v3.89h7.17V35.5h-8.72Z"/></svg>