<svg id="Слой_1" data-name="Слой 1" xmlns="http://www.w3.org/2000/svg" viewBox="0 0 90 14"><defs><style>.cls-1{fill:#013aa2;}</style></defs><title>Монтажная область 18</title><path class="cls-1" d="M65.1,2.8h6v1h-5V6.44h4.62v1H66.19v2.75h5.06v1H65.1Z"/><path class="cls-1" d="M79.06,11.2l-5.14-6.4v6.4H72.86V2.8h.86l5.13,6.43V2.8h1.05v8.4Z"/><path class="cls-1" d="M85.65,6.9H89V10a3.83,3.83,0,0,1-1.43.93,5,5,0,0,1-1.81.34,4.42,4.42,0,0,1-3.17-1.18A4.12,4.12,0,0,1,81.36,7a4.19,4.19,0,0,1,1.23-3.06,4.11,4.11,0,0,1,3.05-1.25A3.82,3.82,0,0,1,88.81,4l-.68.71a3.52,3.52,0,0,0-4.74,0A3.22,3.22,0,0,0,82.5,7a3.15,3.15,0,0,0,.92,2.38A3.65,3.65,0,0,0,88,9.54V7.9H85.65Z"/><path class="cls-1" d="M1,11.2V2.8H4.2q3.25,0,3.25,2.52a2.26,2.26,0,0,1-.56,1.54A2.61,2.61,0,0,1,5.4,7.7l2.69,3.5H6.76L4.26,7.91H2.08V11.2ZM2.08,3.82V6.89H4.24a2.49,2.49,0,0,0,1.53-.43,1.36,1.36,0,0,0,.57-1.15q0-1.5-2.17-1.5Z"/><path class="cls-1" d="M16.27,7.6a3.51,3.51,0,0,1-1,2.73,3.47,3.47,0,0,1-2.42.92,3.67,3.67,0,0,1-2.6-1,3.57,3.57,0,0,1-1-2.75V2.75h1.09V7.37A2.88,2.88,0,0,0,11,9.46a2.44,2.44,0,0,0,1.83.75,2.11,2.11,0,0,0,1.74-.74,3.16,3.16,0,0,0,.6-2V2.75h1.09Z"/><path class="cls-1" d="M22.71,8.26A2,2,0,0,0,22,7.81c-.3-.11-.64-.21-1-.3s-.74-.2-1.1-.31a5.8,5.8,0,0,1-1-.42,2,2,0,0,1-.74-.7A2,2,0,0,1,17.81,5a2,2,0,0,1,.86-1.64,3.57,3.57,0,0,1,2.25-.67A3.63,3.63,0,0,1,24,3.92l-.71.71a3.21,3.21,0,0,0-2.37-.9A3,3,0,0,0,19.55,4a1,1,0,0,0-.23,1.74,2.4,2.4,0,0,0,1,.46q.58.14,1.25.34T22.78,7a2.24,2.24,0,0,1,1,.7,1.84,1.84,0,0,1,.38,1.19,2.12,2.12,0,0,1-.86,1.75,3.43,3.43,0,0,1-2.18.68,4.5,4.5,0,0,1-2-.47,3.57,3.57,0,0,1-1.41-1.14l.71-.77a3.55,3.55,0,0,0,1.19,1,3.51,3.51,0,0,0,1.66.39,2.25,2.25,0,0,0,1.28-.35A1.09,1.09,0,0,0,23,9,1,1,0,0,0,22.71,8.26Z"/><path class="cls-1" d="M52,2a4.84,4.84,0,0,1,4.65,5A4.84,4.84,0,0,1,52,12H37.34a4.84,4.84,0,0,1-4.65-5,4.84,4.84,0,0,1,4.65-5H52m0-1H37.34a5.84,5.84,0,0,0-5.65,6,5.84,5.84,0,0,0,5.65,6H52a5.84,5.84,0,0,0,5.65-6A5.83,5.83,0,0,0,52,1Z"/><circle class="cls-1" cx="37.78" cy="7" r="3"/></svg>