<svg id="Слой_1" data-name="Слой 1" xmlns="http://www.w3.org/2000/svg" viewBox="0 0 142 38"><title>Монтажная область 23</title><path d="M91.33,4l-.2-.87h0L90.92,4l-.63,1.74H92Zm1.44,4-.59-1.6H90.06l-.57,1.6H88.8L91,2.08h.31L93.5,7.95Zm-7.07,0V4.07l.08-.87h0L85.43,4,83.93,6.6h-.21L82.13,4l-.29-.79h0l.12.86V7.95h-.64V2.18h.51l1.8,3,.27.64h0l.25-.66,1.72-2.93h.54V7.95Zm-7.32-.61v.61H75.2V2.18h3.14v.61H75.88V4.67h2.25v.61H75.88V7.34ZM70.9,2.79V7.95h-.68V2.79h-1.8V2.18H72.7v.61Zm-6-.1a1.89,1.89,0,0,0-.67.12,1.53,1.53,0,0,0-.59.4,2.08,2.08,0,0,0-.42.73,3.45,3.45,0,0,0-.16,1.11,3.32,3.32,0,0,0,.15,1,2.11,2.11,0,0,0,.41.74,1.7,1.7,0,0,0,.61.45,1.94,1.94,0,0,0,.76.15,2.55,2.55,0,0,0,.65-.07,1.8,1.8,0,0,0,.47-.19l.16.53a1.44,1.44,0,0,1-.63.26,4.17,4.17,0,0,1-.81.08,2.64,2.64,0,0,1-1-.18,2.14,2.14,0,0,1-.79-.54,2.6,2.6,0,0,1-.54-.93,4.07,4.07,0,0,1-.2-1.34,3.79,3.79,0,0,1,.22-1.37,2.59,2.59,0,0,1,.58-.92,2.21,2.21,0,0,1,.8-.52,2.59,2.59,0,0,1,.91-.17,5,5,0,0,1,.81.05,2.62,2.62,0,0,1,.54.14l-.16.61a2.57,2.57,0,0,0-1.13-.2M58.88,7.95V4l0-.66h0l-.36.67L55.75,7.95h-.4V2.18H56v4L56,6.78h0l.36-.68,2.79-3.93h.4V7.95ZM51.31,2.69a1.9,1.9,0,0,0-.67.12,1.51,1.51,0,0,0-.59.4,2,2,0,0,0-.42.73,3.42,3.42,0,0,0-.16,1.11,3.28,3.28,0,0,0,.15,1,2.11,2.11,0,0,0,.41.74,1.68,1.68,0,0,0,.61.45,2,2,0,0,0,.76.15,2.56,2.56,0,0,0,.65-.07,1.82,1.82,0,0,0,.47-.19l.16.53a1.44,1.44,0,0,1-.63.26,4.18,4.18,0,0,1-.81.08,2.65,2.65,0,0,1-1-.18,2.14,2.14,0,0,1-.79-.54A2.6,2.6,0,0,1,49,6.4a4,4,0,0,1-.2-1.34A3.79,3.79,0,0,1,49,3.69a2.61,2.61,0,0,1,.58-.92,2.2,2.2,0,0,1,.8-.52,2.57,2.57,0,0,1,.91-.17,5,5,0,0,1,.81.05,2.59,2.59,0,0,1,.54.14l-.16.61a2.57,2.57,0,0,0-1.13-.2"/><path d="M52.82,12.91v5.27h.44a1.81,1.81,0,0,0,1.45-.52,2.16,2.16,0,0,0,.44-1.43V14.82a2.14,2.14,0,0,0-.44-1.41,1.81,1.81,0,0,0-1.45-.5Zm-1.21,5.27V12.91h-.42a1.81,1.81,0,0,0-1.45.52,2.09,2.09,0,0,0-.44,1.39v1.41a2.15,2.15,0,0,0,.44,1.42,1.75,1.75,0,0,0,1.45.53Zm1.27-7.57v1.24h.36a4,4,0,0,1,1.42.22,2.75,2.75,0,0,1,1,.63,2.36,2.36,0,0,1,.57.94,3.73,3.73,0,0,1,.19,1.19v1.39a3.78,3.78,0,0,1-.19,1.21,2.41,2.41,0,0,1-.59.94,2.73,2.73,0,0,1-1,.61,4,4,0,0,1-1.41.22h-.36v1.3H51.56V19.2h-.35A3.88,3.88,0,0,1,49.82,19a2.81,2.81,0,0,1-1-.61,2.39,2.39,0,0,1-.59-.94,3.44,3.44,0,0,1-.2-1.21V14.83a3.76,3.76,0,0,1,.19-1.2,2.54,2.54,0,0,1,.59-1,2.8,2.8,0,0,1,1-.61,4,4,0,0,1,1.41-.22h.35V10.6Z"/><path d="M51.18,13a1.69,1.69,0,0,0-1.35.48,2,2,0,0,0-.41,1.32v1.41a2,2,0,0,0,.41,1.34,1.63,1.63,0,0,0,1.35.49h.3V13Zm.54,5.27h-.54a1.88,1.88,0,0,1-1.54-.58,2.26,2.26,0,0,1-.46-1.49V14.82a2.22,2.22,0,0,1,.46-1.47,1.92,1.92,0,0,1,1.54-.56h.54Zm1.22-.24h.32a1.69,1.69,0,0,0,1.35-.48A2.05,2.05,0,0,0,55,16.23V14.82a2,2,0,0,0-.41-1.33A1.7,1.7,0,0,0,53.26,13h-.32Zm.32.24H52.7V12.79h.56a1.92,1.92,0,0,1,1.54.55,2.24,2.24,0,0,1,.46,1.48v1.41a2.28,2.28,0,0,1-.46,1.51,1.91,1.91,0,0,1-1.54.56m-1.57,2.08h1.07v-1.3h.48a3.87,3.87,0,0,0,1.36-.21,2.63,2.63,0,0,0,.94-.59,2.29,2.29,0,0,0,.56-.89,3.68,3.68,0,0,0,.18-1.18V14.82a3.63,3.63,0,0,0-.18-1.15,2.25,2.25,0,0,0-.55-.9,2.64,2.64,0,0,0-.94-.6A3.91,3.91,0,0,0,53.23,12h-.48V10.72H51.68V12h-.47a3.88,3.88,0,0,0-1.36.21,2.67,2.67,0,0,0-1,.59,2.4,2.4,0,0,0-.56.91,3.64,3.64,0,0,0-.19,1.16v1.38a3.34,3.34,0,0,0,.2,1.17,2.27,2.27,0,0,0,.56.9,2.68,2.68,0,0,0,1,.59,3.77,3.77,0,0,0,1.35.21h.47Zm1.31.24H51.44v-1.3h-.23a4,4,0,0,1-1.43-.22,2.91,2.91,0,0,1-1-.64,2.5,2.5,0,0,1-.62-1,3.55,3.55,0,0,1-.21-1.25V14.83a3.84,3.84,0,0,1,.2-1.24,2.68,2.68,0,0,1,.61-1,3,3,0,0,1,1-.64,4.1,4.1,0,0,1,1.45-.23h.23V10.48H53v1.24h.24a4.15,4.15,0,0,1,1.46.23,2.9,2.9,0,0,1,1,.65,2.5,2.5,0,0,1,.6,1,3.84,3.84,0,0,1,.2,1.23v1.39a3.89,3.89,0,0,1-.2,1.25,2.5,2.5,0,0,1-.62,1,2.89,2.89,0,0,1-1,.64,4.1,4.1,0,0,1-1.45.22H53Z"/><polygon points="65.36 10.6 65.36 20.5 64.11 20.5 64.11 12.81 64.08 12.81 60.09 20.5 58.85 20.5 58.85 10.6 60.09 10.6 60.09 18.29 60.12 18.29 64.11 10.6 65.36 10.6"/><path d="M64.23,20.38h1V10.72H64.18l-4,7.69H60V10.72H59v9.66H60l4-7.68h.22Zm1.26.24H64V13.25l-3.82,7.37H58.73V10.48h1.48v7.37L64,10.48h1.45Z"/><polygon points="69.61 10.6 69.61 14.87 73.36 14.87 73.36 10.6 74.67 10.6 74.67 20.5 73.36 20.5 73.36 16.02 69.61 16.02 69.61 20.5 68.3 20.5 68.3 10.6 69.61 10.6"/><path d="M73.48,20.38h1.07V10.72H73.48V15h-4V10.72H68.42v9.66h1.07V15.9h4Zm1.31.24H73.24V16.14H69.73v4.48H68.18V10.48h1.55v4.27h3.52V10.48h1.55Z"/><path d="M79.08,17H82.2l-1.56-5.15h0ZM78,20.5H76.66l3.28-9.9h1.43l3.26,9.9H83.28L82.5,18H78.76Z"/><path d="M79.24,16.86H82L80.63,12.2Zm3.13.24H78.92l1.61-5.38h.21Zm1,3.28h1.1l-3.18-9.66H80l-3.2,9.66h1.1l.75-2.51h3.92Zm1.43.24H83.19l-.78-2.51H78.85l-.75,2.51H76.5l3.35-10.13h1.61Z"/><polygon points="87.94 10.6 87.94 14.87 91.69 14.87 91.69 10.6 93 10.6 93 20.5 91.69 20.5 91.69 16.02 87.94 16.02 87.94 20.5 86.62 20.5 86.62 10.6 87.94 10.6"/><path d="M91.81,20.38h1.07V10.72H91.81V15h-4V10.72H86.74v9.66h1.07V15.9h4Zm1.31.24H91.57V16.14H88.06v4.48H86.5V10.48h1.55v4.27h3.51V10.48h1.55Z"/><path d="M98.74,10.47a3.52,3.52,0,0,1,1,.15,3.24,3.24,0,0,1,.83.44,3.21,3.21,0,0,1,.63.66,2.85,2.85,0,0,1,.38.82l-1,.38a2,2,0,0,0-.63-1,1.88,1.88,0,0,0-1.17-.35,1.7,1.7,0,0,0-1.42.59,2.61,2.61,0,0,0-.49,1.69v3.52a2.48,2.48,0,0,0,.49,1.6,1.65,1.65,0,0,0,1.42.63,1.92,1.92,0,0,0,1.17-.33,2.06,2.06,0,0,0,.64-1.12l1,.34a2.69,2.69,0,0,1-1,1.64,3.17,3.17,0,0,1-1.88.52,3.27,3.27,0,0,1-1.3-.25,2.68,2.68,0,0,1-1-.67,3,3,0,0,1-.63-1,3.81,3.81,0,0,1-.22-1.34V13.84a4.22,4.22,0,0,1,.22-1.41,2.93,2.93,0,0,1,.63-1.06,2.52,2.52,0,0,1,1-.67,3.58,3.58,0,0,1,1.31-.23"/><path d="M98.74,10.59a3.48,3.48,0,0,0-1.27.22,2.43,2.43,0,0,0-.94.64,2.79,2.79,0,0,0-.6,1,4.09,4.09,0,0,0-.21,1.37v3.52a3.68,3.68,0,0,0,.21,1.29,2.86,2.86,0,0,0,.6,1,2.58,2.58,0,0,0,1,.64,3.13,3.13,0,0,0,1.25.24,3.06,3.06,0,0,0,1.81-.5,2.49,2.49,0,0,0,.92-1.46l-.75-.26a2.05,2.05,0,0,1-.65,1.06,2,2,0,0,1-1.25.35A1.77,1.77,0,0,1,97.32,19a2.61,2.61,0,0,1-.52-1.67V13.84a2.71,2.71,0,0,1,.52-1.77,1.82,1.82,0,0,1,1.51-.63,2,2,0,0,1,1.25.38,2.14,2.14,0,0,1,.63.93l.73-.29a2.63,2.63,0,0,0-.33-.68,3,3,0,0,0-.6-.63,3.06,3.06,0,0,0-.8-.42,3.37,3.37,0,0,0-1-.14m0,10.17a3.4,3.4,0,0,1-1.34-.25,2.8,2.8,0,0,1-1-.7,3.07,3.07,0,0,1-.65-1.06,3.9,3.9,0,0,1-.23-1.38V13.84a4.28,4.28,0,0,1,.22-1.45,3,3,0,0,1,.66-1.11,2.62,2.62,0,0,1,1-.7,3.69,3.69,0,0,1,1.35-.24,3.62,3.62,0,0,1,1,.15,3.36,3.36,0,0,1,.87.46,3.25,3.25,0,0,1,.65.68,2.9,2.9,0,0,1,.4.86l0,.1-1.18.47,0-.13a1.93,1.93,0,0,0-.59-.94,1.76,1.76,0,0,0-1.1-.32,1.59,1.59,0,0,0-1.33.54,2.49,2.49,0,0,0-.46,1.62v3.52a2.37,2.37,0,0,0,.46,1.52,1.53,1.53,0,0,0,1.33.58,1.79,1.79,0,0,0,1.1-.3,2,2,0,0,0,.6-1.06l0-.12,1.19.42,0,.11a2.8,2.8,0,0,1-1,1.71,3.31,3.31,0,0,1-2,.54"/><path d="M109,13.82c0-1.5-.67-2.25-2-2.25s-2,.75-2,2.25v3.45c0,1.52.68,2.28,2,2.28s2-.76,2-2.29Zm-2-3.36a3.32,3.32,0,0,1,2.48.89,3.47,3.47,0,0,1,.85,2.46v3.45a3.47,3.47,0,0,1-.85,2.47,3.27,3.27,0,0,1-2.48.9,3.24,3.24,0,0,1-2.48-.9,3.37,3.37,0,0,1-.86-2.46V13.82a3.43,3.43,0,0,1,.86-2.47,3.29,3.29,0,0,1,2.48-.89"/><path d="M107,11.69c-1.29,0-1.91.7-1.91,2.13v3.45c0,1.45.62,2.16,1.91,2.16s1.9-.71,1.9-2.17V13.82c0-1.44-.62-2.13-1.9-2.13m0,8c-1.41,0-2.15-.83-2.15-2.4V13.82c0-1.57.72-2.37,2.15-2.37s2.14.8,2.14,2.37v3.44c0,1.6-.72,2.41-2.14,2.41m0-9.09a3.18,3.18,0,0,0-2.4.85,3.29,3.29,0,0,0-.83,2.39v3.45a3.27,3.27,0,0,0,.83,2.37,3.14,3.14,0,0,0,2.4.86,3.18,3.18,0,0,0,2.4-.86,3.38,3.38,0,0,0,.81-2.39V13.81a3.35,3.35,0,0,0-.81-2.38,3.22,3.22,0,0,0-2.4-.85m0,10.17a3.37,3.37,0,0,1-2.57-.94,3.5,3.5,0,0,1-.89-2.54V13.82a3.56,3.56,0,0,1,.89-2.55,3.4,3.4,0,0,1,2.57-.92,3.44,3.44,0,0,1,2.57.92,3.6,3.6,0,0,1,.88,2.54v3.45a3.61,3.61,0,0,1-.88,2.55,3.4,3.4,0,0,1-2.57.94"/><path d="M114.18,19.42h1.91a1.8,1.8,0,0,0,1.3-.41,1.87,1.87,0,0,0,.42-1.42,1.79,1.79,0,0,0-.41-1.31,1.84,1.84,0,0,0-1.3-.4h-1.92Zm0-4.56h1.67a1.58,1.58,0,0,0,1.23-.41,1.86,1.86,0,0,0,.36-1.23,1.57,1.57,0,0,0-.37-1.15,1.7,1.7,0,0,0-1.23-.37h-1.65Zm4.46-1.77a2.77,2.77,0,0,1-.31,1.42,1.75,1.75,0,0,1-1.05.77v0a2.22,2.22,0,0,1,1.39.82,2.56,2.56,0,0,1,.45,1.56,3,3,0,0,1-.68,2.1,3.08,3.08,0,0,1-2.28.72H112.9V10.6h2.91a3,3,0,0,1,2.16.67,2.47,2.47,0,0,1,.68,1.82"/><path d="M114.3,14.74h1.54a1.48,1.48,0,0,0,1.14-.37,1.74,1.74,0,0,0,.33-1.15,1.46,1.46,0,0,0-.33-1.06,1.59,1.59,0,0,0-1.14-.33H114.3Zm1.54.24h-1.79V11.59h1.77a1.82,1.82,0,0,1,1.31.4,1.68,1.68,0,0,1,.4,1.23,2,2,0,0,1-.38,1.31,1.7,1.7,0,0,1-1.32.45M114.3,19.3h1.79a1.69,1.69,0,0,0,1.22-.38,1.78,1.78,0,0,0,.39-1.33,1.7,1.7,0,0,0-.37-1.23,1.73,1.73,0,0,0-1.21-.36h-1.8Zm1.79.24h-2V15.76h2a2,2,0,0,1,1.38.43,1.91,1.91,0,0,1,.45,1.4,2,2,0,0,1-.46,1.51,1.91,1.91,0,0,1-1.38.44m-3.07.84h3.14a3,3,0,0,0,2.19-.69,2.85,2.85,0,0,0,.65-2,2.45,2.45,0,0,0-.43-1.49,2.12,2.12,0,0,0-1.32-.77l-.1,0v-.21l.08,0a1.62,1.62,0,0,0,1-.71,2.64,2.64,0,0,0,.3-1.36,2.36,2.36,0,0,0-.65-1.73,2.91,2.91,0,0,0-2.07-.63H113Zm3.14.24h-3.38V10.48h3a3.12,3.12,0,0,1,2.24.7,2.58,2.58,0,0,1,.72,1.9,2.88,2.88,0,0,1-.33,1.48,1.7,1.7,0,0,1-.81.7,2.21,2.21,0,0,1,1.14.78,2.69,2.69,0,0,1,.47,1.63,3.08,3.08,0,0,1-.71,2.18,3.2,3.2,0,0,1-2.37.76"/><path d="M130.44,20.5h-1.31V10.6h1.31Zm-5.86-1.08A1.75,1.75,0,0,0,125.9,19a2,2,0,0,0,.41-1.46,2,2,0,0,0-.39-1.36,1.88,1.88,0,0,0-1.37-.41h-1.64v3.66Zm-1.65-8.82v4.11h1.77a4.21,4.21,0,0,1,1.34.19,2.07,2.07,0,0,1,1.41,1.43,4.59,4.59,0,0,1,.15,1.2,5.06,5.06,0,0,1-.15,1.27,2.26,2.26,0,0,1-.52.93,2.13,2.13,0,0,1-.92.57,4.39,4.39,0,0,1-1.37.19h-3V10.6Z"/><path d="M123,19.3h1.54a1.64,1.64,0,0,0,1.24-.39,2,2,0,0,0,.38-1.38,1.89,1.89,0,0,0-.36-1.28,1.78,1.78,0,0,0-1.28-.37H123Zm1.54.24H122.8v-3.9h1.76a2,2,0,0,1,1.45.44,2.12,2.12,0,0,1,.43,1.45,2.16,2.16,0,0,1-.45,1.54,1.85,1.85,0,0,1-1.41.46m-2.84.84h2.91a4.26,4.26,0,0,0,1.33-.18,2,2,0,0,0,.86-.54,2.15,2.15,0,0,0,.49-.88,4.88,4.88,0,0,0,.15-1.24,4.37,4.37,0,0,0-.15-1.17A1.93,1.93,0,0,0,126,15a4.11,4.11,0,0,0-1.3-.18h-1.89V10.72h-1.07Zm2.91.24H121.5V10.48H123v4.11h1.65a4.35,4.35,0,0,1,1.38.2,2.19,2.19,0,0,1,1.48,1.51,4.76,4.76,0,0,1,.15,1.24,5.24,5.24,0,0,1-.15,1.3,2.42,2.42,0,0,1-.55,1,2.22,2.22,0,0,1-1,.61,4.57,4.57,0,0,1-1.4.2m4.6-.24h1.07V10.72h-1.07Zm1.31.24H129V10.48h1.55Z"/><path d="M135.79,8.6a1.23,1.23,0,0,0,.26.76.73.73,0,0,0,.57.21.79.79,0,0,0,.59-.21,1.24,1.24,0,0,0,.26-.76h.86a2.2,2.2,0,0,1-.51,1.24,1.76,1.76,0,0,1-1.2.35,1.7,1.7,0,0,1-1.19-.35,2.14,2.14,0,0,1-.52-1.24Zm4.09,2v9.9h-1.26V12.81h0l-4,7.69h-1.24V10.6h1.24v7.68h0l4-7.68Z"/><path d="M135.05,8.72a1.84,1.84,0,0,0,.46,1,1.59,1.59,0,0,0,1.11.32,1.65,1.65,0,0,0,1.12-.32,1.94,1.94,0,0,0,.44-1h-.61a1.18,1.18,0,0,1-.28.73.9.9,0,0,1-.67.24.85.85,0,0,1-.66-.24,1.17,1.17,0,0,1-.28-.72Zm1.57,1.6a1.8,1.8,0,0,1-1.27-.39,2.21,2.21,0,0,1-.55-1.31l0-.14h1.12v.11a1.16,1.16,0,0,0,.22.69.63.63,0,0,0,.49.17.68.68,0,0,0,.5-.17,1.16,1.16,0,0,0,.22-.69V8.48h1.11l0,.14a2.27,2.27,0,0,1-.54,1.31,1.88,1.88,0,0,1-1.28.39m2.13,10.06h1V10.72H138.7l-4,7.69h-.22V10.72h-1v9.66h1.05l4-7.68h.22Zm1.26.24h-1.49V13.25l-3.82,7.37h-1.43V10.48h1.48v7.37l3.82-7.37H140Z"/><path d="M50.77,24.4l-.15,2.81A20.63,20.63,0,0,1,50.29,30a13.67,13.67,0,0,1-.6,2.2h3.67V24.4Zm3.9-1.1v8.87h1.13v3.18h-1.3V33.19H48.74v2.16H47.46V32.16h1A14.26,14.26,0,0,0,49.08,30a17.47,17.47,0,0,0,.34-2.81l.2-3.85Z"/><path d="M49.87,32h3.38V24.52H50.89l-.14,2.7A20.76,20.76,0,0,1,50.41,30,13.84,13.84,0,0,1,49.87,32m3.62.24h-4l.06-.16a13.46,13.46,0,0,0,.6-2.18,20.08,20.08,0,0,0,.32-2.74l.16-2.93h2.83Zm1.15,2.94h1.06V32.28H54.56V23.41H49.74l-.2,3.74A17.34,17.34,0,0,1,49.2,30a14.52,14.52,0,0,1-.66,2.23l0,.08h-.93v2.94h1V33.07h6Zm1.3.24H54.39V33.31H48.86v2.16H47.34V32h1A14.39,14.39,0,0,0,49,29.93a17.06,17.06,0,0,0,.34-2.79l.21-4H54.8V32h1.13Z"/><polygon points="64.31 23.29 64.31 33.19 63.06 33.19 63.06 25.5 63.03 25.5 59.04 33.19 57.8 33.19 57.8 23.29 59.04 23.29 59.04 30.98 59.07 30.98 63.06 23.29 64.31 23.29"/><path d="M63.18,33.07h1V23.41H63.13l-4,7.69h-.22V23.41h-1v9.66h1l4-7.68h.22Zm1.26.24H62.94V25.94l-3.82,7.37H57.68V23.17h1.48v7.37L63,23.17h1.45Z"/><path d="M68.55,28.27h1.92a1.42,1.42,0,0,0,1.19-.48A2.38,2.38,0,0,0,72,26.32a2.38,2.38,0,0,0-.37-1.47,1.41,1.41,0,0,0-1.19-.46H68.55Zm2-5a2.75,2.75,0,0,1,2.1.78,3.22,3.22,0,0,1,.72,2.24,3.16,3.16,0,0,1-.71,2.2,2.61,2.61,0,0,1-2,.81h-2v3.87H67.25v-9.9Z"/><path d="M68.67,28.16h1.81a1.31,1.31,0,0,0,1.09-.43,2.29,2.29,0,0,0,.34-1.4,2.29,2.29,0,0,0-.34-1.4,1.29,1.29,0,0,0-1.09-.42H68.67Zm1.81.24h-2V24.26h2a1.53,1.53,0,0,1,1.28.51,2.5,2.5,0,0,1,.39,1.55,2.5,2.5,0,0,1-.39,1.55,1.53,1.53,0,0,1-1.28.52m-3.12,4.67h1.07V29.19h2.15a2.51,2.51,0,0,0,2-.77,3,3,0,0,0,.68-2.12,3.09,3.09,0,0,0-.69-2.16,2.63,2.63,0,0,0-2-.74H67.37Zm1.31.24H67.13V23.17h3.4a2.87,2.87,0,0,1,2.19.82,3.36,3.36,0,0,1,.76,2.32,3.26,3.26,0,0,1-.74,2.28,2.73,2.73,0,0,1-2.14.85H68.67Z"/><polygon points="81.18 23.29 81.18 24.43 76.96 24.43 76.96 27.58 80.31 27.58 80.31 28.6 76.96 28.6 76.96 32.07 81.37 32.07 81.37 33.19 75.65 33.19 75.65 23.29 81.18 23.29"/><path d="M75.77,33.07h5.48v-.88H76.84V28.48h3.34V27.7H76.84V24.31h4.22v-.89H75.77Zm5.72.24h-6V23.17H81.3v1.37H77.08v2.91h3.34v1.26H77.08v3.23h4.41Z"/><path d="M90.25,24.19h-.31a1.05,1.05,0,0,0-.64.18,1.53,1.53,0,0,0-.44.58l-1.13,2.18a2.26,2.26,0,0,1-.4.56,1.91,1.91,0,0,1-.52.35v0a1.65,1.65,0,0,1,1,.87l1.37,2.67a1.24,1.24,0,0,0,.45.55,1.1,1.1,0,0,0,.63.16h.27v.85a1.63,1.63,0,0,1-.32.06l-.41,0a1.84,1.84,0,0,1-1.12-.33A2.5,2.5,0,0,1,88,32l-1.42-2.8a1.23,1.23,0,0,0-.42-.51,1.58,1.58,0,0,0-.68-.12H85v4.6H83.7v-9.9H85v4.3h.45a1.27,1.27,0,0,0,.61-.15,1.37,1.37,0,0,0,.46-.57l1.24-2.43a2.37,2.37,0,0,1,.75-.9,1.85,1.85,0,0,1,1.09-.32,3,3,0,0,1,.38,0l.27.05Z"/><path d="M84.87,28.47h.58a1.68,1.68,0,0,1,.74.13,1.35,1.35,0,0,1,.48.56L88.08,32a2.43,2.43,0,0,0,.71.87,1.72,1.72,0,0,0,1,.3l.4,0,.21,0v-.63H90.3a1.2,1.2,0,0,1-.69-.18,1.34,1.34,0,0,1-.49-.59L87.75,29a1.55,1.55,0,0,0-1-.81l-.08,0V28l.07,0a1.85,1.85,0,0,0,.49-.33,2.16,2.16,0,0,0,.37-.53l1.13-2.18a1.6,1.6,0,0,1,.47-.61,1.16,1.16,0,0,1,.71-.2h.2v-.68h0l-.15,0H89.6a1.72,1.72,0,0,0-1,.29,2.24,2.24,0,0,0-.71.86l-1.24,2.43a1.46,1.46,0,0,1-.51.62,1.39,1.39,0,0,1-.67.17h-.57v-4.3h-1v9.66h1Zm5,4.91A2,2,0,0,1,88.66,33a2.61,2.61,0,0,1-.79-1l-1.42-2.8a1.14,1.14,0,0,0-.38-.46,1.51,1.51,0,0,0-.62-.1h-.34v4.6H83.58V23.17h1.52v4.3h.33a1.14,1.14,0,0,0,.56-.14,1.27,1.27,0,0,0,.41-.52l1.24-2.43a2.46,2.46,0,0,1,.79-.94,1.94,1.94,0,0,1,1.16-.34,3.28,3.28,0,0,1,.4,0l.17,0,.11,0,.1,0v1.12h-.44a.93.93,0,0,0-.57.15A1.4,1.4,0,0,0,89,25l-1.13,2.19a2.34,2.34,0,0,1-.42.59,1.71,1.71,0,0,1-.35.27,1.74,1.74,0,0,1,.89.85l1.36,2.67a1.13,1.13,0,0,0,.41.5,1,1,0,0,0,.57.15h.39v1.05l-.08,0a1.75,1.75,0,0,1-.34.06l-.42,0"/><polygon points="98.05 23.29 98.05 24.44 95.58 24.44 95.58 33.19 94.27 33.19 94.27 24.44 91.8 24.44 91.8 23.29 98.05 23.29"/><path d="M94.39,33.07h1.07V24.32h2.47v-.91h-6v.91h2.47Zm1.31.24H94.15V24.56H91.68V23.17h6.49v1.39H95.7Z"/><path d="M105.13,26.51c0-1.5-.67-2.25-2-2.25s-2,.75-2,2.25V30c0,1.52.68,2.28,2,2.28s2-.77,2-2.29Zm-2-3.36a3.33,3.33,0,0,1,2.48.89,3.47,3.47,0,0,1,.84,2.46V30a3.48,3.48,0,0,1-.84,2.47,3.29,3.29,0,0,1-2.48.9,3.25,3.25,0,0,1-2.49-.9A3.37,3.37,0,0,1,99.77,30V26.51a3.43,3.43,0,0,1,.86-2.47,3.29,3.29,0,0,1,2.49-.89"/><path d="M103.11,24.38c-1.29,0-1.92.7-1.92,2.13V30c0,1.45.63,2.16,1.92,2.16S105,31.42,105,30V26.51c0-1.44-.62-2.13-1.9-2.13m0,8c-1.41,0-2.15-.83-2.15-2.4V26.51c0-1.57.72-2.37,2.15-2.37s2.14.8,2.14,2.37V30c0,1.6-.72,2.41-2.14,2.41m0-9.09a3.17,3.17,0,0,0-2.4.85,3.29,3.29,0,0,0-.83,2.39V30a3.27,3.27,0,0,0,.82,2.37,3.76,3.76,0,0,0,4.8,0,3.38,3.38,0,0,0,.81-2.39V26.5a3.36,3.36,0,0,0-.81-2.37,3.21,3.21,0,0,0-2.4-.85m0,10.17a3.35,3.35,0,0,1-2.57-.94A3.5,3.5,0,0,1,99.65,30V26.51a3.56,3.56,0,0,1,.89-2.55,3.39,3.39,0,0,1,2.57-.93,3.44,3.44,0,0,1,2.57.92,3.6,3.6,0,0,1,.88,2.54V30a3.62,3.62,0,0,1-.88,2.55,3.41,3.41,0,0,1-2.57.94"/><path d="M110.36,28.27h1.92a1.42,1.42,0,0,0,1.19-.48,2.39,2.39,0,0,0,.37-1.47,2.39,2.39,0,0,0-.37-1.47,1.42,1.42,0,0,0-1.19-.46h-1.92Zm2-5a2.76,2.76,0,0,1,2.1.78,3.23,3.23,0,0,1,.72,2.24,3.14,3.14,0,0,1-.71,2.2,2.61,2.61,0,0,1-2,.81h-2v3.87H109v-9.9Z"/><path d="M110.48,28.16h1.8a1.31,1.31,0,0,0,1.09-.43,2.28,2.28,0,0,0,.34-1.4,2.28,2.28,0,0,0-.34-1.4,1.29,1.29,0,0,0-1.09-.42h-1.8Zm1.8.24h-2V24.26h2a1.53,1.53,0,0,1,1.28.51,2.5,2.5,0,0,1,.39,1.55,2.5,2.5,0,0,1-.39,1.55,1.53,1.53,0,0,1-1.28.52m-3.11,4.67h1.07V29.19h2.15a2.5,2.5,0,0,0,2-.77,3,3,0,0,0,.68-2.12,3.1,3.1,0,0,0-.69-2.16,2.63,2.63,0,0,0-2-.74h-3.16Zm1.31.24h-1.55V23.17h3.4a2.88,2.88,0,0,1,2.19.82,3.37,3.37,0,0,1,.76,2.32,3.26,3.26,0,0,1-.74,2.28,2.73,2.73,0,0,1-2.14.85h-1.91Z"/><path d="M19.3,27.69c-3.46.2-9.14-1-9.14-10.49,0-9.25,5.67-10.74,9.14-10.54v6.63H16v3.26H19.3v2.51H16v3.26H19.3Zm6.62-21C29.38,6.46,35,7.95,35,17.2c0,9.45-5.62,10.69-9.09,10.49V22.32H29.2V19.06H25.92V16.55H29.2V13.29H25.92ZM43.17,16.9c0-9.35-10.23-12.47-17.25-12.42v-2H29.2V0H16V2.48h3.35l0,2C12.27,4.43,2,7.55,2,16.9,2,25.81,10.44,30.21,19.3,30v3.12H16v2.43H29.2V33.08H25.92V30c8.86.25,17.25-4.16,17.25-13.06"/></svg>