<svg id="Слой_1" data-name="Слой 1" xmlns="http://www.w3.org/2000/svg" viewBox="0 0 106 82"><defs><style>.cls-1{fill:#e981a4;}.cls-2{fill:#f5c998;}.cls-3{fill:#eeaf32;}.cls-4{fill:#e7911e;}.cls-5{fill:#f2cc1f;}.cls-6{fill:#e17126;}.cls-7{fill:#eba80e;}.cls-8{fill:#de5f1f;}.cls-9{fill:#e37f03;}.cls-10{fill:#da4b14;}.cls-11{fill:#c2630d;}.cls-12{fill:#bd3f12;}</style></defs><title>Монтажная область 35</title><path d="M71.2,51.52c-3.31.53-5,3-5,7.28S68.46,66,71.91,66c1.61,0,3.07-.53,6.14-2v3.5c-3.68,1.69-5.85,2.21-8.82,2.21-3.21,0-5.47-.85-7.32-2.73a9.9,9.9,0,0,1-2.84-7.18c0-6.19,4.58-10.38,11.28-10.38,4.45,0,7.51,2,7.51,5a3.23,3.23,0,0,1-3.54,3.24,5.82,5.82,0,0,1-3.11-.95V51.52Z"/><path d="M54.88,59.78c3-3.74,4-5.25,4-7.08a3.3,3.3,0,0,0-3.39-3.3,3.93,3.93,0,0,0-2.79,1.15v7.62l-4.86,6.47V49.88H43.23L35.55,62.61V49.88H32.9l-7,1.7v1.78l3.8.39V69.36h4.91L42,57.25v12.1h5.38l7.49-9.58Z"/><path d="M11.25,75.49l3.19.71V78H1.93V76.19l2.85-.71V53.64H1.62V51.77l7.65-2.32h2v2.61c3.58-2.13,4.81-2.51,6.65-2.51,4.24,0,7.38,3.91,7.38,9.33,0,6.26-4.18,10.48-10.76,10.48a30.41,30.41,0,0,1-3.26-.19v6.32Zm0-8.53c.52,0,.75,0,1.08,0,4,0,6.08-2.47,6.08-7.2,0-4-1.74-6.14-4.94-6.14a19.26,19.26,0,0,0-2.22.2V67Z"/><polyline class="cls-1" points="104.38 33.49 99.53 33.49 99.53 23.92 104.38 23.92 104.38 33.49"/><polyline class="cls-2" points="89.85 9.56 86.09 9.56 86.09 3.74 89.85 3.74 89.85 9.56"/><polyline class="cls-3" points="86.09 3.74 67 3.74 67 0 86.09 0 86.09 3.74"/><polyline class="cls-4" points="67 23.92 67 23.92 67 3.74 86.09 3.74 86.09 9.56 67 9.56 67 23.92"/><polyline class="cls-5" points="99.53 23.92 89.85 23.92 89.85 9.56 99.53 9.56 99.53 23.92"/><polyline class="cls-6" points="99.53 33.49 89.85 33.49 89.85 23.92 99.53 23.92 99.53 33.49"/><polyline class="cls-7" points="89.85 23.92 86.09 23.92 86.09 9.56 89.85 9.56 89.85 23.92"/><polyline class="cls-8" points="89.85 33.49 86.09 33.49 86.09 23.92 89.85 23.92 89.85 33.49"/><polyline class="cls-9" points="86.09 23.92 78.94 23.92 78.94 19.13 67 19.13 67 23.92 67 9.56 86.09 9.56 86.09 23.92"/><polyline class="cls-10" points="86.09 33.49 78.94 33.49 78.94 23.92 86.09 23.92 86.09 33.49"/><polyline class="cls-11" points="78.94 23.92 67 23.92 67 19.13 78.94 19.13 78.94 23.92"/><polyline class="cls-12" points="78.94 33.49 67 33.49 67 23.92 78.94 23.92 78.94 33.49"/><polygon class="cls-12" points="47.86 33.49 67 33.49 67 38.28 47.86 38.28 47.86 33.49 47.86 33.49"/></svg>