<svg id="Слой_1" data-name="Слой 1" xmlns="http://www.w3.org/2000/svg" viewBox="0 0 237 61"><defs><style>.cls-1,.cls-2{fill:#fff;}.cls-1{fill-rule:evenodd;}.cls-3{fill:none;stroke:#fff;stroke-miterlimit:10;}</style></defs><title>Монтажная область 36</title><path class="cls-1" d="M30.64,40.6a.5.5,0,1,1,0,1H29a3.11,3.11,0,0,1-3.1-3.1V28.1A3.11,3.11,0,0,1,29,25H55a3.11,3.11,0,0,1,3.1,3.11V38.5A3.11,3.11,0,0,1,55,41.6H53.38a.5.5,0,0,1,0-1H55A2.1,2.1,0,0,0,57.1,38.5V28.1A2.11,2.11,0,0,0,55,26H29a2.11,2.11,0,0,0-2.09,2.1V38.5A2.1,2.1,0,0,0,29,40.6Zm0,0"/><path class="cls-1" d="M51.29,35.9v7.8A1.82,1.82,0,0,1,50.76,45l0,0a1.8,1.8,0,0,1-1.24.5H34.54A1.8,1.8,0,0,1,33.26,45l0,0a1.8,1.8,0,0,1-.5-1.24V35.9a.5.5,0,0,1,.5-.5H50.79a.5.5,0,0,1,.5.5Zm-1,7.8V36.4H33.74V43.7a.79.79,0,0,0,.21.54l0,0a.81.81,0,0,0,.56.24H49.49a.81.81,0,0,0,.54-.22l0,0a.78.78,0,0,0,.24-.56Zm-17,1.24,0-.68a.5.5,0,0,0,0,.68Zm0,0"/><path class="cls-1" d="M30.31,27.92a1.47,1.47,0,0,1,1,.43l0,0a1.47,1.47,0,0,1,0,2,1.47,1.47,0,0,1-2.09,0l0,0a1.47,1.47,0,0,1,0-2h0a1.48,1.48,0,0,1,1-.43Zm.33,1.14a.49.49,0,0,0-.33-.14.48.48,0,0,0-.33.14h0a.49.49,0,0,0-.13.33.46.46,0,0,0,.12.32v0a.47.47,0,0,0,.67,0,.45.45,0,0,0,.14-.33.48.48,0,0,0-.12-.31Zm-1.41,1.34,0-.68a.51.51,0,0,0,0,.68Zm0,0"/><path class="cls-1" d="M37.14,41.6a.5.5,0,0,1,0-1H42a.5.5,0,0,1,0,1Zm0-2.6a.5.5,0,0,1,0-1h9.75a.5.5,0,0,1,0,1Zm0,0"/><path class="cls-1" d="M51.29,22.9a.5.5,0,0,1-1,0V20.3a.81.81,0,0,0-.23-.56h0a.79.79,0,0,0-.56-.23H34.54a.79.79,0,0,0-.56.23l0,0a.78.78,0,0,0-.21.54v2.6a.5.5,0,1,1-1,0V20.3a1.79,1.79,0,0,1,.5-1.23l0,0a1.8,1.8,0,0,1,1.28-.53H49.49a1.81,1.81,0,0,1,1.27.53h0a1.81,1.81,0,0,1,.53,1.27Zm0,0"/><path class="cls-1" d="M34.21,29.91a.5.5,0,1,1,0-1h19.5a.5.5,0,0,1,0,1Zm0,0"/><path class="cls-2" d="M79.11,36.86V25h4.62q4.88,0,4.88,3.74a3.5,3.5,0,0,1-1.18,2.69,5.39,5.39,0,0,1-3.71,1.08H80.66v4.39Zm1.55-10.45V31h3a4.11,4.11,0,0,0,2.51-.63A2.06,2.06,0,0,0,87,28.69q0-2.28-3.21-2.28Z"/><path class="cls-2" d="M93.41,24.93h1.22l5.22,11.93H98.24l-1.33-3H91.08l-1.31,3H88.19Zm-1.75,7.56h4.67L94,27.09Z"/><path class="cls-2" d="M111.51,34.92a4.71,4.71,0,0,1-1.93,1.52,6.42,6.42,0,0,1-2.69.57,6.06,6.06,0,0,1-4.47-1.66,6,6,0,0,1-1.67-4.45,6.08,6.08,0,0,1,1.66-4.36,5.74,5.74,0,0,1,4.36-1.74,6.44,6.44,0,0,1,2.73.55,4.69,4.69,0,0,1,1.84,1.42l-1,1a4.81,4.81,0,0,0-3.54-1.46,4.23,4.23,0,0,0-3.25,1.27,4.71,4.71,0,0,0-1.19,3.35A4.37,4.37,0,0,0,107,35.54a4.66,4.66,0,0,0,3.64-1.6Z"/><path class="cls-2" d="M122.34,26.41h-7V36.86h-1.55V25h10.11v11.9h-1.55Z"/><path class="cls-2" d="M127.09,25h8.57v1.44h-7v3.71h6.54v1.41h-6.54v3.89h7.17v1.44h-8.72Z"/><path class="cls-2" d="M147.72,36.86h-1.55V31.8a5.59,5.59,0,0,1-1.51.59,7.46,7.46,0,0,1-1.9.26,5.43,5.43,0,0,1-3.35-1,3.44,3.44,0,0,1-1.29-2.94V25h1.55v3q0,3.21,3.37,3.21a6.31,6.31,0,0,0,3.14-.9V25h1.55Z"/><path class="cls-2" d="M154.9,24.93h1.22l5.22,11.93h-1.62l-1.33-3h-5.83l-1.31,3h-1.58Zm-1.75,7.56h4.67l-2.35-5.41Z"/><path class="cls-2" d="M160.42,25h9.83v1.44H166.1V36.86h-1.55V26.41h-4.13Z"/><path class="cls-2" d="M174.53,24.93h1.22L181,36.86h-1.62l-1.33-3H172.2l-1.31,3h-1.58Zm-1.75,7.56h4.67l-2.35-5.41Z"/><path class="cls-2" d="M180.06,25h9.83v1.44h-4.15V36.86h-1.55V26.41h-4.13Z"/><path class="cls-2" d="M193.4,29.38h3.11a5.75,5.75,0,0,1,3.59.94A3.22,3.22,0,0,1,201.31,33,3.38,3.38,0,0,1,200,35.88a5.92,5.92,0,0,1-3.65,1h-4.5V25h1.55Zm0,1.44v4.59h3q3.28,0,3.28-2.4,0-2.19-3.23-2.19Z"/><polyline class="cls-3" points="236.5 41.95 236.5 60.5 0.5 60.5 0.5 41.5"/><polyline class="cls-3" points="0.5 19.05 0.5 0.5 236.5 0.5 236.5 19.5"/></svg>