<svg id="Слой_1" data-name="Слой 1" xmlns="http://www.w3.org/2000/svg" viewBox="0 0 506 414"><defs><style>.cls-1{fill:#fff;}.cls-2{fill:#013aa2;}</style></defs><title>Монтажная область 37</title><path class="cls-1" d="M505.12,302.21a1.32,1.32,0,0,0-1.11-.61H492.87v-3.4a9.88,9.88,0,0,0,1-6.21,8.3,8.3,0,0,0,3.71,1.36h0a2.08,2.08,0,0,0,2.17-1.7c.37-1.84-.57-3.58-1.76-5.78a43.64,43.64,0,0,1-2.45-5.11,10.08,10.08,0,0,0-2.68-4.17V254.49l2.56-4a1.32,1.32,0,0,0-1.11-2h-2c-1.25-2.16-3.51-6.76-3.35-9.86a10.85,10.85,0,0,1,1.56-4.6c.67-1.26,1.25-2.34.88-3.48a2.52,2.52,0,0,0-1.37-1.48,1.32,1.32,0,0,0-1.72.51,1.12,1.12,0,0,1-1.07.67,6.61,6.61,0,0,1-2.75-1l-.57-6.91,2-2.59a1.32,1.32,0,0,0-.71-2.08l-3.55-.92a1.33,1.33,0,0,0-.67,0l-3.55.92a1.32,1.32,0,0,0-.52,2.29l1.9,1.6a1.35,1.35,0,0,0-.06.28l-.33,4-.14-.06a6.65,6.65,0,0,0-4.44-1.67c-6.38,0-13.68,8.85-14.88,14.4a1.32,1.32,0,0,0,2.25,1.19,16.77,16.77,0,0,1,5.33-3.15c-.49.71-1,1.47-1.55,2.27-.41.61-.8,1.19-1.14,1.69-3.89.46-5.33,4.72-5.63,8H412.59v-3.29a1.32,1.32,0,0,0-1.32-1.32h-4.22v-39.4l3.06-6.67a1.32,1.32,0,0,1-1.13.65h0a1.32,1.32,0,0,0,1.14-.65,1.3,1.3,0,0,0,.19-.67,1.32,1.32,0,0,0-.28-.82L406.87,191a1.32,1.32,0,0,0-1.14-.65H402v-6.69a1.32,1.32,0,0,0-1.32-1.32h-4.07c-1.76-7.63-8.59-10.65-11.21-11.53v-5.88a1.33,1.33,0,0,0-.16-.64l-1.11-2a3.74,3.74,0,0,0-.46-6.79v-8a1.32,1.32,0,1,0-2.64,0v8a3.74,3.74,0,0,0-.86,6.54l-1.25,2.28a1.32,1.32,0,0,0-.16.64v5.88c-2.62.89-9.45,3.9-11.21,11.53h-3.66a1.32,1.32,0,0,0-1.32,1.32v6.69h-4.17a1.32,1.32,0,0,0-1.14.65L354,196.46l0,.11-.08.18,0,.14,0,.19v.15l0,.18,0,.15,0,.12,3.23,7.05a1.32,1.32,0,0,0,1.2.77h1.75v38.37h-3.29a1.32,1.32,0,0,0-1.32,1.32v1H333.41v-20h4.33a1.32,1.32,0,0,0,1.32-1.32v-6a1.32,1.32,0,0,0-1.32-1.32H321.39l-.71-47.94a5.5,5.5,0,0,0,1.24-3.51,8.84,8.84,0,0,0-.08-1.22,6.06,6.06,0,0,0,1.1-3.69,2.64,2.64,0,0,0-2.16-2.59v-4.47l2.7-5.25a1.33,1.33,0,0,0,.15-.6v-4.15a1.32,1.32,0,0,0-1.32-1.32h-1.63a1.33,1.33,0,0,0,.11-.52v-6.92a1.32,1.32,0,0,0-1.09-1.3c-1.9-15.45-4.14-15.45-5.11-15.45a2,2,0,0,0-1.7,1,2.87,2.87,0,0,1-.83.63c-1.56,1-2.79,2.26-1.15,5.35,1.11,2.1.59,6.18.12,8.44h-2.77v-23.2a79.11,79.11,0,0,0-6.29-25.39c-7.49-16.81-20.24-25.7-36.87-25.7h-.94v-17l1.11-6.35v-.29h0c0-10.7-5-13.9-8.51-14.82a4.77,4.77,0,0,0-2.43-7.55V1.9a1.32,1.32,0,0,0-2.64,0v11.9a4.77,4.77,0,0,0-2.43,7.55c-3.53.92-8.49,4.11-8.51,14.82h0v.29l1.11,6.35v17h-.94c-16.64,0-29.39,8.89-36.87,25.7a79.1,79.1,0,0,0-6.29,25.39v23.2h-2.88c-1.9-15.42-4.14-15.43-5.11-15.43a2,2,0,0,0-1.7,1,2.86,2.86,0,0,1-.83.63c-1.56,1-2.78,2.26-1.15,5.35,1.12,2.12.58,6.25.11,8.5a1.32,1.32,0,0,0-1,1.27v6.92a1.33,1.33,0,0,0,.11.52H183.7a1.32,1.32,0,0,0-1.32,1.32v4.15a1.33,1.33,0,0,0,.15.6l2.7,5.25v4.47a2.64,2.64,0,0,0-2.16,2.59,6.05,6.05,0,0,0,1.1,3.69,8.69,8.69,0,0,0-.08,1.22,5.5,5.5,0,0,0,1.24,3.51l-.71,47.94H168.26a1.32,1.32,0,0,0-1.32,1.32v6a1.32,1.32,0,0,0,1.32,1.32h4.33v20H150.5v-1a1.32,1.32,0,0,0-1.32-1.32H145.9V205.5h1.75a1.32,1.32,0,0,0,1.2-.77L152,197.8a1.32,1.32,0,0,1-1.13.65h0a1.32,1.32,0,0,0,1-2.14L148.78,191a1.32,1.32,0,0,0-1.14-.65h-4.17v-6.69a1.32,1.32,0,0,0-1.32-1.32h-3.66c-1.76-7.63-8.59-10.65-11.21-11.53v-5.88a1.33,1.33,0,0,0-.16-.64L125.87,162a3.74,3.74,0,0,0-.86-6.54v-8a1.32,1.32,0,1,0-2.64,0v8a3.74,3.74,0,0,0-.46,6.79l-1.11,2a1.32,1.32,0,0,0-.16.64v5.88c-2.62.89-9.45,3.9-11.21,11.53h-4.06a1.32,1.32,0,0,0-1.32,1.32v6.69h-3.77a1.32,1.32,0,0,0-1.14.65l-3.23,5.47,0,.11-.08.18,0,.14,0,.19v.15l0,.18,0,.15,0,.12,3.11,6.79v39.4H94.73a1.32,1.32,0,0,0-1.32,1.32v3.29H47.77c-.31-3.26-1.74-7.52-5.64-8-.34-.5-.73-1.07-1.14-1.68-.54-.81-1.06-1.57-1.55-2.28a16.79,16.79,0,0,1,5.33,3.15,1.32,1.32,0,0,0,1,.41h0a1.32,1.32,0,0,0,1.32-1.32,1.34,1.34,0,0,0-.09-.48c-1.33-5.56-8.53-14.2-14.83-14.2a6.65,6.65,0,0,0-4.44,1.67l-.14.06-.33-4a1.35,1.35,0,0,0-.05-.28l1.9-1.6a1.32,1.32,0,0,0-.52-2.29L25,216.74a1.33,1.33,0,0,0-.67,0l-3.55.92a1.32,1.32,0,0,0-.71,2.08l2,2.59-.57,6.91a6.61,6.61,0,0,1-2.75,1,1.12,1.12,0,0,1-1.07-.67,1.32,1.32,0,0,0-1.72-.51,2.52,2.52,0,0,0-1.37,1.48c-.37,1.13.21,2.22.88,3.48a10.85,10.85,0,0,1,1.56,4.6c.17,3.38-2.38,8.17-3.36,9.86h-2a1.32,1.32,0,0,0-1.11,2l2.56,4v22.09a10.08,10.08,0,0,0-2.68,4.17A43.64,43.64,0,0,1,8,285.86c-1.19,2.2-2.13,3.94-1.76,5.78a2.08,2.08,0,0,0,2.17,1.7A8.3,8.3,0,0,0,12.11,292a9.89,9.89,0,0,0,1,6.21v3.4H2a1.32,1.32,0,0,0-1.2,1.87l5.08,11.07.05.1,3.51,6.2v6.44a6.08,6.08,0,0,0,2.53,5.3,8.16,8.16,0,0,0-.46,2.89,5.5,5.5,0,0,0,1.63,3.92V412.1a1.32,1.32,0,0,0,1.32,1.32h477.1a1.32,1.32,0,0,0,1.32-1.32V339.4h0a5.5,5.5,0,0,0,1.63-3.92,8.13,8.13,0,0,0-.46-2.89,6.08,6.08,0,0,0,2.53-5.3v-6.44l3.51-6.2.05-.1,5.08-11.07A1.33,1.33,0,0,0,505.12,302.21Z"/><path class="cls-2" d="M261.48,412.08l0-1.3h-17l0,1.11a1.32,1.32,0,0,1-1.3,1.54h19.6a1.32,1.32,0,0,1-1.32-1.35Z"/><path class="cls-2" d="M348.68,412.08l0-1.3H333.66l0,1.3a1.32,1.32,0,0,1-1.32,1.35H350a1.32,1.32,0,0,1-1.32-1.35Z"/><path class="cls-2" d="M172.32,412.08l0-1.3H157.29l0,1.11a1.32,1.32,0,0,1-1.3,1.54h17.63a1.32,1.32,0,0,1-1.32-1.35Z"/><path class="cls-2" d="M290.55,412.08l0-1.3H275.52l0,1.3a1.32,1.32,0,0,1-1.32,1.35h17.65a1.32,1.32,0,0,1-1.32-1.35Z"/><path class="cls-2" d="M230.45,412.08l0-1.3H215.43l0,1.11a1.32,1.32,0,0,1-1.3,1.54h17.63a1.32,1.32,0,0,1-1.32-1.35Z"/><path class="cls-2" d="M319.62,412.08l0-1.3H304.59l0,1.3a1.32,1.32,0,0,1-1.32,1.35h17.65a1.32,1.32,0,0,1-1.32-1.35Z"/><path class="cls-2" d="M201.39,412.08l0-1.3H186.36l0,1.11a1.32,1.32,0,0,1-1.3,1.54h17.63a1.32,1.32,0,0,1-1.32-1.35Z"/><path class="cls-2" d="M101.59,243.87V205.5h-1.32a1.32,1.32,0,0,1-1.2-.77l-.12-.26v39.4Z"/><rect class="cls-2" x="143.25" y="205.5" width="2.64" height="38.37"/><path class="cls-2" d="M143.25,412.08l0-1.3H96.06v1.32a1.32,1.32,0,0,1-1.32,1.32h49.84a1.32,1.32,0,0,1-1.32-1.35Z"/><path class="cls-2" d="M110.68,210.59a1.31,1.31,0,0,1-.5.1h-1.29l.69,33.18h2.64l-.7-33.79A3.61,3.61,0,0,1,110.68,210.59Z"/><path class="cls-2" d="M106.08,210.69a1.32,1.32,0,0,1-.5-.1,3.64,3.64,0,0,1-.83-.51L104,243.87h2.64l.69-33.18Z"/><path class="cls-2" d="M103.59,206.75a4.52,4.52,0,0,0-.09.92,3.06,3.06,0,0,0,1.24,2.41,3.64,3.64,0,0,0,.83.51,1.32,1.32,0,0,0,.5.1h4.09a1.31,1.31,0,0,0,.5-.1,3.61,3.61,0,0,0,.83-.51,3.06,3.06,0,0,0,1.24-2.41,4.52,4.52,0,0,0-.09-.92,3.13,3.13,0,0,0,.87-1.25H109.8a1.32,1.32,0,0,0,.25,1.68,1.47,1.47,0,0,1,.06.48c0,.15-.15.28-.28.37h-3.4c-.13-.09-.28-.23-.28-.37a1.47,1.47,0,0,1,.06-.48,1.32,1.32,0,0,0,.25-1.68h-3.74A3.13,3.13,0,0,0,103.59,206.75Z"/><path class="cls-2" d="M140.36,210.59a1.31,1.31,0,0,1-.5.1h-1.29l.69,33.18h2.64l-.7-33.79A3.61,3.61,0,0,1,140.36,210.59Z"/><path class="cls-2" d="M135.77,210.69a1.32,1.32,0,0,1-.5-.1,3.64,3.64,0,0,1-.83-.51l-.71,33.79h2.64l.69-33.18Z"/><path class="cls-2" d="M139.48,205.5a1.32,1.32,0,0,0,.25,1.68,1.47,1.47,0,0,1,.06.48c0,.15-.15.28-.28.37h-3.4c-.13-.09-.28-.23-.28-.37a1.47,1.47,0,0,1,.06-.48,1.32,1.32,0,0,0,.25-1.68h-3.74a3.13,3.13,0,0,0,.87,1.25,4.53,4.53,0,0,0-.09.92,3.06,3.06,0,0,0,1.24,2.41,3.64,3.64,0,0,0,.83.51,1.32,1.32,0,0,0,.5.1h4.09a1.31,1.31,0,0,0,.5-.1,3.61,3.61,0,0,0,.83-.51,3.06,3.06,0,0,0,1.24-2.41,4.52,4.52,0,0,0-.09-.92,3.13,3.13,0,0,0,.87-1.25h-3.74Z"/><path class="cls-2" d="M14.45,257.07h1.32v-1.65H14.45a1.32,1.32,0,0,1-1.11-.61l-.21-.33v3.9A1.32,1.32,0,0,1,14.45,257.07Z"/><path class="cls-2" d="M41.62,412.1v-1.32H26v1.32a1.32,1.32,0,0,1-1.32,1.32H42.94A1.32,1.32,0,0,1,41.62,412.1Z"/><path class="cls-2" d="M13.13,339.4v.06s0,0,0-.06Z"/><path class="cls-2" d="M71.3,412.1v-1.32H49.85v1.32a1.32,1.32,0,0,1-1.32,1.32h24.1A1.32,1.32,0,0,1,71.3,412.1Z"/><path class="cls-2" d="M14.45,272.16h1.32v-3H14.45a1.32,1.32,0,0,1-1.32-1.32v5.63A1.32,1.32,0,0,1,14.45,272.16Z"/><path class="cls-2" d="M14.45,266.53h1.32v-6.82H88.46l-.29-.92a1.32,1.32,0,0,1,1.26-1.72h-75a1.32,1.32,0,0,0-1.32,1.32v9.46A1.32,1.32,0,0,1,14.45,266.53Z"/><path class="cls-2" d="M96.06,412.1v-91a1.32,1.32,0,0,1-1.3,1.11H93.41v88.54H79.53v1.32a1.32,1.32,0,0,1-1.32,1.32H94.73A1.32,1.32,0,0,0,96.06,412.1Z"/><path class="cls-2" d="M15.77,275.34v-.54H14.45a1.32,1.32,0,0,1-1.32-1.32v3.1A5.62,5.62,0,0,1,15.77,275.34Z"/><path class="cls-2" d="M10.74,319.6h1l-3.51-6.2L6,308.4H3.89a1.32,1.32,0,1,1,0-2.64h.85L4,304.24h10.4a1.32,1.32,0,0,1-1.32-1.32V301.6H2a1.32,1.32,0,0,0-1.2,1.87l5.08,11.07.05.1,3.51,6.2A1.32,1.32,0,0,1,10.74,319.6Z"/><path class="cls-2" d="M96.08,317.16H94.73a1.32,1.32,0,0,1-.92-.37l-.38-.37v3.17h-65a1.32,1.32,0,0,1,1.32,1.32v1.32h65a1.35,1.35,0,0,0,1.32-1.32Z"/><path class="cls-2" d="M82.77,301.6H26v1.32a1.32,1.32,0,0,1-1.32,1.32H84Z"/><path class="cls-2" d="M85.89,308.4l-1.21-2.64H3.89a1.32,1.32,0,1,0,0,2.64h82Z"/><path class="cls-2" d="M140,315.84v-1.32H95.27l-6.59-6.38-2.21-4.82H84.41a1.32,1.32,0,0,1,0-2.64h.85l-.69-1.51H94.73a1.32,1.32,0,0,1-1.32-1.32v-1.32H82.51a1.32,1.32,0,0,0-1.2,1.87l1.47,3.2L84,304.24l.69,1.51,1.21,2.64.49,1.07a1.33,1.33,0,0,0,.28.4l6.77,6.55.38.37a1.32,1.32,0,0,0,.92.37h45.52c0-.23-.06-.46-.08-.71A1.3,1.3,0,0,1,140,315.84Z"/><path class="cls-2" d="M137.25,303.32v-2.64H84.41a1.32,1.32,0,0,0,0,2.64h52.84Z"/><path class="cls-2" d="M94.71,272.16a1.32,1.32,0,0,1,0,2.64h-1.3v23a1.32,1.32,0,0,0,1.32,1.32h42.51v-.81l-1.68-1.84H96.06V269.18H93.41v3Z"/><path class="cls-2" d="M147.86,269.18v-2.64H95.38L92,262.16l-.77-2.44h7a1.32,1.32,0,0,1-1.32-1.32v-1.32H89.43a1.32,1.32,0,0,0-1.26,1.72l.29.92,1.09,3.46a1.33,1.33,0,0,0,.21.41L92,266.53h2.69a1.32,1.32,0,0,1,0,2.64h53.13Z"/><path class="cls-2" d="M96.87,258.4a1.32,1.32,0,0,0,1.32,1.32h49.67v-2.64H99.52v-3a1.32,1.32,0,0,1-1.32,1.32H96.87v3Z"/><path class="cls-2" d="M143.25,243.87H131.92v1.32a1.32,1.32,0,0,1-1.32,1.32h17.27v1a1.32,1.32,0,0,1,1.32-1.32h1.32v-1a1.32,1.32,0,0,0-1.32-1.32h-5.93Z"/><path class="cls-2" d="M106.66,251.13h41.2v-2.64H98.19a1.32,1.32,0,0,1,1.32,1.32v1.32Z"/><path class="cls-2" d="M96.06,248.48v-2h19.29a1.32,1.32,0,0,1-1.32-1.32v-1.32H94.73a1.32,1.32,0,0,0-1.32,1.32v3.29Z"/><path class="cls-2" d="M131.92,245.19V216.3a8.95,8.95,0,0,0-17.89,0v28.89a1.32,1.32,0,0,0,1.32,1.32h15.25A1.32,1.32,0,0,0,131.92,245.19ZM116.67,216.3a6.3,6.3,0,1,1,12.61,0v27.57H116.67Z"/><path class="cls-2" d="M95.76,197.41a1.38,1.38,0,0,1,0-.18A1.38,1.38,0,0,0,95.76,197.41Z"/><path class="cls-2" d="M95.78,196.75a1.3,1.3,0,0,1,.08-.18A1.3,1.3,0,0,0,95.78,196.75Z"/><path class="cls-2" d="M95.73,197.08a1.33,1.33,0,0,1,0-.18A1.33,1.33,0,0,0,95.73,197.08Z"/><path class="cls-2" d="M100.27,205.5h5.52a1.32,1.32,0,0,1-1.32-1.32v-1.32h-3.35l-2-4.41H97a1.32,1.32,0,0,1-1.15-.67,1.37,1.37,0,0,1-.09-.23,1.26,1.26,0,0,0,0,.12l3.11,6.79.12.26A1.32,1.32,0,0,0,100.27,205.5Z"/><path class="cls-2" d="M97,198.45h7.43v-1.32s0,0,0,0,0-.05,0-.08a1.32,1.32,0,0,1,.07-.33v0a1.29,1.29,0,0,1,.19-.32l0-.06a1.35,1.35,0,0,1,.28-.24h0l.32-.19H99.36L101,193h4.34a1.32,1.32,0,0,1-1.32-1.32v-1.32h-3.77a1.32,1.32,0,0,0-1.14.65l-3.23,5.47s0,.07,0,.11a1.3,1.3,0,0,0-.08.18,1.35,1.35,0,0,0,0,.15,1.33,1.33,0,0,0,0,.18,1.24,1.24,0,0,0,0,.15,1.38,1.38,0,0,0,0,.18c0,.05,0,.1,0,.15a1.37,1.37,0,0,0,.09.23A1.32,1.32,0,0,0,97,198.45Z"/><path class="cls-2" d="M150.89,198.45h-2.07l-2,4.41h-3.35v1.32a1.32,1.32,0,0,1-1.32,1.32h5.52a1.32,1.32,0,0,0,1.2-.77L152,197.8A1.31,1.31,0,0,1,150.89,198.45Z"/><path class="cls-2" d="M138.42,184.51a1.32,1.32,0,0,1-1,.46h3.41v5.37h2.64v-6.69a1.32,1.32,0,0,0-1.32-1.32h-3.66c.08.37.17.73.23,1.12A1.32,1.32,0,0,1,138.42,184.51Z"/><path class="cls-2" d="M105.36,193h4.7l4.34-2.64h-7.72V185h3.82a1.32,1.32,0,0,1-1.31-1.52c.06-.39.15-.75.23-1.12h-4.06a1.32,1.32,0,0,0-1.32,1.32v8A1.32,1.32,0,0,0,105.36,193Z"/><path class="cls-2" d="M140.83,190.34h-7.72l4.34,2.64h9.44l1.67,2.83h-6.44a1.32,1.32,0,0,1,1.32,1.32v1.32h7.44a1.32,1.32,0,0,0,1-2.14L148.78,191a1.32,1.32,0,0,0-1.14-.65h-6.82Z"/><path class="cls-2" d="M110.5,195.81l13.26-8.08L137,195.81h5.08L137.45,193l-4.34-2.64-8.67-5.28a1.32,1.32,0,0,0-.2-.09h-1a1.32,1.32,0,0,0-.2.09l-8.67,5.28L110.06,193l-4.64,2.83-.32.19h0a1.31,1.31,0,0,1,.7-.21Z"/><path class="cls-2" d="M104.56,196.68v0Z"/><path class="cls-2" d="M104.76,196.32l0-.06Z"/><path class="cls-2" d="M104.48,197.09s0-.05,0-.08S104.48,197.06,104.48,197.09Z"/><path class="cls-2" d="M109.8,205.5h32.33a1.32,1.32,0,0,0,1.32-1.32v-7a1.32,1.32,0,0,0-1.32-1.32H105.79a1.31,1.31,0,0,0-.7.21,1.35,1.35,0,0,0-.28.24l0,.06a1.29,1.29,0,0,0-.19.32v0a1.32,1.32,0,0,0-.07.33s0,.05,0,.08,0,0,0,0v7a1.32,1.32,0,0,0,1.32,1.32h4Zm-2.68-7H140.8v4.41H107.11Z"/><path class="cls-2" d="M109.5,184.51a1.32,1.32,0,0,0,1,.46h26.92a1.32,1.32,0,0,0,1.31-1.52c-.06-.39-.15-.75-.23-1.12-1.76-7.63-8.59-10.65-11.21-11.53v-5.88a1.32,1.32,0,0,0-.16-.64L125.87,162a3.73,3.73,0,0,1-4,.26l-1.11,2a1.33,1.33,0,0,0-.16.64v5.88c-2.62.89-9.45,3.9-11.21,11.53-.08.37-.17.73-.23,1.12A1.32,1.32,0,0,0,109.5,184.51Zm13.78-19.25L124,164l.68,1.24v6.52a1.32,1.32,0,0,0,1,1.28c.09,0,8,2,10.13,9.27H112.14c2-7.2,9.78-9.18,10.13-9.27a1.32,1.32,0,0,0,1-1.28Z"/><path class="cls-2" d="M123.69,162.7a3.74,3.74,0,0,0,1.32-7.24v1.08a1.32,1.32,0,0,1-1.32,1.32,1.1,1.1,0,1,1-1.1,1.1,1.1,1.1,0,0,1,1.1-1.1,1.32,1.32,0,0,1-1.32-1.32v-1.08a3.74,3.74,0,0,0,1.32,7.24Z"/><path class="cls-2" d="M123.69,157.86a1.32,1.32,0,0,0,1.32-1.32v-9.11a1.32,1.32,0,1,0-2.64,0v9.11A1.32,1.32,0,0,0,123.69,157.86Z"/><path class="cls-2" d="M14.45,255.42H98.19a1.32,1.32,0,0,0,1.32-1.32v-4.3a1.32,1.32,0,0,0-1.32-1.32H47.77c0,.46.06.91.07,1.31a1.32,1.32,0,0,1-1.32,1.33H96.87v1.65H15.17l-1.06-1.65h.34a1.32,1.32,0,0,1-1.12-2s.15-.24.37-.62h-2a1.32,1.32,0,0,0-1.11,2l2.56,4,.21.33A1.32,1.32,0,0,0,14.45,255.42Z"/><path class="cls-2" d="M27.64,335.48a8.14,8.14,0,0,0-.46-2.89,6.08,6.08,0,0,0,2.53-5.3,1.32,1.32,0,0,1-1.32,1.32H26.91a2.78,2.78,0,0,1-1.9,2.11,1.37,1.37,0,0,0-1.15,1.1,1.18,1.18,0,0,0,.63,1.27,4.06,4.06,0,0,1,.51,2.39,3.22,3.22,0,0,1-1.59,2.66h1.28A1.32,1.32,0,0,1,26,339.4,5.5,5.5,0,0,0,27.64,335.48Z"/><path class="cls-2" d="M14.45,338.14h1.28a3.2,3.2,0,0,1-1.59-2.66,4.06,4.06,0,0,1,.51-2.39,1.18,1.18,0,0,0,.63-1.27,1.37,1.37,0,0,0-1.15-1.1,2.78,2.78,0,0,1-1.9-2.11H10.74a1.32,1.32,0,0,1-1.32-1.32,6.08,6.08,0,0,0,2.53,5.3,8.14,8.14,0,0,0-.46,2.89,5.5,5.5,0,0,0,1.63,3.92h0A1.32,1.32,0,0,1,14.45,338.14Z"/><path class="cls-2" d="M10.74,328.61H28.39a1.32,1.32,0,0,0,1.32-1.32v-6.37a1.32,1.32,0,0,0-1.32-1.32H10.74a1.32,1.32,0,0,0-1.31,1.25s0,0,0,.07v6.37A1.32,1.32,0,0,0,10.74,328.61ZM27.07,326h-15v-3.73h15Z"/><path class="cls-2" d="M26,412.1V339.46s0,0,0-.06a1.32,1.32,0,0,0-1.32-1.27H14.45a1.32,1.32,0,0,0-1.32,1.27s0,0,0,.06V412.1a1.32,1.32,0,0,0,1.32,1.32H24.69A1.32,1.32,0,0,0,26,412.1Zm-10.24-1.32v-70h7.6v70Z"/><path class="cls-2" d="M51.63,360.83V398h2.64V360.83a6.3,6.3,0,1,1,12.61,0V398h2.64V360.83a8.93,8.93,0,0,0-5.21-8.12H56.85A9,9,0,0,0,51.63,360.83Z"/><path class="cls-2" d="M49.85,392.18l-.73-34.89a3.64,3.64,0,0,1-.83.51,1.32,1.32,0,0,1-.5.1H46.49l.69,33.18h1.35a1.32,1.32,0,0,1,1.32,1.32v.14a1.36,1.36,0,0,0,0-.14A1.31,1.31,0,0,0,49.85,392.18Z"/><path class="cls-2" d="M43.69,357.89a1.31,1.31,0,0,1-.5-.1,3.63,3.63,0,0,1-.84-.51l-.73,35.08v0a1.32,1.32,0,0,1,1.32-1.31h1.35L45,357.89Z"/><path class="cls-2" d="M43.69,357.89h4.09a1.32,1.32,0,0,0,.5-.1,3.64,3.64,0,0,0,.83-.51,3.06,3.06,0,0,0,1.24-2.41,4.51,4.51,0,0,0-.09-.92,3.13,3.13,0,0,0,.87-1.25H47.4a1.32,1.32,0,0,0,.25,1.68,1.44,1.44,0,0,1,.06.48c0,.15-.15.28-.28.37H44c-.13-.09-.28-.23-.28-.37a1.44,1.44,0,0,1,.06-.48,1.32,1.32,0,0,0,.25-1.68H41.42a1.32,1.32,0,0,1-1.32-1.32A3.27,3.27,0,0,0,41.2,354a4.51,4.51,0,0,0-.09.92,3.05,3.05,0,0,0,1.24,2.41,3.63,3.63,0,0,0,.84.51A1.31,1.31,0,0,0,43.69,357.89Z"/><path class="cls-2" d="M79.53,392.18l-.73-34.89a3.64,3.64,0,0,1-.83.51,1.32,1.32,0,0,1-.5.1H76.17l.69,33.18h1.35a1.32,1.32,0,0,1,1.32,1.32v.14a1.34,1.34,0,0,0,0-.14A1.31,1.31,0,0,0,79.53,392.18Z"/><path class="cls-2" d="M73.37,357.89a1.31,1.31,0,0,1-.5-.1,3.63,3.63,0,0,1-.84-.51l-.73,35.08v0a1.32,1.32,0,0,1,1.32-1.31H74l.69-33.18Z"/><path class="cls-2" d="M79.73,352.71H77.09a1.32,1.32,0,0,0,.25,1.68,1.44,1.44,0,0,1,.06.48c0,.15-.15.28-.28.37h-3.4c-.13-.09-.28-.23-.28-.37a1.44,1.44,0,0,1,.06-.48,1.32,1.32,0,0,0,.25-1.68H70a3.13,3.13,0,0,0,.87,1.25,4.52,4.52,0,0,0-.09.92A3.05,3.05,0,0,0,72,357.29a3.63,3.63,0,0,0,.84.51,1.31,1.31,0,0,0,.5.1h4.09a1.32,1.32,0,0,0,.5-.1,3.64,3.64,0,0,0,.83-.51A3.06,3.06,0,0,0,80,354.87,4.51,4.51,0,0,0,80,354a3.27,3.27,0,0,0,1.1-2.57A1.32,1.32,0,0,1,79.73,352.71Z"/><path class="cls-2" d="M41.42,352.71H79.73a1.32,1.32,0,0,0,1.32-1.32v-5.8l-.27.35a1.32,1.32,0,0,1-1.05.52H78.41v3.6H42.74v-3.6H41.42a1.32,1.32,0,0,1-1.05-.52l-.27-.35v5.8A1.32,1.32,0,0,0,41.42,352.71Z"/><path class="cls-2" d="M49.85,412.1v-5.66H48.53a1.32,1.32,0,0,1-1.32-1.32v5.66H44.27V393.72h2.94v5.64A1.32,1.32,0,0,1,48.53,398h1.32V392.4a1.32,1.32,0,0,0-1.32-1.32H42.94a1.32,1.32,0,0,0-1.32,1.31h0V412.1a1.32,1.32,0,0,0,1.32,1.32h5.59A1.32,1.32,0,0,0,49.85,412.1Z"/><path class="cls-2" d="M79.53,412.1V392.4a1.32,1.32,0,0,0-1.32-1.32H72.63a1.32,1.32,0,0,0-1.32,1.31h0V398h1.32a1.32,1.32,0,0,1,1.32,1.32v-5.64h2.94v17.07H73.95v-5.66a1.32,1.32,0,0,1-1.32,1.32H71.3v5.66a1.32,1.32,0,0,0,1.32,1.32h5.59A1.32,1.32,0,0,0,79.53,412.1Z"/><path class="cls-2" d="M66.88,398H48.53a1.32,1.32,0,0,0-1.32,1.32v5.77a1.32,1.32,0,0,0,1.32,1.32h24.1a1.32,1.32,0,0,0,1.32-1.32v-5.77A1.32,1.32,0,0,0,72.63,398H66.88Zm4.42,5.77H49.85v-3.12H71.3Z"/><path class="cls-2" d="M41.42,346.46H79.73a1.32,1.32,0,0,0,1.05-.52l.27-.35,2-2.64a1.33,1.33,0,0,0-.32-1.9,14.59,14.59,0,0,1-3.45-3.57,4.76,4.76,0,0,0-4.05-2.12,4.84,4.84,0,0,0-3.11,1,14.56,14.56,0,0,1-1.78-.95,8.48,8.48,0,0,0-3.78-1.53,2.82,2.82,0,0,1-1.34-.54,8.82,8.82,0,0,0-9.32,0,2.82,2.82,0,0,1-1.35.54,8.49,8.49,0,0,0-3.78,1.53,14.56,14.56,0,0,1-1.78.95,4.84,4.84,0,0,0-3.11-1,4.76,4.76,0,0,0-4.05,2.12A14.61,14.61,0,0,1,38.4,341a1.32,1.32,0,0,0-.32,1.9l2,2.64.27.35A1.32,1.32,0,0,0,41.42,346.46ZM45.9,338a2.51,2.51,0,0,1,1.27.32A1.32,1.32,0,0,0,48,339a2.35,2.35,0,0,0,.74.12,7.53,7.53,0,0,0,3.44-1.4,8,8,0,0,1,2.48-1.16,5.17,5.17,0,0,0,2.63-.9,6.19,6.19,0,0,1,6.66,0,5.17,5.17,0,0,0,2.63.9A8,8,0,0,1,69,337.73a7.53,7.53,0,0,0,3.44,1.4,2.34,2.34,0,0,0,.74-.12,1.32,1.32,0,0,0,.78-.69,2.51,2.51,0,0,1,1.27-.32,2.13,2.13,0,0,1,1.86,1,17.7,17.7,0,0,0,3.06,3.41l-1.1,1.44h-37L41,342.38A17.7,17.7,0,0,0,44,339,2.13,2.13,0,0,1,45.9,338Z"/><path class="cls-2" d="M60.58,343.79a4.33,4.33,0,1,0-4.33-4.33A4.34,4.34,0,0,0,60.58,343.79Zm0-6a1.69,1.69,0,1,1-1.69,1.69A1.69,1.69,0,0,1,60.58,337.77Z"/><path class="cls-2" d="M14.45,304.24H24.69A1.32,1.32,0,0,0,26,302.92v-5.08a1.32,1.32,0,0,0-1.32-1.32h-1c-.52,1.1-.93,1.87-1,1.95a1.32,1.32,0,0,1-1.17.7h1.77v2.43h-7.6v-2.43H14.45a1.32,1.32,0,0,1-1.09-.57c-.09-.13-.15-.26-.23-.39v4.72A1.32,1.32,0,0,0,14.45,304.24Z"/><path class="cls-2" d="M13.29,250.45a1.32,1.32,0,0,0,1.16.68h6.69a1.32,1.32,0,0,1-1.32-1.43l.1-1.21H16.71c1.28-2.44,3.15-6.63,3-10a13.23,13.23,0,0,0-1.86-5.71h0a4,4,0,0,0,.95.11,6.64,6.64,0,0,0,2.49-.58l.25-3.06a6.6,6.6,0,0,1-2.75,1,1.12,1.12,0,0,1-1.07-.67,1.32,1.32,0,0,0-1.72-.51,2.51,2.51,0,0,0-1.37,1.48c-.37,1.14.21,2.22.88,3.48a10.85,10.85,0,0,1,1.56,4.6c.17,3.38-2.39,8.17-3.36,9.86-.22.38-.36.61-.37.62A1.32,1.32,0,0,0,13.29,250.45Z"/><path class="cls-2" d="M27.81,228.61a7.74,7.74,0,0,1,1-.42,1.32,1.32,0,0,0,.49-.28,4.07,4.07,0,0,1,2.86-1.16c3.63,0,8.13,4.33,10.6,8.4-1.48-.75-3.07-1.38-4.48-1.94-1-.39-1.91-.76-2.62-1.1a2.8,2.8,0,0,0-.76-.36,1.32,1.32,0,0,0-1,2.43l.42.21c1.11.84,3.14,3.87,4.5,5.9.58.86,1.11,1.65,1.55,2.26a1.32,1.32,0,0,0,1.07.55c2.64,0,3.43,3.42,3.67,5.38H29.45l.1,1.21a1.32,1.32,0,0,1-1.32,1.43H46.52a1.32,1.32,0,0,0,1.32-1.33c0-.41,0-.85-.07-1.31-.31-3.26-1.74-7.52-5.64-8-.34-.5-.73-1.07-1.14-1.68-.54-.81-1.06-1.57-1.55-2.28a16.78,16.78,0,0,1,5.33,3.15,1.32,1.32,0,0,0,1,.41h0a1.32,1.32,0,0,0,1.23-1.8c-1.33-5.56-8.53-14.2-14.83-14.2a6.65,6.65,0,0,0-4.44,1.67l-.14.06Z"/><path class="cls-2" d="M21.26,232.31l-1.34,16.18-.1,1.21a1.32,1.32,0,0,0,1.32,1.43h7.09a1.32,1.32,0,0,0,1.32-1.43l-.1-1.21-1.65-19.87-.23-2.78-.33-4a1.33,1.33,0,0,0-.06-.28L25.54,223a1.32,1.32,0,0,1-.85.31h0l2.09,25.22H22.57l2.09-25.22H23.45a1.32,1.32,0,0,1-1-.52l-.31-.41-.57,6.91Z"/><path class="cls-2" d="M23.45,223.27h1.24a1.32,1.32,0,0,0,.85-.31l1.65-1.39,1.9-1.6a1.32,1.32,0,0,0-.52-2.29L25,216.74a1.33,1.33,0,0,0-.67,0l-3.55.92a1.32,1.32,0,0,0-.71,2.08l2,2.59.31.41A1.32,1.32,0,0,0,23.45,223.27Zm1.24-3.88.75.19-1.23,1H24.1l-.69-.9Z"/><path class="cls-2" d="M14.45,274.8h3.08a5.57,5.57,0,0,1-.05-2.64h-3a1.32,1.32,0,1,0,0,2.64Z"/><path class="cls-2" d="M94.71,274.8a1.32,1.32,0,0,0,0-2.64h-72c0,.21.09.41.12.6a8.57,8.57,0,0,0,2.31.71,1.89,1.89,0,0,1,1.33.84,2.31,2.31,0,0,1,.24.49h68Z"/><path class="cls-2" d="M14.45,269.18H94.73a1.32,1.32,0,0,0,0-2.64H14.45a1.32,1.32,0,1,0,0,2.64Z"/><path class="cls-2" d="M14.45,299.17H21.6a1.32,1.32,0,0,0,1.17-.7c0-.08.45-.84,1-1.95A29.1,29.1,0,0,0,26,290.25a25.74,25.74,0,0,0,0-7.32c.6-2.4,1.36-6.24.67-8.12a2.31,2.31,0,0,0-.24-.49,1.89,1.89,0,0,0-1.33-.84,8.57,8.57,0,0,1-2.31-.71c0-.19-.07-.39-.12-.6-.3-1.29-1-2.77-2.43-2.77a2.33,2.33,0,0,0-1.63.75,4.18,4.18,0,0,0-1.17,2,5.57,5.57,0,0,0,.05,2.64c0,.12.06.24.09.35a12.57,12.57,0,0,0-1.85.19,5.62,5.62,0,0,0-2.64,1.24,10.08,10.08,0,0,0-2.68,4.17A43.5,43.5,0,0,1,8,285.86c-1.19,2.2-2.13,3.94-1.76,5.78a2.08,2.08,0,0,0,2.17,1.7A8.3,8.3,0,0,0,12.11,292a9.89,9.89,0,0,0,1,6.21c.08.13.15.26.23.39A1.32,1.32,0,0,0,14.45,299.17Zm-4.13-12a46.54,46.54,0,0,0,2.59-5.4c1.49-3.82,2.72-3.86,5.41-3.95l1.33-.06a1.32,1.32,0,0,0,1.07-2c-.2-.35-1-1.93-.62-3.09a7.61,7.61,0,0,1,.19,1.09,1.32,1.32,0,0,0,.66,1A12.26,12.26,0,0,0,24.32,276a23.17,23.17,0,0,1-.91,6.51,1.32,1.32,0,0,0,0,.53,23.84,23.84,0,0,1,0,6.71,30.72,30.72,0,0,1-2.59,6.77H15.21c-1.14-2.37-.29-5.82.2-7.14a1.68,1.68,0,0,0,.36-1A1.35,1.35,0,0,0,14.44,287a1.44,1.44,0,0,0-1.31.94,13.55,13.55,0,0,1-4.33,2.65A11.45,11.45,0,0,1,10.32,287.12Z"/><path class="cls-2" d="M405.73,205.5h-1.32v38.37h2.64v-39.4l-.12.26A1.32,1.32,0,0,1,405.73,205.5Z"/><rect class="cls-2" x="360.1" y="205.5" width="2.64" height="38.37"/><path class="cls-2" d="M409.94,412.1v-1.32H362.72l0,1.3a1.32,1.32,0,0,1-1.32,1.35h49.84A1.32,1.32,0,0,1,409.94,412.1Z"/><path class="cls-2" d="M400.42,210.59a1.32,1.32,0,0,1-.5.1h-1.29l.69,33.18H402l-.71-33.79A3.64,3.64,0,0,1,400.42,210.59Z"/><path class="cls-2" d="M395.83,210.69a1.31,1.31,0,0,1-.5-.1,3.61,3.61,0,0,1-.83-.51l-.7,33.79h2.64l.69-33.18Z"/><path class="cls-2" d="M399.36,206a1.32,1.32,0,0,0,.43,1.22,1.46,1.46,0,0,1,.06.48c0,.15-.15.28-.28.37h-3.4c-.12-.09-.28-.23-.28-.37a1.47,1.47,0,0,1,.06-.48,1.32,1.32,0,0,0,.25-1.68h-3.73a3.12,3.12,0,0,0,.87,1.25,4.53,4.53,0,0,0-.09.92,3.06,3.06,0,0,0,1.24,2.41,3.61,3.61,0,0,0,.83.51,1.31,1.31,0,0,0,.5.1h4.09a1.32,1.32,0,0,0,.5-.1,3.64,3.64,0,0,0,.83-.51,3.06,3.06,0,0,0,1.24-2.41,4.53,4.53,0,0,0-.09-.92,3.13,3.13,0,0,0,.87-1.25h-3.74A1.32,1.32,0,0,0,399.36,206Z"/><path class="cls-2" d="M370.74,210.59a1.32,1.32,0,0,1-.5.1h-1.29l.69,33.18h2.64l-.71-33.79A3.64,3.64,0,0,1,370.74,210.59Z"/><path class="cls-2" d="M366.14,210.69a1.31,1.31,0,0,1-.5-.1,3.61,3.61,0,0,1-.83-.51l-.7,33.79h2.64l.69-33.18Z"/><path class="cls-2" d="M363.66,206.75a4.52,4.52,0,0,0-.09.92,3.06,3.06,0,0,0,1.24,2.41,3.61,3.61,0,0,0,.83.51,1.31,1.31,0,0,0,.5.1h4.09a1.32,1.32,0,0,0,.5-.1,3.64,3.64,0,0,0,.83-.51,3.06,3.06,0,0,0,1.24-2.41,4.52,4.52,0,0,0-.09-.92,3.12,3.12,0,0,0,.87-1.25h-3.73a1.32,1.32,0,0,0,.25,1.68,1.47,1.47,0,0,1,.06.48c0,.15-.15.28-.28.37h-3.4c-.12-.09-.28-.23-.28-.37a1.47,1.47,0,0,1,.06-.48,1.32,1.32,0,0,0,.25-1.68h-3.73A3.12,3.12,0,0,0,363.66,206.75Z"/><path class="cls-2" d="M491.55,255.42h-1.32v1.65h1.32a1.32,1.32,0,0,1,1.32,1.32v-3.9l-.21.33A1.32,1.32,0,0,1,491.55,255.42Z"/><path class="cls-2" d="M492.87,339.46v-.06h0S492.87,339.44,492.87,339.46Z"/><path class="cls-2" d="M456.15,412.1v-1.32H434.7v1.32a1.32,1.32,0,0,1-1.32,1.32h24.1A1.32,1.32,0,0,1,456.15,412.1Z"/><path class="cls-2" d="M491.55,274.8h-1.32v.54a5.62,5.62,0,0,1,2.64,1.24v-3.1A1.32,1.32,0,0,1,491.55,274.8Z"/><path class="cls-2" d="M480,412.1v-1.32H464.38v1.32a1.32,1.32,0,0,1-1.32,1.32h18.26A1.32,1.32,0,0,1,480,412.1Z"/><path class="cls-2" d="M491.55,269.18h-1.32v3h1.32a1.32,1.32,0,0,1,1.32,1.32v-5.63A1.32,1.32,0,0,1,491.55,269.18Z"/><path class="cls-2" d="M426.47,412.1v-1.32H412.59V322.24h-1.34a1.32,1.32,0,0,1-1.3-1.11v91a1.32,1.32,0,0,0,1.32,1.32h16.52A1.32,1.32,0,0,1,426.47,412.1Z"/><path class="cls-2" d="M491.55,257.07h-75a1.32,1.32,0,0,1,1.26,1.72l-.29.92h72.69v6.82h1.32a1.32,1.32,0,0,1,1.32,1.32V258.4A1.32,1.32,0,0,0,491.55,257.07Z"/><path class="cls-2" d="M505.12,302.21a1.32,1.32,0,0,0-1.11-.61H492.87v1.32a1.32,1.32,0,0,1-1.32,1.32H502l-.69,1.51h.85a1.32,1.32,0,0,1,0,2.64H500l-2.29,5-3.51,6.2h1a1.32,1.32,0,0,1,1.31,1.25l3.51-6.2.05-.1,5.07-11.07A1.32,1.32,0,0,0,505.12,302.21Z"/><path class="cls-2" d="M422,304.24h59.3a1.32,1.32,0,0,1-1.32-1.32V301.6H423.23Z"/><path class="cls-2" d="M412.57,319.6v-3.17l-.38.37a1.32,1.32,0,0,1-.92.37h-1.34v3.75a1.35,1.35,0,0,0,1.32,1.32h65v-1.32a1.32,1.32,0,0,1,1.32-1.32Z"/><path class="cls-2" d="M421.32,305.75l-1.21,2.64h82a1.32,1.32,0,0,0,0-2.64H421.32Z"/><path class="cls-2" d="M423.23,301.6l1.47-3.2a1.32,1.32,0,0,0-1.2-1.87H412.59v1.32a1.32,1.32,0,0,1-1.32,1.32h10.17l-.69,1.51h.85a1.32,1.32,0,1,1,0,2.64h-2.06l-2.21,4.82-6.59,6.38H366v1.32a1.3,1.3,0,0,1-.16.61c0,.25,0,.48-.08.71h45.52a1.32,1.32,0,0,0,.92-.37l.38-.37,6.77-6.55a1.33,1.33,0,0,0,.28-.4l.49-1.07,1.21-2.64.69-1.51Z"/><path class="cls-2" d="M368.75,300.68v2.64h52.84a1.32,1.32,0,1,0,0-2.64H368.75Z"/><path class="cls-2" d="M409.94,296.53H370.43l-1.68,1.84v.81h42.51a1.32,1.32,0,0,0,1.32-1.32v-23h-1.3a1.32,1.32,0,0,1,0-2.64h1.3v-3h-2.64Z"/><path class="cls-2" d="M409.13,257.07v1.32a1.32,1.32,0,0,1-1.32,1.32h7l-.77,2.44-3.38,4.38H358.14v2.64h53.13a1.32,1.32,0,1,1,0-2.64H414l2.28-2.95a1.33,1.33,0,0,0,.21-.41l1.09-3.46.29-.92a1.32,1.32,0,0,0-1.26-1.72h-7.45Z"/><path class="cls-2" d="M399.34,257.07h-41.2v2.64h49.67a1.32,1.32,0,0,0,1.32-1.32v-3h-1.32a1.32,1.32,0,0,1-1.32-1.32v3Z"/><path class="cls-2" d="M404.41,243.87H392v1.32a1.32,1.32,0,0,1-1.32,1.32h19.29v2h2.64v-3.29a1.32,1.32,0,0,0-1.32-1.32h-6.86Z"/><path class="cls-2" d="M366.72,251.13h39.77v-1.32a1.32,1.32,0,0,1,1.32-1.32H358.14v2.64Z"/><path class="cls-2" d="M358.14,247.55v-1h17.27a1.32,1.32,0,0,1-1.32-1.32v-1.32H356.82a1.32,1.32,0,0,0-1.32,1.32v1h1.32A1.32,1.32,0,0,1,358.14,247.55Z"/><path class="cls-2" d="M392,245.19V216.3a8.95,8.95,0,1,0-17.89,0v28.89a1.32,1.32,0,0,0,1.32,1.32h15.25A1.32,1.32,0,0,0,392,245.19ZM376.73,216.3a6.3,6.3,0,0,1,12.61,0v27.57H376.73Z"/><path class="cls-2" d="M409,198.45H406.9l-2,4.41h-3.35v1.32a1.32,1.32,0,0,1-1.32,1.32h5.52a1.32,1.32,0,0,0,1.2-.77l.12-.26,3.06-6.67A1.32,1.32,0,0,1,409,198.45Z"/><path class="cls-2" d="M400.64,193H405l1.67,2.83h-6.07l.32.19h0a1.35,1.35,0,0,1,.28.24l0,.06a1.27,1.27,0,0,1,.19.32v0a1.33,1.33,0,0,1,.07.33s0,.05,0,.08,0,0,0,0v1.32H409a1.32,1.32,0,0,0,1-2.14L406.87,191a1.32,1.32,0,0,0-1.14-.65H402v1.32A1.32,1.32,0,0,1,400.64,193Z"/><path class="cls-2" d="M353.86,196.75a1.3,1.3,0,0,1,.08-.18A1.3,1.3,0,0,0,353.86,196.75Z"/><path class="cls-2" d="M353.81,197.08a1.33,1.33,0,0,1,0-.18A1.33,1.33,0,0,0,353.81,197.08Z"/><path class="cls-2" d="M353.84,197.41a1.28,1.28,0,0,1,0-.18A1.28,1.28,0,0,0,353.84,197.41Z"/><path class="cls-2" d="M362.75,205.5h1.13a1.32,1.32,0,0,1-1.32-1.32v-1.32H359.2l-2-4.41h-2.06a1.32,1.32,0,0,1-1.15-.67,1.36,1.36,0,0,1-.09-.23,1.26,1.26,0,0,0,0,.12l3.23,7a1.32,1.32,0,0,0,1.2.77h4.39Z"/><path class="cls-2" d="M396.84,183.65a1.32,1.32,0,0,1-1.32,1.32h3.8v5.37H391.6l4.34,2.64h4.7a1.32,1.32,0,0,0,1.32-1.32v-8a1.32,1.32,0,0,0-1.32-1.32h-4.07c.07.31.15.6.2.92A1.33,1.33,0,0,1,396.84,183.65Z"/><path class="cls-2" d="M365.17,190.34V185h3.41a1.32,1.32,0,0,1-1.31-1.52c.06-.39.15-.75.23-1.12h-3.66a1.32,1.32,0,0,0-1.32,1.32v6.69Z"/><path class="cls-2" d="M355.12,198.45h7.43v-1.32a1.32,1.32,0,0,1,1.32-1.32h-6.44l1.67-2.83h9.45l4.34-2.64H358.35a1.32,1.32,0,0,0-1.14.65L354,196.46s0,.07,0,.11a1.3,1.3,0,0,0-.08.18,1.08,1.08,0,0,0,0,.15,1.33,1.33,0,0,0,0,.18,1.24,1.24,0,0,0,0,.15,1.28,1.28,0,0,0,0,.18,1.39,1.39,0,0,0,0,.15,1.36,1.36,0,0,0,.09.23A1.32,1.32,0,0,0,355.12,198.45Z"/><path class="cls-2" d="M401.19,196.26l0,.06Z"/><path class="cls-2" d="M401.52,197s0,.05,0,.08S401.52,197,401.52,197Z"/><path class="cls-2" d="M401.43,196.64v0Z"/><path class="cls-2" d="M369,195.81l13.25-8.08,13.26,8.08h4.71a1.31,1.31,0,0,1,.7.21h0l-.32-.19L395.94,193l-4.34-2.64-8.67-5.28a1.31,1.31,0,0,0-.2-.09h-1a1.31,1.31,0,0,0-.2.09l-8.67,5.28L368.55,193l-4.64,2.83Z"/><path class="cls-2" d="M366.52,205.5h33.69a1.32,1.32,0,0,0,1.32-1.32v-7s0,0,0,0,0-.05,0-.08a1.33,1.33,0,0,0-.07-.33v0a1.27,1.27,0,0,0-.19-.32l0-.06a1.35,1.35,0,0,0-.28-.24,1.31,1.31,0,0,0-.7-.21H363.87a1.32,1.32,0,0,0-1.32,1.32v7a1.32,1.32,0,0,0,1.32,1.32Zm-1.33-7h33.69v4.41H365.2Z"/><path class="cls-2" d="M367.58,184.51a1.32,1.32,0,0,0,1,.46h26.93a1.32,1.32,0,0,0,1.26-1.72c-.05-.32-.13-.62-.2-.92-1.76-7.63-8.59-10.65-11.21-11.53v-5.88a1.32,1.32,0,0,0-.16-.64l-1.11-2a3.73,3.73,0,0,1-4-.26l-1.25,2.28a1.33,1.33,0,0,0-.16.64v5.88c-2.62.89-9.45,3.9-11.21,11.53-.08.37-.17.73-.23,1.12A1.32,1.32,0,0,0,367.58,184.51Zm13.78-19.25L382,164l.68,1.24v6.52a1.32,1.32,0,0,0,1,1.28c.09,0,8,2,10.13,9.27H370.22c2-7.2,9.78-9.18,10.13-9.27a1.32,1.32,0,0,0,1-1.28Z"/><path class="cls-2" d="M382.31,162.7a3.74,3.74,0,0,0,1.32-7.24v1.08a1.32,1.32,0,0,1-1.32,1.32,1.1,1.1,0,1,1-1.1,1.1,1.1,1.1,0,0,1,1.1-1.1,1.32,1.32,0,0,1-1.32-1.32v-1.08a3.74,3.74,0,0,0,1.32,7.24Z"/><path class="cls-2" d="M382.31,157.86a1.32,1.32,0,0,0,1.32-1.32v-9.11a1.32,1.32,0,1,0-2.64,0v9.11A1.32,1.32,0,0,0,382.31,157.86Z"/><path class="cls-2" d="M409.94,248.48h-2.14a1.32,1.32,0,0,0-1.32,1.32v4.3a1.32,1.32,0,0,0,1.32,1.32h83.75a1.32,1.32,0,0,0,1.11-.61l.21-.33,2.56-4a1.32,1.32,0,0,0-1.11-2h-2l.29.48a1.32,1.32,0,0,1-1,2.16h.33l-1.06,1.65h-81.7v-1.65h50.36a1.32,1.32,0,0,1-1.32-1.33c0-.41,0-.85.07-1.31H409.94Z"/><path class="cls-2" d="M495.26,328.61h-1.48a2.78,2.78,0,0,1-1.9,2.11,1.37,1.37,0,0,0-1.15,1.1,1.18,1.18,0,0,0,.63,1.27,4.06,4.06,0,0,1,.51,2.39,3.22,3.22,0,0,1-1.59,2.66h1.28a1.32,1.32,0,0,1,1.32,1.27h0a5.5,5.5,0,0,0,1.63-3.92,8.14,8.14,0,0,0-.46-2.89,6.08,6.08,0,0,0,2.53-5.3A1.32,1.32,0,0,1,495.26,328.61Z"/><path class="cls-2" d="M478.82,332.59a8.14,8.14,0,0,0-.46,2.89A5.5,5.5,0,0,0,480,339.4a1.32,1.32,0,0,1,1.32-1.27h1.28a3.22,3.22,0,0,1-1.59-2.66,4.06,4.06,0,0,1,.51-2.39,1.18,1.18,0,0,0,.63-1.27,1.37,1.37,0,0,0-1.15-1.1,2.78,2.78,0,0,1-1.9-2.11h-1.48a1.32,1.32,0,0,1-1.32-1.32A6.08,6.08,0,0,0,478.82,332.59Z"/><path class="cls-2" d="M495.26,319.6H477.61a1.32,1.32,0,0,0-1.32,1.32v6.37a1.32,1.32,0,0,0,1.32,1.32h17.65a1.32,1.32,0,0,0,1.32-1.32v-6.37s0,0,0-.07A1.32,1.32,0,0,0,495.26,319.6Zm-16.33,2.64h15V326h-15Z"/><path class="cls-2" d="M491.55,338.14H481.31A1.32,1.32,0,0,0,480,339.4s0,0,0,.06V412.1a1.32,1.32,0,0,0,1.32,1.32h10.24a1.32,1.32,0,0,0,1.32-1.32V339.46s0,0,0-.06A1.32,1.32,0,0,0,491.55,338.14Zm-8.92,2.64h7.59v70h-7.59Z"/><path class="cls-2" d="M439,354.64a8.9,8.9,0,0,0-2.49,6.19V398h2.64V360.83a6.3,6.3,0,1,1,12.61,0V398h2.64V360.83a9,9,0,0,0-5.22-8.12h-7.47A8.93,8.93,0,0,0,439,354.64Z"/><path class="cls-2" d="M463.64,357.29a3.63,3.63,0,0,1-.84.51,1.31,1.31,0,0,1-.5.1H461l.69,33.18h1.35a1.32,1.32,0,0,1,1.32,1.31h0Z"/><path class="cls-2" d="M458.22,357.89a1.32,1.32,0,0,1-.5-.1,3.64,3.64,0,0,1-.83-.51l-.73,35.08v0a1.32,1.32,0,0,1,1.32-1.31h1.35l.69-33.18Z"/><path class="cls-2" d="M464.58,352.71h-2.65a1.32,1.32,0,0,0,.25,1.68,1.44,1.44,0,0,1,.06.48c0,.15-.15.28-.28.37h-3.4c-.12-.09-.28-.23-.28-.37a1.44,1.44,0,0,1,.06-.48,1.32,1.32,0,0,0,.25-1.68h-3.74a3.13,3.13,0,0,0,.87,1.25,4.52,4.52,0,0,0-.09.92,3.06,3.06,0,0,0,1.24,2.41,3.64,3.64,0,0,0,.83.51,1.32,1.32,0,0,0,.5.1h4.09a1.31,1.31,0,0,0,.5-.1,3.63,3.63,0,0,0,.84-.51,3.05,3.05,0,0,0,1.24-2.41,4.51,4.51,0,0,0-.09-.92,3.27,3.27,0,0,0,1.1-2.57A1.32,1.32,0,0,1,464.58,352.71Z"/><path class="cls-2" d="M434,357.29a3.63,3.63,0,0,1-.84.51,1.31,1.31,0,0,1-.5.1h-1.29l.69,33.18h1.35a1.32,1.32,0,0,1,1.32,1.31h0Z"/><path class="cls-2" d="M428.54,357.89a1.32,1.32,0,0,1-.5-.1,3.64,3.64,0,0,1-.83-.51l-.73,35.08v0a1.32,1.32,0,0,1,1.32-1.31h1.35l.69-33.18Z"/><path class="cls-2" d="M428.54,357.89h4.09a1.31,1.31,0,0,0,.5-.1,3.63,3.63,0,0,0,.84-.51,3.05,3.05,0,0,0,1.24-2.41,4.51,4.51,0,0,0-.09-.92,3.13,3.13,0,0,0,.87-1.25h-3.74a1.32,1.32,0,0,0,.25,1.68,1.44,1.44,0,0,1,.06.48c0,.15-.15.28-.28.37h-3.4c-.12-.09-.28-.23-.28-.37a1.44,1.44,0,0,1,.06-.48,1.32,1.32,0,0,0,.25-1.68h-2.65a1.32,1.32,0,0,1-1.32-1.32A3.27,3.27,0,0,0,426,354a4.51,4.51,0,0,0-.09.92,3.06,3.06,0,0,0,1.24,2.41,3.64,3.64,0,0,0,.83.51A1.32,1.32,0,0,0,428.54,357.89Z"/><path class="cls-2" d="M426.27,352.71h38.31a1.32,1.32,0,0,0,1.32-1.32v-5.8l-.27.35a1.32,1.32,0,0,1-1.05.52h-1.32v3.6H427.59v-3.6h-1.32a1.32,1.32,0,0,1-1.05-.52l-.27-.35v5.8A1.32,1.32,0,0,0,426.27,352.71Z"/><path class="cls-2" d="M464.38,412.1V392.4h0a1.32,1.32,0,0,0-1.32-1.31h-5.59a1.32,1.32,0,0,0-1.32,1.31h0V398h1.32a1.32,1.32,0,0,1,1.32,1.32v-5.64h2.94v17.07h-2.94v-5.66a1.32,1.32,0,0,1-1.32,1.32h-1.32v5.66a1.32,1.32,0,0,0,1.32,1.32h5.59A1.32,1.32,0,0,0,464.38,412.1Z"/><path class="cls-2" d="M434.7,412.1v-5.66h-1.32a1.32,1.32,0,0,1-1.32-1.32v5.66h-2.94V393.72h2.94v5.64a1.32,1.32,0,0,1,1.32-1.32h1.32V392.4h0a1.32,1.32,0,0,0-1.32-1.31h-5.59a1.32,1.32,0,0,0-1.32,1.31h0V412.1a1.32,1.32,0,0,0,1.32,1.32h5.59A1.32,1.32,0,0,0,434.7,412.1Z"/><path class="cls-2" d="M451.73,398H433.37a1.32,1.32,0,0,0-1.32,1.32v5.77a1.32,1.32,0,0,0,1.32,1.32h24.1a1.32,1.32,0,0,0,1.32-1.32v-5.77a1.32,1.32,0,0,0-1.32-1.32h-5.74Zm4.42,5.77H434.7v-3.12h21.45Z"/><path class="cls-2" d="M426.27,346.46h38.31a1.32,1.32,0,0,0,1.05-.52l.27-.35,2-2.64a1.32,1.32,0,0,0-.32-1.9,14.6,14.6,0,0,1-3.45-3.57,4.76,4.76,0,0,0-4.05-2.12,4.84,4.84,0,0,0-3.11,1,14.6,14.6,0,0,1-1.78-.95,8.49,8.49,0,0,0-3.78-1.53,2.82,2.82,0,0,1-1.34-.54,8.82,8.82,0,0,0-9.33,0,2.82,2.82,0,0,1-1.34.54,8.48,8.48,0,0,0-3.78,1.53,14.56,14.56,0,0,1-1.78.95,4.84,4.84,0,0,0-3.11-1,4.76,4.76,0,0,0-4.05,2.12,14.61,14.61,0,0,1-3.45,3.57,1.32,1.32,0,0,0-.32,1.9l2,2.64.27.35A1.32,1.32,0,0,0,426.27,346.46Zm4.48-8.46a2.51,2.51,0,0,1,1.27.32,1.32,1.32,0,0,0,.78.69,2.35,2.35,0,0,0,.74.12,7.53,7.53,0,0,0,3.44-1.4,8,8,0,0,1,2.48-1.16,5.17,5.17,0,0,0,2.63-.9,6.19,6.19,0,0,1,6.66,0,5.17,5.17,0,0,0,2.63.9,8,8,0,0,1,2.48,1.16,7.53,7.53,0,0,0,3.44,1.4A2.35,2.35,0,0,0,458,339a1.32,1.32,0,0,0,.78-.69,2.51,2.51,0,0,1,1.28-.32,2.13,2.13,0,0,1,1.86,1,17.71,17.71,0,0,0,3.06,3.41l-1.1,1.44h-37l-1.1-1.44a17.71,17.71,0,0,0,3.06-3.41A2.13,2.13,0,0,1,430.75,338Z"/><path class="cls-2" d="M445.42,343.79a4.33,4.33,0,1,0-4.33-4.33A4.34,4.34,0,0,0,445.42,343.79Zm0-6a1.69,1.69,0,1,1-1.69,1.69A1.69,1.69,0,0,1,445.42,337.77Z"/><path class="cls-2" d="M491.55,299.17h-1.32v2.43h-7.59v-2.43h1.78a1.34,1.34,0,0,1-1.18-.7c0-.08-.45-.84-1-1.95h-1a1.32,1.32,0,0,0-1.32,1.32v5.08a1.32,1.32,0,0,0,1.32,1.32h10.24a1.32,1.32,0,0,0,1.32-1.32V298.2c-.08.13-.15.26-.23.39A1.32,1.32,0,0,1,491.55,299.17Z"/><path class="cls-2" d="M458.55,250.74a1.32,1.32,0,0,0,.94.39h18.28a1.32,1.32,0,0,1-1.32-1.43l.1-1.21H460.91c.25-2,1.05-5.38,3.67-5.38a1.32,1.32,0,0,0,1.07-.55c.44-.61,1-1.4,1.55-2.27,1.36-2,3.39-5.06,4.5-5.9l.41-.21a1.32,1.32,0,0,0-1-2.43,2.8,2.8,0,0,0-.76.36c-.71.34-1.64.71-2.62,1.1-1.41.56-3,1.2-4.48,1.94,2.46-4.08,7-8.4,10.6-8.4a4.07,4.07,0,0,1,2.86,1.16,1.32,1.32,0,0,0,.49.28,7.8,7.8,0,0,1,1,.42l.23-2.78-.14-.06a6.65,6.65,0,0,0-4.44-1.67c-6.38,0-13.68,8.85-14.88,14.4a1.32,1.32,0,0,0,2.25,1.19,16.77,16.77,0,0,1,5.33-3.15c-.49.71-1,1.47-1.55,2.27-.41.61-.8,1.19-1.14,1.69-3.89.46-5.33,4.72-5.63,8,0,.46-.06.91-.07,1.31A1.32,1.32,0,0,0,458.55,250.74Z"/><path class="cls-2" d="M484.74,232.31a6.64,6.64,0,0,0,2.49.58,4,4,0,0,0,.95-.11h0a13.22,13.22,0,0,0-1.86,5.71c-.17,3.37,1.7,7.55,3,10h-3.21l.08,1a1.32,1.32,0,0,1-1.29,1.62h6.69a1.32,1.32,0,0,0,1-2.16l-.29-.48c-1.25-2.16-3.51-6.76-3.35-9.86a10.84,10.84,0,0,1,1.56-4.6c.67-1.26,1.25-2.34.88-3.48a2.51,2.51,0,0,0-1.37-1.48,1.32,1.32,0,0,0-1.72.51,1.12,1.12,0,0,1-1.07.67,6.6,6.6,0,0,1-2.75-1Z"/><path class="cls-2" d="M478.2,228.61l-1.64,19.87-.1,1.21a1.32,1.32,0,0,0,1.32,1.43h7.11a1.32,1.32,0,0,0,1.29-1.62l-.08-1-1.34-16.18-.25-3.06-.57-6.91-.31.41a1.32,1.32,0,0,1-1,.52h-1.22l2.09,25.22H479.2l2.09-25.22h0a1.32,1.32,0,0,1-.85-.31l-1.65-1.39a1.33,1.33,0,0,0-.06.28l-.33,4Z"/><path class="cls-2" d="M480.46,223a1.32,1.32,0,0,0,.85.31h1.24a1.32,1.32,0,0,0,1-.52l.31-.41,2-2.59a1.32,1.32,0,0,0-.71-2.08l-3.55-.92a1.33,1.33,0,0,0-.67,0l-3.55.92a1.32,1.32,0,0,0-.52,2.29l1.9,1.6Zm1.44-2.33h-.1l-1.23-1,.75-.19,1.28.33Z"/><path class="cls-2" d="M491.55,272.16h-3a5.57,5.57,0,0,1-.05,2.64h3.08a1.32,1.32,0,0,0,0-2.64Z"/><path class="cls-2" d="M411.29,272.16a1.32,1.32,0,0,0,0,2.64h68a2.34,2.34,0,0,1,.24-.49,1.89,1.89,0,0,1,1.33-.84,8.58,8.58,0,0,0,2.31-.71c0-.19.07-.39.12-.6h-72Z"/><path class="cls-2" d="M491.55,266.53H411.27a1.32,1.32,0,1,0,0,2.64h80.29a1.32,1.32,0,0,0,0-2.64Z"/><path class="cls-2" d="M490.23,275.34a12.57,12.57,0,0,0-1.85-.19c0-.11.06-.23.09-.35a5.57,5.57,0,0,0,.05-2.64,4.18,4.18,0,0,0-1.17-2,2.33,2.33,0,0,0-1.63-.75c-1.47,0-2.13,1.48-2.42,2.77,0,.21-.09.41-.12.6a8.58,8.58,0,0,1-2.31.71,1.89,1.89,0,0,0-1.33.84,2.34,2.34,0,0,0-.24.49c-.69,1.88.06,5.72.67,8.12a25.74,25.74,0,0,0,0,7.32,29.14,29.14,0,0,0,2.25,6.28c.52,1.1.93,1.87,1,1.95a1.34,1.34,0,0,0,1.18.7h7.14a1.32,1.32,0,0,0,1.09-.57c.09-.13.15-.26.23-.39a9.88,9.88,0,0,0,1-6.21,8.3,8.3,0,0,0,3.71,1.36h0a2.08,2.08,0,0,0,2.17-1.7c.37-1.84-.57-3.58-1.76-5.78a43.49,43.49,0,0,1-2.45-5.11,10.08,10.08,0,0,0-2.68-4.17A5.62,5.62,0,0,0,490.23,275.34Zm7,15.3a13.6,13.6,0,0,1-4.33-2.66,1.44,1.44,0,0,0-1.31-.94,1.35,1.35,0,0,0-1.33,1.35,1.68,1.68,0,0,0,.36,1c.5,1.32,1.34,4.77.2,7.14h-5.59a30.68,30.68,0,0,1-2.59-6.77,23.84,23.84,0,0,1,0-6.71,1.31,1.31,0,0,0,0-.53,23.12,23.12,0,0,1-.91-6.51,12.26,12.26,0,0,0,3.37-1.24,1.32,1.32,0,0,0,.66-1,7.52,7.52,0,0,1,.19-1.09,4.47,4.47,0,0,1-.62,3.09,1.32,1.32,0,0,0,1.07,2l1.33.06c2.69.09,3.92.13,5.41,3.95a46.56,46.56,0,0,0,2.59,5.4A11.4,11.4,0,0,1,497.2,290.64Z"/><path class="cls-2" d="M147.86,247.55v7.38a1.32,1.32,0,0,1,1.32-1.32h1.32v-4.74h23.41a1.32,1.32,0,0,1-1.32-1.32v-1.32H149.18A1.32,1.32,0,0,0,147.86,247.55Z"/><path class="cls-2" d="M147.86,259.72v8.14a1.32,1.32,0,0,1,1.32-1.32h1.32V256.26H226l7.06-2.64H149.18a1.32,1.32,0,0,0-1.32,1.32v4.78Z"/><path class="cls-2" d="M150.5,284.53V269.18h41l7.06-2.64H149.18a1.32,1.32,0,0,0-1.32,1.32v17.66Z"/><path class="cls-2" d="M199.08,109.65h1.43a78.38,78.38,0,0,1,6-23.12c6.37-14.26,16.29-22.24,29.52-23.78a33.2,33.2,0,0,1,5.85-2.6v-.33h-.94c-16.64,0-29.39,8.89-36.87,25.7a79.11,79.11,0,0,0-6.29,25.39s0,0,0,0A1.32,1.32,0,0,1,199.08,109.65Z"/><path class="cls-2" d="M229.27,71a37.64,37.64,0,0,1,11.79-7.76,16,16,0,0,1,1.24-1.16,1.31,1.31,0,0,1-.42-1v-1a33.2,33.2,0,0,0-5.85,2.6A41.59,41.59,0,0,0,227.56,69c-6.83,6.52-15.08,18.83-16,40.64h2.65c0-.34,0-.69,0-1C215.14,92.61,220.31,79.64,229.27,71Z"/><path class="cls-2" d="M246.53,62.62a3.61,3.61,0,0,1,.55-.16h-3.88a1.31,1.31,0,0,1-.9-.36,16,16,0,0,0-1.24,1.16c-2.17,2.26-4.59,6-6.59,12.2-2.39,7.37-4.18,18.23-4.26,34.19h2.64c0-1.12,0-2.22,0-3.29C233.64,69.54,243.95,63.54,246.53,62.62Z"/><path class="cls-2" d="M231.77,406.46h1.42l1.3-71.76h-1.3a1.32,1.32,0,0,1-1.32-1.32l-1.34,73.94A1.32,1.32,0,0,1,231.77,406.46Z"/><path class="cls-2" d="M241.67,329.33h-1.3l0,2.72h1.35a1.32,1.32,0,0,1,1.32,1.29l-.08-4.61a5.59,5.59,0,0,1-.77.47A1.31,1.31,0,0,1,241.67,329.33Z"/><path class="cls-2" d="M244.53,412.1a1.33,1.33,0,0,0,0-.22l0-1.11-1.41-77.38a1.32,1.32,0,0,1-1.32,1.3h-1.3l1.3,71.76h1.34a1.32,1.32,0,0,1,0,2.64h-1.29l0,1.68h-8.73l0-1.68h-1.38a1.32,1.32,0,0,1-1.25-.91l0,2.6,0,1.3a1.32,1.32,0,0,0,1.32,1.35h11.43A1.32,1.32,0,0,0,244.53,412.1Z"/><path class="cls-2" d="M233.3,329.33a1.31,1.31,0,0,1-.56-.13,5.6,5.6,0,0,1-.77-.47l-.08,4.64a1.32,1.32,0,0,1,1.32-1.32h1.35l0-2.72Z"/><path class="cls-2" d="M243.08,333.34a1.32,1.32,0,0,0-1.32-1.29H233.2a1.32,1.32,0,0,0-1.32,1.32h0a1.32,1.32,0,0,0,1.32,1.32h8.56a1.32,1.32,0,0,0,1.32-1.3v0S243.08,333.35,243.08,333.34Z"/><path class="cls-2" d="M244.83,317.16a2.78,2.78,0,0,1-1.9,2.11,1.37,1.37,0,0,0-1.15,1.1,1.18,1.18,0,0,0,.63,1.27,4.06,4.06,0,0,1,.51,2.39,3.22,3.22,0,0,1-1.59,2.66h-7.68a3.2,3.2,0,0,1-1.59-2.66,4.06,4.06,0,0,1,.51-2.39,1.17,1.17,0,0,0,.62-1.25,1.39,1.39,0,0,0-1.12-1.12,2.78,2.78,0,0,1-1.92-2.12h-2.69a5.8,5.8,0,0,0,2.42,4,8.14,8.14,0,0,0-.46,2.89,5.74,5.74,0,0,0,2.55,4.71,5.6,5.6,0,0,0,.77.47,1.31,1.31,0,0,0,.56.13h8.36a1.31,1.31,0,0,0,.56-.13,5.59,5.59,0,0,0,.77-.47,5.74,5.74,0,0,0,2.55-4.71,8.14,8.14,0,0,0-.46-2.89,5.8,5.8,0,0,0,2.42-4Z"/><path class="cls-2" d="M231.77,406.46a1.34,1.34,0,0,0-1.32,1.32,1.3,1.3,0,0,0,.07.41,1.32,1.32,0,0,0,1.25.91h11.33a1.32,1.32,0,0,0,0-2.64H231.77Z"/><path class="cls-2" d="M212.6,329.33h-1.3l0,2.72h1.35a1.32,1.32,0,0,1,1.32,1.3l-.08-4.61a5.63,5.63,0,0,1-.77.47A1.31,1.31,0,0,1,212.6,329.33Z"/><path class="cls-2" d="M202.71,406.46h1.42l1.3-71.76h-1.3a1.32,1.32,0,0,1-1.32-1.32l-1.34,73.94A1.32,1.32,0,0,1,202.71,406.46Z"/><path class="cls-2" d="M215.46,412.1a1.33,1.33,0,0,0,0-.22l0-1.11L214,333.39a1.32,1.32,0,0,1-1.32,1.3h-1.3l1.3,71.76H214a1.32,1.32,0,1,1,0,2.64h-1.29l0,1.68h-8.73l0-1.68h-1.38a1.32,1.32,0,0,1-1.25-.91l0,2.6,0,1.3a1.32,1.32,0,0,0,1.32,1.35h11.43A1.32,1.32,0,0,0,215.46,412.1Z"/><path class="cls-2" d="M204.24,329.33a1.31,1.31,0,0,1-.56-.13,5.62,5.62,0,0,1-.77-.47l-.08,4.63a1.32,1.32,0,0,1,1.32-1.31h1.35l0-2.72Z"/><path class="cls-2" d="M214,333.35a1.32,1.32,0,0,0-1.32-1.3h-8.56a1.32,1.32,0,0,0-1.32,1.31h0a1.32,1.32,0,0,0,1.32,1.32h8.56a1.32,1.32,0,0,0,1.32-1.3v0Z"/><path class="cls-2" d="M215.76,317.16a2.78,2.78,0,0,1-1.9,2.11,1.37,1.37,0,0,0-1.15,1.1,1.18,1.18,0,0,0,.63,1.27,4.06,4.06,0,0,1,.51,2.39,3.22,3.22,0,0,1-1.59,2.66h-7.67A3.22,3.22,0,0,1,203,324a4.06,4.06,0,0,1,.51-2.39,1.17,1.17,0,0,0,.62-1.25,1.39,1.39,0,0,0-1.12-1.12,2.78,2.78,0,0,1-1.92-2.12h-2.69a5.8,5.8,0,0,0,2.42,4,8.14,8.14,0,0,0-.46,2.89,5.74,5.74,0,0,0,2.55,4.71,5.62,5.62,0,0,0,.77.47,1.31,1.31,0,0,0,.56.13h8.36a1.31,1.31,0,0,0,.56-.13,5.63,5.63,0,0,0,.77-.47,5.74,5.74,0,0,0,2.55-4.71,8.14,8.14,0,0,0-.46-2.89,5.8,5.8,0,0,0,2.42-4Z"/><path class="cls-2" d="M202.71,406.46a1.32,1.32,0,0,0,0,2.64H214a1.32,1.32,0,1,0,0-2.64H202.71Z"/><path class="cls-2" d="M173.64,406.46h1.42l1.3-71.76h-1.3a1.32,1.32,0,0,1-1.32-1.32l-1.34,73.94A1.32,1.32,0,0,1,173.64,406.46Z"/><path class="cls-2" d="M183.53,329.33h-1.3l0,2.72h1.35a1.32,1.32,0,0,1,1.32,1.29l-.08-4.61a5.6,5.6,0,0,1-.77.47A1.31,1.31,0,0,1,183.53,329.33Z"/><path class="cls-2" d="M186.4,412.1a1.33,1.33,0,0,0,0-.22l0-1.11L185,333.4a1.32,1.32,0,0,1-1.32,1.3h-1.3l1.3,71.76H185a1.32,1.32,0,1,1,0,2.64h-1.29l0,1.68H175l0-1.68h-1.38a1.32,1.32,0,0,1-1.25-.91l0,2.6,0,1.3a1.32,1.32,0,0,0,1.32,1.35h11.43A1.32,1.32,0,0,0,186.4,412.1Z"/><path class="cls-2" d="M175.17,329.33a1.31,1.31,0,0,1-.56-.13,5.6,5.6,0,0,1-.77-.47l-.08,4.64a1.32,1.32,0,0,1,1.32-1.32h1.35l0-2.72Z"/><path class="cls-2" d="M185,333.34a1.32,1.32,0,0,0-1.32-1.29h-8.56a1.32,1.32,0,0,0-1.32,1.32h0a1.32,1.32,0,0,0,1.32,1.32h8.56a1.32,1.32,0,0,0,1.32-1.3v0S185,333.35,185,333.34Z"/><path class="cls-2" d="M186.7,317.16a2.78,2.78,0,0,1-1.9,2.11,1.37,1.37,0,0,0-1.15,1.1,1.18,1.18,0,0,0,.63,1.27,4.06,4.06,0,0,1,.51,2.39,3.22,3.22,0,0,1-1.59,2.66h-7.68a3.2,3.2,0,0,1-1.59-2.66,4.06,4.06,0,0,1,.51-2.39,1.17,1.17,0,0,0,.62-1.25,1.39,1.39,0,0,0-1.12-1.12,2.78,2.78,0,0,1-1.92-2.12h-2.69a5.8,5.8,0,0,0,2.42,4,8.14,8.14,0,0,0-.46,2.89,5.74,5.74,0,0,0,2.55,4.71,5.6,5.6,0,0,0,.77.47,1.31,1.31,0,0,0,.56.13h8.36a1.31,1.31,0,0,0,.56-.13,5.6,5.6,0,0,0,.77-.47,5.74,5.74,0,0,0,2.55-4.71,8.14,8.14,0,0,0-.46-2.89,5.8,5.8,0,0,0,2.42-4Z"/><path class="cls-2" d="M173.64,406.46a1.34,1.34,0,0,0-1.32,1.32,1.3,1.3,0,0,0,.07.41,1.32,1.32,0,0,0,1.25.91H185a1.32,1.32,0,1,0,0-2.64H173.64Z"/><path class="cls-2" d="M154.47,329.33h-1.3l0,2.72h1.35a1.32,1.32,0,0,1,1.32,1.29l-.08-4.61a5.59,5.59,0,0,1-.77.47A1.31,1.31,0,0,1,154.47,329.33Z"/><path class="cls-2" d="M157.33,412.1a1.33,1.33,0,0,0,0-.22l0-1.11-1.41-77.38a1.32,1.32,0,0,1-1.32,1.3h-1.3l1.3,71.76h1.34a1.32,1.32,0,0,1,0,2.64h-1.29l0,1.68h-8.73l0-1.68h-1.38a1.32,1.32,0,0,1-1.25-.91l0,2.6,0,1.3a1.32,1.32,0,0,0,1.32,1.35H156A1.32,1.32,0,0,0,157.33,412.1Z"/><path class="cls-2" d="M144.57,406.46H146l1.3-71.76H146a1.32,1.32,0,0,1-1.32-1.32l-1.34,73.94A1.32,1.32,0,0,1,144.57,406.46Z"/><path class="cls-2" d="M146.1,329.33a1.31,1.31,0,0,1-.56-.13,5.6,5.6,0,0,1-.77-.47l-.08,4.64a1.32,1.32,0,0,1,1.32-1.32h1.35l0-2.72Z"/><path class="cls-2" d="M155.89,333.34a1.32,1.32,0,0,0-1.32-1.29H146a1.32,1.32,0,0,0-1.32,1.32h0A1.32,1.32,0,0,0,146,334.7h8.56a1.32,1.32,0,0,0,1.32-1.3v0S155.89,333.35,155.89,333.34Z"/><path class="cls-2" d="M157.63,317.16a2.78,2.78,0,0,1-1.9,2.11,1.37,1.37,0,0,0-1.15,1.1,1.18,1.18,0,0,0,.63,1.27,4.06,4.06,0,0,1,.51,2.39,3.22,3.22,0,0,1-1.59,2.66h-7.68a3.2,3.2,0,0,1-1.59-2.66,4.06,4.06,0,0,1,.51-2.39,1.17,1.17,0,0,0,.62-1.25,1.39,1.39,0,0,0-1.12-1.12,2.78,2.78,0,0,1-1.92-2.12h-1.6a1.31,1.31,0,0,1-1.16-.71c0,.25,0,.48.08.71a5.8,5.8,0,0,0,2.42,4,8.14,8.14,0,0,0-.46,2.89,5.74,5.74,0,0,0,2.55,4.71,5.6,5.6,0,0,0,.77.47,1.31,1.31,0,0,0,.56.13h8.36a1.31,1.31,0,0,0,.56-.13,5.59,5.59,0,0,0,.77-.47,5.74,5.74,0,0,0,2.55-4.71,8.14,8.14,0,0,0-.46-2.89,5.8,5.8,0,0,0,2.42-4Z"/><path class="cls-2" d="M146,406.46h-1.42a1.32,1.32,0,0,0-1.23.86,1.32,1.32,0,0,0,1.23,1.78h11.33a1.32,1.32,0,0,0,0-2.64H146Z"/><path class="cls-2" d="M193.4,170.85a2.64,2.64,0,0,1-1.28.35l.69,46.42h2.64l-.71-47.94A5,5,0,0,1,193.4,170.85Z"/><path class="cls-2" d="M187.26,217.62l.69-46.42a2.64,2.64,0,0,1-1.28-.35,5,5,0,0,1-1.34-1.16l-.71,47.94Z"/><path class="cls-2" d="M186.66,170.85a2.64,2.64,0,0,0,1.28.35h4.17a2.64,2.64,0,0,0,1.28-.35,5,5,0,0,0,1.34-1.16,5.5,5.5,0,0,0,1.24-3.51,8.75,8.75,0,0,0-.08-1.22,5.57,5.57,0,0,0,1-2.37h-2.72a2.14,2.14,0,0,1-1.34,1.51s.51.41.51,2.07a2.81,2.81,0,0,1-1.26,2.38H188a2.81,2.81,0,0,1-1.26-2.38c0-1.66.51-2.07.51-2.07a2.2,2.2,0,0,1-1.4-1.72,1.32,1.32,0,0,1-.61-1.11v-2.59a2.64,2.64,0,0,0-2.16,2.59,6.05,6.05,0,0,0,1.1,3.69,8.75,8.75,0,0,0-.08,1.22,5.5,5.5,0,0,0,1.24,3.51A5,5,0,0,0,186.66,170.85Z"/><path class="cls-2" d="M207.59,170.85a2.64,2.64,0,0,1-1.28.35l.69,46.42h2.64l-.71-47.94A5,5,0,0,1,207.59,170.85Z"/><path class="cls-2" d="M200.86,170.85a5,5,0,0,1-1.34-1.16l-.71,47.94h2.64l.69-46.42A2.65,2.65,0,0,1,200.86,170.85Z"/><path class="cls-2" d="M198.28,166.17a5.5,5.5,0,0,0,1.24,3.51,5,5,0,0,0,1.34,1.16,2.65,2.65,0,0,0,1.28.35h4.17a2.64,2.64,0,0,0,1.28-.35,5,5,0,0,0,1.34-1.16,5.5,5.5,0,0,0,1.24-3.51,8.84,8.84,0,0,0-.08-1.22,5.58,5.58,0,0,0,1-2.37h-2.72A2.14,2.14,0,0,1,207,164.1s.51.41.51,2.07a2.81,2.81,0,0,1-1.26,2.38h-4.09a2.81,2.81,0,0,1-1.26-2.38c0-1.66.51-2.07.51-2.07a2.14,2.14,0,0,1-1.33-1.51h-2.72a5.58,5.58,0,0,0,1,2.37A8.87,8.87,0,0,0,198.28,166.17Z"/><path class="cls-2" d="M221.79,170.85a2.65,2.65,0,0,1-1.28.35l.69,46.42h2.64l-.71-47.94A5,5,0,0,1,221.79,170.85Z"/><path class="cls-2" d="M215.06,170.85a5,5,0,0,1-1.34-1.16L213,217.62h2.64l.69-46.42A2.64,2.64,0,0,1,215.06,170.85Z"/><path class="cls-2" d="M212.48,166.17a5.5,5.5,0,0,0,1.24,3.51,5,5,0,0,0,1.34,1.16,2.64,2.64,0,0,0,1.28.35h4.17a2.65,2.65,0,0,0,1.28-.35,5,5,0,0,0,1.34-1.16,5.5,5.5,0,0,0,1.24-3.51,8.87,8.87,0,0,0-.08-1.22,5.58,5.58,0,0,0,1-2.37h-2.72a2.14,2.14,0,0,1-1.33,1.51s.51.41.51,2.07a2.81,2.81,0,0,1-1.26,2.38h-4.09a2.81,2.81,0,0,1-1.26-2.38c0-1.66.51-2.07.51-2.07a2.14,2.14,0,0,1-1.33-1.51h-2.72a5.59,5.59,0,0,0,1,2.37A8.75,8.75,0,0,0,212.48,166.17Z"/><path class="cls-2" d="M236,170.85a2.64,2.64,0,0,1-1.28.35l.69,46.42H238l-.71-47.94A5,5,0,0,1,236,170.85Z"/><path class="cls-2" d="M229.25,170.85a5,5,0,0,1-1.34-1.16l-.71,47.94h2.64l.69-46.42A2.64,2.64,0,0,1,229.25,170.85Z"/><path class="cls-2" d="M226.68,166.17a5.5,5.5,0,0,0,1.24,3.51,5,5,0,0,0,1.34,1.16,2.64,2.64,0,0,0,1.28.35h4.16a2.65,2.65,0,0,0,1.3-.35,5,5,0,0,0,1.34-1.16,5.51,5.51,0,0,0,1.24-3.51,8.87,8.87,0,0,0-.08-1.22,5.57,5.57,0,0,0,1-2.37h-2.72a2.14,2.14,0,0,1-1.33,1.51s.51.41.51,2.07a2.81,2.81,0,0,1-1.26,2.38h-4.09a2.81,2.81,0,0,1-1.26-2.38c0-1.66.51-2.07.51-2.07a2.14,2.14,0,0,1-1.34-1.51h-2.72a5.57,5.57,0,0,0,1,2.37A8.75,8.75,0,0,0,226.68,166.17Z"/><path class="cls-2" d="M250.19,170.85a2.65,2.65,0,0,1-1.28.35l.69,46.42h2.64l-.71-47.94A5,5,0,0,1,250.19,170.85Z"/><path class="cls-2" d="M243.45,170.85a5,5,0,0,1-1.34-1.16l-.71,47.94H244l.69-46.42A2.65,2.65,0,0,1,243.45,170.85Z"/><path class="cls-2" d="M240.87,166.17a5.5,5.5,0,0,0,1.24,3.51,5,5,0,0,0,1.34,1.16,2.65,2.65,0,0,0,1.28.35h4.15a2.66,2.66,0,0,0,1.3-.35,5,5,0,0,0,1.34-1.16,5.5,5.5,0,0,0,1.24-3.51,8.85,8.85,0,0,0-.08-1.22,5.16,5.16,0,0,0,.32-.49,5.79,5.79,0,0,1-.66-1.87h-1.39a2.14,2.14,0,0,1-1.33,1.51s.51.41.51,2.07a2.81,2.81,0,0,1-1.26,2.38h-4.09a2.81,2.81,0,0,1-1.26-2.38c0-1.66.51-2.07.51-2.07a2.14,2.14,0,0,1-1.34-1.51H240a5.58,5.58,0,0,0,1,2.37A8.85,8.85,0,0,0,240.87,166.17Z"/><path class="cls-2" d="M137.25,303.32v2.83a1.32,1.32,0,0,0,1.32,1.32H140v-1.32a1.32,1.32,0,0,1,1.32-1.32h-1.45v-5.66h-1.32a1.32,1.32,0,0,1-1-.43l-.35-.38v5Z"/><path class="cls-2" d="M366.11,304.83h-1.45a1.32,1.32,0,0,1,1.32,1.32v1.32h1.45a1.32,1.32,0,0,0,1.32-1.32v-7.79l-.35.38a1.32,1.32,0,0,1-1,.43h-1.32Z"/><path class="cls-2" d="M317.82,314.52H306.41a1.32,1.32,0,0,1,1.32,1.32,8,8,0,0,1-.12,1.32h9a8,8,0,0,1-.12-1.32A1.32,1.32,0,0,1,317.82,314.52Z"/><path class="cls-2" d="M259.69,314.52h-117v-7H363.34v7h1.2a1.32,1.32,0,0,1,1.32,1.32c0,.22,0,.41,0,.61a1.3,1.3,0,0,0,.16-.61v-9.69a1.32,1.32,0,0,0-1.32-1.32H141.34a1.32,1.32,0,0,0-1.32,1.32v9.69a1.3,1.3,0,0,0,.16.61,1.31,1.31,0,0,0,1.16.71H258.49a8,8,0,0,1-.12-1.32A1.32,1.32,0,0,1,259.69,314.52Z"/><path class="cls-2" d="M346.89,314.52H335.47a1.32,1.32,0,0,1,1.32,1.32,8,8,0,0,1-.12,1.32h9a8,8,0,0,1-.12-1.32A1.32,1.32,0,0,1,346.89,314.52Z"/><path class="cls-2" d="M288.76,314.52H277.34a1.32,1.32,0,0,1,1.32,1.32,8,8,0,0,1-.12,1.32h9a8,8,0,0,1-.12-1.32A1.32,1.32,0,0,1,288.76,314.52Z"/><path class="cls-2" d="M332.09,248.87H355.5v4.74h1.32a1.32,1.32,0,0,1,1.32,1.32v-7.38a1.32,1.32,0,0,0-1.32-1.32H333.41v1.32A1.32,1.32,0,0,1,332.09,248.87Z"/><path class="cls-2" d="M280,256.26H355.5v10.28h1.32a1.32,1.32,0,0,1,1.32,1.32V254.94a1.32,1.32,0,0,0-1.32-1.32H273Z"/><path class="cls-2" d="M358.14,267.85a1.32,1.32,0,0,0-1.32-1.32H307.45l7.06,2.64h41v15.35l2.64,1V267.85Z"/><path class="cls-2" d="M226,256.26l-27.44,10.28-7.06,2.64-41,15.35-2.64,1L133,291.07a1.32,1.32,0,0,0-.51,2.13l3,3.32,1.68,1.84.35.38a1.32,1.32,0,0,0,1,.43H367.43a1.32,1.32,0,0,0,1-.43l.35-.38,1.68-1.84,3-3.32a1.32,1.32,0,0,0-.51-2.13l-14.83-5.55-2.64-1-41-15.35-7.06-2.64L280,256.26,273,253.61l-12.65-4.74H245.7L233,253.61ZM253,249l117.21,43.9-3.36,3.66H139.15l-3.36-3.66Z"/><path class="cls-2" d="M139.91,292.68a1.32,1.32,0,0,0,.46,2.56H365.64a1.32,1.32,0,0,0,.36-2.59L253.46,250.5a1.32,1.32,0,0,0-.93,0Zm218.42-.08H147.67L253,253.15Z"/><path class="cls-2" d="M173.91,248.87H332.09a1.32,1.32,0,0,0,1.32-1.32V226.26h-2.64v20H175.23v-20h-2.64v21.29A1.32,1.32,0,0,0,173.91,248.87Z"/><path class="cls-2" d="M186.55,152.56h.81L185,148v-2.51H321V148l-2.33,4.54h.81a1.32,1.32,0,0,1,1.32,1.32v.32l2.7-5.25a1.32,1.32,0,0,0,.15-.6V144.2a1.32,1.32,0,0,0-1.32-1.32h-1.63a1.32,1.32,0,0,1-1.21.8H186.55a1.32,1.32,0,0,1-1.21-.8H183.7a1.32,1.32,0,0,0-1.32,1.32v4.15a1.32,1.32,0,0,0,.15.6l2.7,5.25v-.32A1.32,1.32,0,0,1,186.55,152.56Z"/><path class="cls-2" d="M195,135.35s0,.05,0,.08v1.32h4.74v-.46h-.69a1.32,1.32,0,0,1-1.32-1.32v-.86h-2.88c0,.38.09.77.14,1.17C195,135.3,195,135.33,195,135.35Z"/><path class="cls-2" d="M319.49,136.31a1.32,1.32,0,0,1-1,.44h-.38V141h-5v1.32a1.32,1.32,0,0,1-1.32,1.32h7.61a1.32,1.32,0,0,0,1.32-1.32v-6.92a1.32,1.32,0,0,0-1.09-1.3c0,.38.09.75.14,1.15A1.32,1.32,0,0,1,319.49,136.31Z"/><path class="cls-2" d="M306.92,136.29h-1.14v.46h4.74v-1.32a1.32,1.32,0,0,1,.4-.95l.08-.37h-2.77V135A1.32,1.32,0,0,1,306.92,136.29Z"/><path class="cls-2" d="M236.69,142.35V141h-4.74v1.32a1.32,1.32,0,0,1-1.32,1.32H238A1.32,1.32,0,0,1,236.69,142.35Z"/><path class="cls-2" d="M303.14,142.35V141H298.4v1.32a1.32,1.32,0,0,1-1.32,1.32h7.38A1.32,1.32,0,0,1,303.14,142.35Z"/><path class="cls-2" d="M258.84,142.35V141H254.1v1.32a1.32,1.32,0,0,1-1.32,1.32h7.38A1.32,1.32,0,0,1,258.84,142.35Z"/><path class="cls-2" d="M251.45,142.35V141h-4.74v1.32a1.32,1.32,0,0,1-1.32,1.32h7.38A1.32,1.32,0,0,1,251.45,142.35Z"/><path class="cls-2" d="M244.07,142.35V141h-4.74v1.32a1.32,1.32,0,0,1-1.32,1.32h7.38A1.32,1.32,0,0,1,244.07,142.35Z"/><path class="cls-2" d="M281,142.35V141h-4.74v1.32a1.32,1.32,0,0,1-1.32,1.32h7.38A1.32,1.32,0,0,1,281,142.35Z"/><path class="cls-2" d="M273.6,142.35V141h-4.74v1.32a1.32,1.32,0,0,1-1.32,1.32h7.38A1.32,1.32,0,0,1,273.6,142.35Z"/><path class="cls-2" d="M288.37,142.35V141h-4.74v1.32a1.32,1.32,0,0,1-1.32,1.32h7.38A1.32,1.32,0,0,1,288.37,142.35Z"/><path class="cls-2" d="M266.22,142.35V141h-4.74v1.32a1.32,1.32,0,0,1-1.32,1.32h7.38A1.32,1.32,0,0,1,266.22,142.35Z"/><path class="cls-2" d="M295.76,142.35V141H291v1.32a1.32,1.32,0,0,1-1.32,1.32h7.38A1.32,1.32,0,0,1,295.76,142.35Z"/><path class="cls-2" d="M199.77,142.35V141H195v1.32a1.32,1.32,0,0,1-1.32,1.32h7.38A1.32,1.32,0,0,1,199.77,142.35Z"/><path class="cls-2" d="M207.15,142.35V141h-4.74v1.32a1.32,1.32,0,0,1-1.32,1.32h7.38A1.32,1.32,0,0,1,207.15,142.35Z"/><path class="cls-2" d="M186.55,143.67h7.16a1.32,1.32,0,0,1-1.32-1.32V141h-4.52v-4.28h-.61a1.32,1.32,0,0,1-1.28-1.66c.07-.25.14-.57.22-.93a1.32,1.32,0,0,0-1,1.27v6.92a1.32,1.32,0,0,0,1.32,1.32Z"/><path class="cls-2" d="M310.52,142.35V141h-4.74v1.32a1.32,1.32,0,0,1-1.32,1.32h7.38A1.32,1.32,0,0,1,310.52,142.35Z"/><path class="cls-2" d="M221.92,142.35V141h-4.74v1.32a1.32,1.32,0,0,1-1.32,1.32h7.38A1.32,1.32,0,0,1,221.92,142.35Z"/><path class="cls-2" d="M229.3,142.35V141h-4.74v1.32a1.32,1.32,0,0,1-1.32,1.32h7.38A1.32,1.32,0,0,1,229.3,142.35Z"/><path class="cls-2" d="M214.54,142.35V141H209.8v1.32a1.32,1.32,0,0,1-1.32,1.32h7.38A1.32,1.32,0,0,1,214.54,142.35Z"/><path class="cls-2" d="M217.47,136.29h-.29v.46h1.28A1.32,1.32,0,0,1,217.47,136.29Z"/><path class="cls-2" d="M287.31,136.75h1.07v-.46h-.07A1.32,1.32,0,0,1,287.31,136.75Z"/><path class="cls-2" d="M255.5,136.75h3.34v-.46H256.5A1.31,1.31,0,0,1,255.5,136.75Z"/><path class="cls-2" d="M248.05,136.31v0h-1.33v.46H249A1.32,1.32,0,0,1,248.05,136.31Z"/><path class="cls-2" d="M224.91,136.75h4.4v-.46h-3.4A1.31,1.31,0,0,1,224.91,136.75Z"/><path class="cls-2" d="M240.51,136.75h3.56v-.46H241.5A1.31,1.31,0,0,1,240.51,136.75Z"/><path class="cls-2" d="M233.11,136.35l0-.06h-1.12v.46h2.11A1.32,1.32,0,0,1,233.11,136.35Z"/><path class="cls-2" d="M210.26,136.34a1.33,1.33,0,0,1-.47.31v.1h4.74v-.46H210.3Z"/><path class="cls-2" d="M264.26,136.29h-2.78v.46h3.78A1.32,1.32,0,0,1,264.26,136.29Z"/><path class="cls-2" d="M295.46,136.29H291v.46h4.74v-.21A1.32,1.32,0,0,1,295.46,136.29Z"/><path class="cls-2" d="M303.14,136.75v0l-.23,0Z"/><path class="cls-2" d="M202.41,136.66v.09h.45A1.3,1.3,0,0,1,202.41,136.66Z"/><path class="cls-2" d="M272.69,136.31a1.32,1.32,0,0,1-1,.44h1.9v-.46h-.9Z"/><path class="cls-2" d="M279.86,136.29h-3.62v.46h4.61A1.32,1.32,0,0,1,279.86,136.29Z"/><path class="cls-2" d="M306.92,112.3H305.6v21.35H304l.06.52a1.3,1.3,0,0,1,1.7,1.26v.86h1.14a1.32,1.32,0,0,0,1.32-1.32V111s0,0,0,0a1.32,1.32,0,0,1-1.32,1.35Z"/><path class="cls-2" d="M199.08,136.29h.69v-.86a1.31,1.31,0,0,1,2.14-1c.09-.19.2-.45.32-.75H200.4V112.3H253a1.32,1.32,0,0,1-1.32-1.32v-1.32h-52.6a1.32,1.32,0,0,0-1.32,1.29s0,0,0,0v24A1.32,1.32,0,0,0,199.08,136.29Z"/><path class="cls-2" d="M217.5,133.65h-7c0,.56.06,1.13.08,1.72a1.31,1.31,0,0,1-.32.92h4.23v-.86a1.32,1.32,0,0,1,2.62-.19,1.43,1.43,0,0,1,0-.15C217.28,134.73,217.39,134.23,217.5,133.65Z"/><path class="cls-2" d="M264.21,136.24a1.32,1.32,0,0,1-.23-1.14c.1-.36.21-.86.32-1.45h-7.86c.09.5.19.93.28,1.27a1.33,1.33,0,0,1,.1.51,1.31,1.31,0,0,1-.33.86h2.34v-.86a1.32,1.32,0,1,1,2.64,0v.86h2.78Z"/><path class="cls-2" d="M279.81,136.24a1.32,1.32,0,0,1-.23-1.14c.1-.36.21-.86.32-1.45h-7.08c.07.53.13,1.07.2,1.63a1.31,1.31,0,0,1-.31,1h.9v-.86a1.32,1.32,0,1,1,2.64,0v.86h3.62Z"/><path class="cls-2" d="M288.37,136.29v-.08l-.07.08Z"/><path class="cls-2" d="M247.73,135.28c.07-.56.13-1.1.2-1.63h-6c0,.63-.07,1.25-.1,1.86a1.31,1.31,0,0,1-.32.78h2.57v-.86a1.32,1.32,0,1,1,2.64,0v.86H248A1.32,1.32,0,0,1,247.73,135.28Z"/><path class="cls-2" d="M232.74,135.38s0-.7,0-1.74h-6.58c0,.79,0,1.42,0,1.78a1.31,1.31,0,0,1-.33.86h3.4v-.86a1.32,1.32,0,1,1,2.64,0v.86h1.12A1.32,1.32,0,0,1,232.74,135.38Z"/><path class="cls-2" d="M295.17,135.71c0-.1-.19-.9-.36-2.07h-6.12c0,.33,0,.65,0,1a1.32,1.32,0,0,1,2.36.81v.86h4.44A1.32,1.32,0,0,1,295.17,135.71Z"/><path class="cls-2" d="M217.41,136.24a1.31,1.31,0,0,1-.23-.5v.55h.29Z"/><path class="cls-2" d="M270,62.75c13.23,1.55,23.15,9.53,29.52,23.78a78.38,78.38,0,0,1,6,23.12h-11c0,.43,0,.85.05,1.28a1.32,1.32,0,0,1-1.28,1.36h13.69a1.32,1.32,0,0,0,1.32-1.35s0,0,0,0a79.11,79.11,0,0,0-6.29-25.39c-7.49-16.81-20.24-25.7-36.87-25.7h-.94v.33A33.2,33.2,0,0,1,270,62.75Z"/><path class="cls-2" d="M291.87,111c0-.46,0-.91-.05-1.36h-16c0,.36,0,.72,0,1.09a1.32,1.32,0,1,1-2.64,0c0-.37,0-.73,0-1.09H254.32V62.46h-2.64V111A1.32,1.32,0,0,0,253,112.3h40.19A1.32,1.32,0,0,1,291.87,111Z"/><path class="cls-2" d="M241.87,61.14a1.33,1.33,0,0,0,1.32,1.32h15.73a1.32,1.32,0,1,1,.19-2.64,6.8,6.8,0,0,1,2.47.84,1.32,1.32,0,0,1,1.53-.8c.06,0,.42.1,1,.29V42.8l0,.11a1.32,1.32,0,0,1-1.3,1.09h-1.32V59.82h-17V44h-1.32a1.32,1.32,0,0,1-1.3-1.09l0-.11V61.14Z"/><path class="cls-2" d="M243.19,44h19.62a1.32,1.32,0,0,0,1.3-1.09l0-.11,1.11-6.35s0-.06,0-.09a1.32,1.32,0,0,1-1.31,1.19h-1.57l-.67,3.82H244.3l-.67-3.82h-1.57a1.32,1.32,0,0,1-1.31-1.19s0,.06,0,.09l1.11,6.35,0,.11A1.32,1.32,0,0,0,243.19,44Z"/><path class="cls-2" d="M242.06,37.55h21.88a1.32,1.32,0,0,0,1.31-1.19,1.29,1.29,0,0,0,0-.14s0,0,0-.06h0c0-10.7-5-13.9-8.51-14.81a4.77,4.77,0,0,1-7.51,0c-3.53.92-8.49,4.11-8.51,14.82h0s0,0,0,.06a1.27,1.27,0,0,0,0,.14A1.32,1.32,0,0,0,242.06,37.55Zm10.72-13.86a1.37,1.37,0,0,0,.43,0,5.9,5.9,0,0,1,.83,0c2.48,0,8.1,1.13,8.55,11.27H243.41c.45-10.14,6.07-11.27,8.55-11.27A6,6,0,0,1,252.78,23.69Z"/><path class="cls-2" d="M265,63.28c6.72,2.75,25,13.15,26.81,45.36,0,.34,0,.68.05,1s0,.9.05,1.36a1.32,1.32,0,0,0,1.32,1.28h0a1.32,1.32,0,0,0,1.28-1.36c0-.43,0-.86-.05-1.28-.93-21.81-9.18-34.13-16-40.64A41.59,41.59,0,0,0,270,62.75a33.2,33.2,0,0,0-5.85-2.6c-.59-.19-1-.28-1-.29a1.32,1.32,0,0,0-1.53.8A13.38,13.38,0,0,1,265,63.28Z"/><path class="cls-2" d="M273.12,106.36c0,1.07,0,2.17,0,3.29,0,.36,0,.72,0,1.09a1.32,1.32,0,1,0,2.64,0c0-.37,0-.73,0-1.09-.08-16-1.87-26.81-4.26-34.19-2-6.18-4.41-9.92-6.58-12.19a13.38,13.38,0,0,0-3.37-2.62,6.8,6.8,0,0,0-2.47-.84,1.32,1.32,0,1,0-.2,2.64h0a3.33,3.33,0,0,1,.54.16C262,63.54,272.35,69.6,273.12,106.36Z"/><path class="cls-2" d="M272.7,329.33h-1.3l0,2.72h1.35a1.32,1.32,0,1,1,0,2.64h-1.3l1.3,71.76h1.42a1.32,1.32,0,0,1,1.23.86L274,328.74a5.63,5.63,0,0,1-.77.47A1.31,1.31,0,0,1,272.7,329.33Z"/><path class="cls-2" d="M275.55,412.08l0-1.3,0-2.6a1.32,1.32,0,0,1-1.25.91h-1.38l0,1.68h-8.73l0-1.68h-1.29a1.32,1.32,0,0,1,0-2.64h1.34l1.3-71.76h-1.3a1.32,1.32,0,0,1-1.32-1.3l-1.41,77.38,0,1.3a1.32,1.32,0,0,0,1.32,1.35h11.42a1.32,1.32,0,0,0,1.32-1.35Z"/><path class="cls-2" d="M264.33,329.33a1.31,1.31,0,0,1-.56-.13,5.59,5.59,0,0,1-.77-.47l-.08,4.6a1.32,1.32,0,0,1,1.32-1.29h1.35l0-2.72Z"/><path class="cls-2" d="M272.8,334.7a1.32,1.32,0,1,0,0-2.64h-8.56a1.32,1.32,0,0,0-1.32,1.29s0,0,0,0v0a1.32,1.32,0,0,0,1.32,1.3h8.56Z"/><path class="cls-2" d="M277.34,314.52H259.69a1.32,1.32,0,0,0-1.32,1.32,8,8,0,0,0,.12,1.32,5.8,5.8,0,0,0,2.42,4,8.14,8.14,0,0,0-.46,2.89,5.74,5.74,0,0,0,2.55,4.71,5.59,5.59,0,0,0,.77.47,1.31,1.31,0,0,0,.56.13h8.36a1.31,1.31,0,0,0,.56-.13,5.63,5.63,0,0,0,.77-.47,5.74,5.74,0,0,0,2.55-4.71,8.14,8.14,0,0,0-.46-2.89,5.8,5.8,0,0,0,2.42-4,8,8,0,0,0,.12-1.32A1.32,1.32,0,0,0,277.34,314.52ZM274,319.28a1.37,1.37,0,0,0-1.15,1.1,1.18,1.18,0,0,0,.63,1.27,4.06,4.06,0,0,1,.51,2.39,3.22,3.22,0,0,1-1.59,2.66h-7.68a3.21,3.21,0,0,1-1.59-2.66,4.06,4.06,0,0,1,.51-2.39,1.17,1.17,0,0,0,.62-1.25,1.39,1.39,0,0,0-1.12-1.12,2.78,2.78,0,0,1-1.92-2.12h14.69A2.78,2.78,0,0,1,274,319.28Z"/><path class="cls-2" d="M275.46,407.32a1.32,1.32,0,0,0-1.23-.86H262.89a1.32,1.32,0,0,0,0,2.64h11.33a1.32,1.32,0,0,0,1.25-.91,1.23,1.23,0,0,0,0-.87Z"/><path class="cls-2" d="M301.76,329.33h-1.3l0,2.72h1.35a1.32,1.32,0,0,1,1.32,1.32l-.08-4.64a5.6,5.6,0,0,1-.77.47A1.31,1.31,0,0,1,301.76,329.33Z"/><path class="cls-2" d="M301.86,334.7h-1.3l1.3,71.76h1.42a1.32,1.32,0,0,1,1.23.86l-1.34-73.94A1.32,1.32,0,0,1,301.86,334.7Z"/><path class="cls-2" d="M304.61,412.08l0-1.3,0-2.6a1.32,1.32,0,0,1-1.25.91h-1.38l0,1.68h-8.73l0-1.68H292a1.32,1.32,0,1,1,0-2.64h1.34l1.3-71.76h-1.3a1.32,1.32,0,0,1-1.32-1.3l-1.41,77.38,0,1.3a1.32,1.32,0,0,0,1.32,1.35h11.42a1.32,1.32,0,0,0,1.32-1.35Z"/><path class="cls-2" d="M293.4,329.33a1.31,1.31,0,0,1-.56-.13,5.6,5.6,0,0,1-.77-.47l-.08,4.6a1.32,1.32,0,0,1,1.32-1.29h1.35l0-2.72Z"/><path class="cls-2" d="M301.86,334.7a1.32,1.32,0,0,0,1.32-1.32h0a1.32,1.32,0,0,0-1.32-1.32H293.3a1.32,1.32,0,0,0-1.32,1.29s0,0,0,0v0a1.32,1.32,0,0,0,1.32,1.3h8.56Z"/><path class="cls-2" d="M306.41,314.52H288.76a1.32,1.32,0,0,0-1.32,1.32,8,8,0,0,0,.12,1.32,5.8,5.8,0,0,0,2.42,4,8.14,8.14,0,0,0-.46,2.89,5.74,5.74,0,0,0,2.55,4.71,5.6,5.6,0,0,0,.77.47,1.31,1.31,0,0,0,.56.13h8.36a1.31,1.31,0,0,0,.56-.13,5.6,5.6,0,0,0,.77-.47,5.74,5.74,0,0,0,2.55-4.71,8.14,8.14,0,0,0-.46-2.89,5.8,5.8,0,0,0,2.42-4,8,8,0,0,0,.12-1.32A1.32,1.32,0,0,0,306.41,314.52ZM303,319.28a1.37,1.37,0,0,0-1.15,1.1,1.18,1.18,0,0,0,.63,1.27A4.06,4.06,0,0,1,303,324a3.22,3.22,0,0,1-1.59,2.66h-7.68a3.21,3.21,0,0,1-1.59-2.66,4.06,4.06,0,0,1,.51-2.39,1.17,1.17,0,0,0,.62-1.25,1.39,1.39,0,0,0-1.12-1.12,2.78,2.78,0,0,1-1.92-2.12h14.69A2.78,2.78,0,0,1,303,319.28Z"/><path class="cls-2" d="M304.53,407.32a1.32,1.32,0,0,0-1.23-.86H292a1.32,1.32,0,1,0,0,2.64h11.33a1.31,1.31,0,0,0,1.23-1.78Z"/><path class="cls-2" d="M330.83,329.33h-1.3l0,2.72h1.35a1.32,1.32,0,0,1,1.32,1.32l-.08-4.64a5.59,5.59,0,0,1-.77.47A1.31,1.31,0,0,1,330.83,329.33Z"/><path class="cls-2" d="M330.93,334.7h-1.3l1.3,71.76h1.42a1.32,1.32,0,0,1,1.23.86l-1.34-73.94A1.32,1.32,0,0,1,330.93,334.7Z"/><path class="cls-2" d="M333.68,412.08l0-1.3,0-2.6a1.32,1.32,0,0,1-1.25.91H331l0,1.68h-8.73l0-1.68H321a1.32,1.32,0,1,1,0-2.64h1.34l1.3-71.76h-1.3a1.32,1.32,0,0,1-1.32-1.3l-1.41,77.38,0,1.3a1.32,1.32,0,0,0,1.32,1.35h11.42a1.32,1.32,0,0,0,1.32-1.35Z"/><path class="cls-2" d="M322.47,329.33a1.31,1.31,0,0,1-.56-.13,5.6,5.6,0,0,1-.77-.47l-.08,4.6a1.32,1.32,0,0,1,1.32-1.29h1.35l0-2.72Z"/><path class="cls-2" d="M330.93,334.7a1.32,1.32,0,0,0,1.32-1.32h0a1.32,1.32,0,0,0-1.32-1.32h-8.56a1.32,1.32,0,0,0-1.32,1.29s0,0,0,0v0a1.32,1.32,0,0,0,1.32,1.3h8.56Z"/><path class="cls-2" d="M335.47,314.52H317.82a1.32,1.32,0,0,0-1.32,1.32,8,8,0,0,0,.12,1.32,5.8,5.8,0,0,0,2.42,4,8.14,8.14,0,0,0-.46,2.89,5.74,5.74,0,0,0,2.55,4.71,5.6,5.6,0,0,0,.77.47,1.31,1.31,0,0,0,.56.13h8.36a1.31,1.31,0,0,0,.56-.13,5.59,5.59,0,0,0,.77-.47,5.74,5.74,0,0,0,2.55-4.71,8.14,8.14,0,0,0-.46-2.89,5.8,5.8,0,0,0,2.42-4,8,8,0,0,0,.12-1.32A1.32,1.32,0,0,0,335.47,314.52Zm-3.38,4.76a1.37,1.37,0,0,0-1.15,1.1,1.18,1.18,0,0,0,.63,1.27,4.06,4.06,0,0,1,.51,2.39,3.22,3.22,0,0,1-1.59,2.66h-7.68a3.2,3.2,0,0,1-1.59-2.66,4.06,4.06,0,0,1,.51-2.39,1.17,1.17,0,0,0,.62-1.25,1.39,1.39,0,0,0-1.12-1.12,2.78,2.78,0,0,1-1.92-2.12H334A2.78,2.78,0,0,1,332.1,319.28Z"/><path class="cls-2" d="M333.59,407.32a1.32,1.32,0,0,0-1.23-.86H321a1.32,1.32,0,1,0,0,2.64h11.33a1.31,1.31,0,0,0,1.23-1.78Z"/><path class="cls-2" d="M360,334.7h-1.3l1.3,71.76h1.42a1.32,1.32,0,0,1,1.23.86l-1.34-73.94A1.32,1.32,0,0,1,360,334.7Z"/><path class="cls-2" d="M359.9,329.33h-1.3l0,2.72H360a1.32,1.32,0,0,1,1.32,1.32l-.08-4.64a5.59,5.59,0,0,1-.77.47A1.31,1.31,0,0,1,359.9,329.33Z"/><path class="cls-2" d="M362.75,412.08l0-1.3,0-2.6a1.32,1.32,0,0,1-1.25.91H360l0,1.68h-8.73l0-1.68h-1.29a1.32,1.32,0,0,1,0-2.64h1.34l1.3-71.76h-1.3a1.32,1.32,0,0,1-1.32-1.3l-1.41,77.38,0,1.3a1.32,1.32,0,0,0,1.32,1.35h11.42a1.32,1.32,0,0,0,1.32-1.35Z"/><path class="cls-2" d="M351.53,329.33a1.31,1.31,0,0,1-.56-.13,5.6,5.6,0,0,1-.77-.47l-.08,4.6a1.32,1.32,0,0,1,1.32-1.29h1.35l0-2.72Z"/><path class="cls-2" d="M358.7,334.7H360a1.32,1.32,0,0,0,1.32-1.32h0a1.32,1.32,0,0,0-1.32-1.32h-8.56a1.32,1.32,0,0,0-1.32,1.29s0,0,0,0v0a1.32,1.32,0,0,0,1.32,1.3h7.26Z"/><path class="cls-2" d="M365.86,315.84a1.32,1.32,0,0,0-1.32-1.32H346.89a1.32,1.32,0,0,0-1.32,1.32,8,8,0,0,0,.12,1.32,5.8,5.8,0,0,0,2.42,4,8.14,8.14,0,0,0-.46,2.89,5.74,5.74,0,0,0,2.55,4.71,5.6,5.6,0,0,0,.77.47,1.31,1.31,0,0,0,.56.13h8.36a1.31,1.31,0,0,0,.56-.13,5.59,5.59,0,0,0,.77-.47,5.74,5.74,0,0,0,2.55-4.71,8.14,8.14,0,0,0-.46-2.89,5.8,5.8,0,0,0,2.42-4c0-.23.06-.46.08-.71S365.86,316.06,365.86,315.84Zm-4.7,3.43a1.37,1.37,0,0,0-1.15,1.1,1.18,1.18,0,0,0,.63,1.27,4.06,4.06,0,0,1,.51,2.39,3.22,3.22,0,0,1-1.59,2.66h-7.68a3.2,3.2,0,0,1-1.59-2.66,4.06,4.06,0,0,1,.51-2.39,1.17,1.17,0,0,0,.62-1.25,1.39,1.39,0,0,0-1.12-1.12,2.78,2.78,0,0,1-1.92-2.12h14.69A2.78,2.78,0,0,1,361.16,319.28Z"/><path class="cls-2" d="M362.66,407.32a1.32,1.32,0,0,0-1.23-.86H350.09a1.32,1.32,0,0,0,0,2.64h11.33a1.31,1.31,0,0,0,1.23-1.78Z"/><path class="cls-2" d="M319.34,170.85a2.64,2.64,0,0,1-1.28.35l.69,46.42h2.64l-.71-47.94A5,5,0,0,1,319.34,170.85Z"/><path class="cls-2" d="M312.6,170.85a5,5,0,0,1-1.34-1.16l-.71,47.94h2.64l.69-46.42A2.65,2.65,0,0,1,312.6,170.85Z"/><path class="cls-2" d="M320.77,161.27a1.32,1.32,0,0,1-.61,1.11,2.2,2.2,0,0,1-1.4,1.72s.51.41.51,2.07a2.81,2.81,0,0,1-1.26,2.38h-4.09a2.81,2.81,0,0,1-1.26-2.38c0-1.66.51-2.07.51-2.07a2.14,2.14,0,0,1-1.34-1.51h-2.72a5.58,5.58,0,0,0,1,2.37,8.74,8.74,0,0,0-.08,1.22,5.5,5.5,0,0,0,1.24,3.51,5,5,0,0,0,1.34,1.16,2.65,2.65,0,0,0,1.28.35H318a2.65,2.65,0,0,0,1.3-.35,5,5,0,0,0,1.34-1.16,5.5,5.5,0,0,0,1.24-3.51,8.75,8.75,0,0,0-.08-1.22,6.06,6.06,0,0,0,1.1-3.69,2.64,2.64,0,0,0-2.16-2.59Z"/><path class="cls-2" d="M305.14,170.85a2.65,2.65,0,0,1-1.28.35l.69,46.42h2.64l-.71-47.94A5,5,0,0,1,305.14,170.85Z"/><path class="cls-2" d="M298.41,170.85a5,5,0,0,1-1.34-1.16l-.71,47.94H299l.69-46.42A2.65,2.65,0,0,1,298.41,170.85Z"/><path class="cls-2" d="M295.83,166.17a5.5,5.5,0,0,0,1.24,3.51,5,5,0,0,0,1.34,1.16,2.65,2.65,0,0,0,1.28.35h4.15a2.66,2.66,0,0,0,1.3-.35,5,5,0,0,0,1.34-1.16,5.5,5.5,0,0,0,1.24-3.51,8.75,8.75,0,0,0-.08-1.22,5.59,5.59,0,0,0,1-2.37H305.9a2.14,2.14,0,0,1-1.34,1.51s.51.41.51,2.07a2.81,2.81,0,0,1-1.26,2.38h-4.09a2.81,2.81,0,0,1-1.26-2.38c0-1.66.51-2.07.51-2.07a2.14,2.14,0,0,1-1.33-1.51h-2.72a5.58,5.58,0,0,0,1,2.37A8.86,8.86,0,0,0,295.83,166.17Z"/><path class="cls-2" d="M290.94,170.85a2.65,2.65,0,0,1-1.28.35l.69,46.42H293l-.71-47.94A5,5,0,0,1,290.94,170.85Z"/><path class="cls-2" d="M284.21,170.85a5,5,0,0,1-1.34-1.16l-.71,47.94h2.64l.69-46.42A2.65,2.65,0,0,1,284.21,170.85Z"/><path class="cls-2" d="M281.63,166.17a5.5,5.5,0,0,0,1.24,3.51,5,5,0,0,0,1.34,1.16,2.65,2.65,0,0,0,1.28.35h4.15a2.66,2.66,0,0,0,1.3-.35,5,5,0,0,0,1.34-1.16,5.5,5.5,0,0,0,1.24-3.51,8.87,8.87,0,0,0-.08-1.22,5.58,5.58,0,0,0,1-2.37H291.7a2.14,2.14,0,0,1-1.33,1.51s.51.41.51,2.07a2.81,2.81,0,0,1-1.26,2.38h-4.09a2.81,2.81,0,0,1-1.26-2.38c0-1.66.51-2.07.51-2.07a2.14,2.14,0,0,1-1.33-1.51h-2.72a5.58,5.58,0,0,0,1,2.37A8.86,8.86,0,0,0,281.63,166.17Z"/><path class="cls-2" d="M276.75,170.85a2.64,2.64,0,0,1-1.28.35l.69,46.42h2.64l-.71-47.94A5,5,0,0,1,276.75,170.85Z"/><path class="cls-2" d="M270,170.85a5,5,0,0,1-1.34-1.16L268,217.62h2.64l.69-46.42A2.64,2.64,0,0,1,270,170.85Z"/><path class="cls-2" d="M267.43,166.17a5.5,5.5,0,0,0,1.24,3.51,5,5,0,0,0,1.34,1.16,2.64,2.64,0,0,0,1.28.35h4.17a2.64,2.64,0,0,0,1.28-.35,5,5,0,0,0,1.34-1.16,5.5,5.5,0,0,0,1.24-3.51,8.75,8.75,0,0,0-.08-1.22,5.57,5.57,0,0,0,1-2.37h-2.72a2.14,2.14,0,0,1-1.34,1.51s.51.41.51,2.07a2.81,2.81,0,0,1-1.26,2.38h-4.09a2.81,2.81,0,0,1-1.26-2.38c0-1.66.51-2.07.51-2.07a2.14,2.14,0,0,1-1.33-1.51h-2.72a5.59,5.59,0,0,0,1,2.37A8.75,8.75,0,0,0,267.43,166.17Z"/><path class="cls-2" d="M262.55,170.85a2.65,2.65,0,0,1-1.28.35l.69,46.42h2.64l-.71-47.94A5,5,0,0,1,262.55,170.85Z"/><path class="cls-2" d="M255.81,170.85a5,5,0,0,1-1.34-1.16l-.71,47.94h2.64l.69-46.42A2.65,2.65,0,0,1,255.81,170.85Z"/><path class="cls-2" d="M253.32,165a8.85,8.85,0,0,0-.08,1.22,5.5,5.5,0,0,0,1.24,3.51,5,5,0,0,0,1.34,1.16,2.65,2.65,0,0,0,1.28.35h4.17a2.65,2.65,0,0,0,1.28-.35,5,5,0,0,0,1.34-1.16,5.5,5.5,0,0,0,1.24-3.51A8.87,8.87,0,0,0,265,165a5.58,5.58,0,0,0,1-2.37h-2.72A2.14,2.14,0,0,1,262,164.1s.51.41.51,2.07a2.81,2.81,0,0,1-1.26,2.38h-4.09a2.81,2.81,0,0,1-1.26-2.38c0-1.66.51-2.07.51-2.07a2.14,2.14,0,0,1-1.33-1.51h-2.72a5.79,5.79,0,0,0,.66,1.87A5.16,5.16,0,0,0,253.32,165Z"/><path class="cls-2" d="M253,23.17a4.78,4.78,0,0,0,1.32-9.38v1.13A1.32,1.32,0,0,1,253,16.25a2.14,2.14,0,1,1-2.14,2.14A2.14,2.14,0,0,1,253,16.25a1.32,1.32,0,0,1-1.32-1.32V13.8A4.78,4.78,0,0,0,253,23.17Z"/><path class="cls-2" d="M253,16.25a1.32,1.32,0,0,0,1.32-1.32V1.9a1.32,1.32,0,0,0-2.64,0v13A1.32,1.32,0,0,0,253,16.25Z"/><path class="cls-2" d="M175.23,226.26H337.74a1.32,1.32,0,0,0,1.32-1.32v-6a1.32,1.32,0,0,0-1.32-1.32H168.26a1.32,1.32,0,0,0-1.32,1.32v6a1.32,1.32,0,0,0,1.32,1.32h7Zm-5.65-6H336.42v3.36H169.58Z"/><path class="cls-2" d="M185.23,161.27a1.33,1.33,0,0,0,1.32,1.32h132.9a1.33,1.33,0,0,0,1.32-1.32v-7.38a1.32,1.32,0,0,0-1.32-1.32H186.55a1.32,1.32,0,0,0-1.32,1.32v7.38Zm132.9-6.06v4.74H187.87v-4.74Z"/><path class="cls-2" d="M186.21,136.24a1.32,1.32,0,0,0,1,.52h5.13v-1.32a1.32,1.32,0,0,1,2.63-.08s0,0,0-.07c0-.4-.09-.79-.14-1.17-1.9-15.42-4.14-15.43-5.11-15.43a2,2,0,0,0-1.7,1,2.87,2.87,0,0,1-.83.63c-1.56,1-2.78,2.26-1.15,5.35,1.12,2.12.58,6.25.11,8.5-.08.36-.15.68-.22.93A1.32,1.32,0,0,0,186.21,136.24Zm2.22-11.81c-.7-1.31-.65-1.35.19-1.86a6.71,6.71,0,0,0,1.06-.75c.84,1.93,1.88,7.27,2.53,12.29h-3.3C189.38,131.68,189.92,127.24,188.43,124.43Z"/><path class="cls-2" d="M202.41,135.43v1.23a1.3,1.3,0,0,0,.45.09h4.29v-1.32a1.32,1.32,0,1,1,2.64,0v1.22a1.33,1.33,0,0,0,.47-.31l0-.05a1.31,1.31,0,0,0,.32-.92c0-.6-.05-1.17-.08-1.72-.82-15.39-2.81-15.39-3.9-15.39a2,2,0,0,0-1.66,1c-.15.22-.41.52-.67.83-1.33,1.56-3.82,4.45-1.9,8.07,1,1.84.35,4.15-.18,5.5-.12.3-.23.56-.32.75A1.31,1.31,0,0,1,202.41,135.43Zm2.46-1.32c.64-1.85,1.19-4.69-.14-7.2-1-1.88.07-3.36,1.57-5.11l.13-.15a76.15,76.15,0,0,1,1.48,12.46Z"/><path class="cls-2" d="M225.9,136.29a1.31,1.31,0,0,0,.33-.86c0-.37,0-1,0-1.78-.08-3.86-.48-11.8-2.4-14.43a2.33,2.33,0,0,0-1.95-.92,5.76,5.76,0,0,0-4.42,2.79,4.49,4.49,0,0,0-.15,4.57c1,2,.65,5.66.21,8-.11.58-.22,1.09-.32,1.45a1.43,1.43,0,0,0,0,.15,1.32,1.32,0,0,1,0,.19v.31a1.31,1.31,0,0,0,.23.5l.05.05a1.32,1.32,0,0,0,1,.46h3.46v-1.32a1.32,1.32,0,0,1,1.32-1.32h-3.13c.47-2.43,1-6.86-.48-9.68a1.87,1.87,0,0,1,.08-2,3.34,3.34,0,0,1,2.08-1.51c1.19,2,1.7,8.58,1.79,13.16h-.33a1.32,1.32,0,0,1,1.32,1.32v1.32h.34A1.31,1.31,0,0,0,225.9,136.29Z"/><path class="cls-2" d="M241.5,136.29a1.31,1.31,0,0,0,.32-.78c0-.61.07-1.23.1-1.86.33-6.54.37-13.83-1-15.23a1.64,1.64,0,0,0-1.2-.53,1.89,1.89,0,0,0-1.57.94,4.18,4.18,0,0,1-1,.26c-1.67.32-4.79.91-4.48,6,.15,2.58.1,6.34,0,8.52,0,1,0,1.71,0,1.74a1.32,1.32,0,0,0,.32.91l0,.06a1.32,1.32,0,0,0,1,.4h2.63v-1.32a1.32,1.32,0,0,1,1.32-1.32h-2.59c.06-2.13.13-6.27,0-9.14s.78-3,2.34-3.3a6.9,6.9,0,0,0,1.52-.41,94.08,94.08,0,0,1,0,12.85H238a1.32,1.32,0,0,1,1.32,1.32v1.32h1.18A1.31,1.31,0,0,0,241.5,136.29Z"/><path class="cls-2" d="M255.5,136.75a1.34,1.34,0,0,0,1.32-1.32,1.33,1.33,0,0,0-.1-.51c-.09-.34-.18-.78-.28-1.27-.44-2.32-.83-6,.21-8,1.63-3.09.41-4.4-1.15-5.35a2.87,2.87,0,0,1-.83-.63,2,2,0,0,0-1.7-1c-1,0-3.16,0-5.05,15-.07.53-.13,1.07-.2,1.63a1.32,1.32,0,0,0,.31,1v0a1.32,1.32,0,0,0,1,.44h2.42v-1.32a1.32,1.32,0,0,1,1.32-1.32h-2.24c.65-5,1.69-10.36,2.53-12.29a6.82,6.82,0,0,0,1.06.75c.84.51.89.54.19,1.86-1.49,2.82-.95,7.25-.48,9.68h-1.06a1.32,1.32,0,0,1,1.32,1.32v1.32h1.4Z"/><path class="cls-2" d="M272.69,136.31v0a1.31,1.31,0,0,0,.31-1c-.07-.56-.13-1.1-.2-1.63-1.89-15-4.09-15-5.05-15a2,2,0,0,0-1.7,1,2.87,2.87,0,0,1-.83.63c-1.56,1-2.78,2.26-1.15,5.35,1,2,.65,5.66.21,8-.11.58-.22,1.09-.32,1.45a1.32,1.32,0,0,0,.23,1.14l.05.05a1.32,1.32,0,0,0,1,.46h1v-1.32a1.32,1.32,0,0,1,1.32-1.32h-.63c.47-2.43,1-6.86-.48-9.68-.7-1.31-.65-1.35.19-1.86a6.72,6.72,0,0,0,1.06-.75c.84,1.93,1.88,7.27,2.53,12.29h-2.67a1.32,1.32,0,0,1,1.32,1.32v1.32h2.84A1.32,1.32,0,0,0,272.69,136.31Z"/><path class="cls-2" d="M288.69,133.65c.16-5.87,0-12.38-1.31-13.76a1.68,1.68,0,0,0-1.21-.53,2,2,0,0,0-1.62,1,5.89,5.89,0,0,1-1.58.47c-1.38.29-2.93.63-3.56,2a3.17,3.17,0,0,0,.29,2.89c1,2,.65,5.66.21,8-.11.58-.22,1.09-.32,1.45a1.32,1.32,0,0,0,.23,1.14l.05.05a1.32,1.32,0,0,0,1,.46H281v-1.32a1.32,1.32,0,1,1,2.64,0v1.32h3.67a1.32,1.32,0,0,0,1-.46l.07-.08v-.78a1.31,1.31,0,0,1,.29-.81C288.67,134.3,288.68,134,288.69,133.65Zm-6.18.46c.47-2.43,1-6.86-.48-9.68a1.88,1.88,0,0,1-.21-.54,6.72,6.72,0,0,1,1.7-.51,8.54,8.54,0,0,0,2.19-.67,77.76,77.76,0,0,1,.32,11.39Z"/><path class="cls-2" d="M299,118.68a2,2,0,0,0-1.7,1,4,4,0,0,0-.81,1.54,27.69,27.69,0,0,1-1.22,3.33c-1.1,2.67-.78,6.68-.43,9.1.17,1.17.34,2,.36,2.07a1.31,1.31,0,0,0,.59.83v-1.11a1.32,1.32,0,1,1,2.64,0v1.32h4.51l.23,0v-1.3a1.32,1.32,0,0,1,.95-1.26l-.06-.52C302.13,118.68,299.93,118.68,299,118.68Zm-1.42,15.43c-.38-2.27-.79-6.32.13-8.56A31.7,31.7,0,0,0,299,122c.82,2.09,1.81,7.23,2.44,12.07Z"/><path class="cls-2" d="M311.84,134.11a1.32,1.32,0,0,1,1.32,1.32v1.32h5.34a1.32,1.32,0,0,0,1.31-1.47c0-.39-.09-.77-.14-1.15-1.9-15.45-4.14-15.45-5.11-15.45a2,2,0,0,0-1.7,1,2.87,2.87,0,0,1-.83.63c-1.56,1-2.78,2.26-1.15,5.35,1.11,2.1.59,6.18.12,8.44l-.08.37A1.32,1.32,0,0,1,311.84,134.11Zm1.38-9.68c-.7-1.31-.65-1.35.19-1.86a6.71,6.71,0,0,0,1.06-.75c.84,1.93,1.88,7.27,2.53,12.29h-3.3C314.17,131.68,314.72,127.24,313.23,124.43Z"/><path class="cls-2" d="M195,142.35v-6.92s0-.05,0-.08a1.32,1.32,0,0,0-2.63.08v6.92a1.32,1.32,0,0,0,2.64,0Z"/><path class="cls-2" d="M202.41,142.35v-6.92a1.32,1.32,0,1,0-2.64,0v6.92a1.32,1.32,0,0,0,2.64,0Z"/><path class="cls-2" d="M209.8,142.35v-6.92a1.32,1.32,0,1,0-2.64,0v6.92a1.32,1.32,0,0,0,2.64,0Z"/><path class="cls-2" d="M217.18,142.35v-6.92a1.32,1.32,0,1,0-2.64,0v6.92a1.32,1.32,0,0,0,2.64,0Z"/><path class="cls-2" d="M224.56,142.35v-6.92a1.32,1.32,0,1,0-2.64,0v6.92a1.32,1.32,0,0,0,2.64,0Z"/><path class="cls-2" d="M231.95,142.35v-6.92a1.32,1.32,0,1,0-2.64,0v6.92a1.32,1.32,0,0,0,2.64,0Z"/><path class="cls-2" d="M239.33,142.35v-6.92a1.32,1.32,0,1,0-2.64,0v6.92a1.32,1.32,0,0,0,2.64,0Z"/><path class="cls-2" d="M246.71,142.35v-6.92a1.32,1.32,0,1,0-2.64,0v6.92a1.32,1.32,0,0,0,2.64,0Z"/><path class="cls-2" d="M254.1,142.35v-6.92a1.32,1.32,0,1,0-2.64,0v6.92a1.32,1.32,0,0,0,2.64,0Z"/><path class="cls-2" d="M261.48,142.35v-6.92a1.32,1.32,0,1,0-2.64,0v6.92a1.32,1.32,0,0,0,2.64,0Z"/><path class="cls-2" d="M268.86,142.35v-6.92a1.32,1.32,0,1,0-2.64,0v6.92a1.32,1.32,0,0,0,2.64,0Z"/><path class="cls-2" d="M276.25,142.35v-6.92a1.32,1.32,0,1,0-2.64,0v6.92a1.32,1.32,0,0,0,2.64,0Z"/><path class="cls-2" d="M283.63,142.35v-6.92a1.32,1.32,0,1,0-2.64,0v6.92a1.32,1.32,0,0,0,2.64,0Z"/><path class="cls-2" d="M291,142.35v-6.92a1.32,1.32,0,0,0-2.64,0v6.92a1.32,1.32,0,0,0,2.64,0Z"/><path class="cls-2" d="M298.4,142.35v-6.92a1.32,1.32,0,1,0-2.64,0v6.92a1.32,1.32,0,0,0,2.64,0Z"/><path class="cls-2" d="M305.78,142.35v-6.92a1.32,1.32,0,0,0-2.64,0v6.92a1.32,1.32,0,0,0,2.64,0Z"/><path class="cls-2" d="M313.17,142.35v-6.92a1.32,1.32,0,0,0-2.64,0v6.92a1.32,1.32,0,0,0,2.64,0Z"/></svg>