<svg id="Слой_1" data-name="Слой 1" xmlns="http://www.w3.org/2000/svg" viewBox="0 0 442 362"><defs><style>.cls-1{fill:#fff;}</style></defs><title>Монтажная область 27</title><path class="cls-1" d="M54.61,294.29A3.75,3.75,0,1,0,58.35,298,3.75,3.75,0,0,0,54.61,294.29Zm0,5.21A1.46,1.46,0,1,1,56.07,298,1.46,1.46,0,0,1,54.61,299.5Z"/><path class="cls-1" d="M428.42,298V298h0S428.42,298,428.42,298Z"/><path class="cls-1" d="M439,265.83a1.14,1.14,0,0,0-1-.53h-9.63v-2.94a8.55,8.55,0,0,0,.88-5.37,7.18,7.18,0,0,0,3.2,1.17h0a1.8,1.8,0,0,0,1.88-1.47c.32-1.59-.49-3.1-1.53-5a37.62,37.62,0,0,1-2.12-4.42,8.71,8.71,0,0,0-2.32-3.61v-19.1l2.21-3.43a1.14,1.14,0,0,0-1-1.76h-1.75c-1.08-1.87-3-5.84-2.9-8.53a9.37,9.37,0,0,1,1.35-4c.58-1.09,1.08-2,.76-3a2.17,2.17,0,0,0-1.19-1.28,1.14,1.14,0,0,0-1.48.44,1,1,0,0,1-.92.58,5.71,5.71,0,0,1-2.37-.86l-.49-6,1.73-2.24a1.14,1.14,0,0,0-.62-1.8l-3.07-.8a1.15,1.15,0,0,0-.58,0l-3.07.8a1.14,1.14,0,0,0-.45,2l1.64,1.39a1.15,1.15,0,0,0,0,.24l-.29,3.46-.12-.05a5.75,5.75,0,0,0-3.84-1.44c-5.52,0-11.83,7.65-12.87,12.45a1.14,1.14,0,0,0,1.95,1,14.5,14.5,0,0,1,4.61-2.72c-.42.61-.87,1.27-1.34,2-.35.53-.69,1-1,1.46-3.37.4-4.61,4.08-4.87,6.9H359v-2.85a1.14,1.14,0,0,0-1.14-1.14h-3.65V181.31l2.64-5.77a1.14,1.14,0,0,1-1,.56h0a1.14,1.14,0,0,0,.9-1.85l-2.72-4.6a1.14,1.14,0,0,0-1-.56h-3.26v-5.78a1.14,1.14,0,0,0-1.14-1.14h-3.52c-1.52-6.6-7.43-9.21-9.69-10v-5.08a1.14,1.14,0,0,0-.14-.55l-1-1.75a3.23,3.23,0,0,0-.4-5.87v-7a1.14,1.14,0,0,0-2.29,0v7a3.23,3.23,0,0,0-.74,5.65l-1.08,2a1.14,1.14,0,0,0-.14.55v5.08c-2.26.77-8.17,3.38-9.7,10h-3.16a1.14,1.14,0,0,0-1.14,1.14v5.78H312.1a1.14,1.14,0,0,0-1,.56l-2.79,4.73s0,.06,0,.1a1.12,1.12,0,0,0-.07.16.94.94,0,0,0,0,.13,1.18,1.18,0,0,0,0,.16,1.08,1.08,0,0,0,0,.13,1.14,1.14,0,0,0,0,.16,1.23,1.23,0,0,0,0,.13s0,.07,0,.11l2.79,6.1a1.14,1.14,0,0,0,1,.67h1.51v33.18h-2.84a1.14,1.14,0,0,0-1.14,1.14v.9h-19.1V200.16h3.74a1.14,1.14,0,0,0,1.14-1.14v-5.19a1.14,1.14,0,0,0-1.14-1.14H280.14l-.61-41.45a4.76,4.76,0,0,0,1.07-3,7.56,7.56,0,0,0-.07-1.05,5.24,5.24,0,0,0,.95-3.19,2.29,2.29,0,0,0-1.87-2.24v-3.86l2.34-4.54a1.14,1.14,0,0,0,.13-.52v-3.59a1.14,1.14,0,0,0-1.14-1.14h-1.41a1.14,1.14,0,0,0,.09-.45v-6a1.14,1.14,0,0,0-.95-1.12c-1.64-13.36-3.58-13.36-4.42-13.36a1.76,1.76,0,0,0-1.47.87,2.48,2.48,0,0,1-.71.55c-1.35.83-2.41,2-1,4.63,1,1.82.51,5.35.1,7.3h-2.39v-20s0,0,0,0a68.41,68.41,0,0,0-5.44-22c-6.47-14.54-17.5-22.22-31.88-22.22h-.82V41.51l1-5.49s0-.05,0-.08a1.12,1.12,0,0,0,0-.12v-.05h0c0-9.25-4.3-12-7.36-12.81a4.13,4.13,0,0,0-2.1-6.53V6.14a1.14,1.14,0,1,0-2.29,0V16.43a4.13,4.13,0,0,0-2.1,6.53c-3.05.79-7.34,3.56-7.36,12.81h0s0,0,0,.05a1.08,1.08,0,0,0,0,.12s0,.05,0,.08l1,5.49V56.23h-.82c-14.39,0-25.41,7.68-31.88,22.22a68.41,68.41,0,0,0-5.44,22s0,0,0,0v20h-2.49c-1.64-13.34-3.58-13.34-4.42-13.34a1.76,1.76,0,0,0-1.47.87,2.48,2.48,0,0,1-.71.55c-1.35.83-2.41,2-1,4.63,1,1.83.5,5.4.09,7.35a1.14,1.14,0,0,0-.84,1.1v6a1.14,1.14,0,0,0,.09.45h-1.41a1.14,1.14,0,0,0-1.14,1.14v3.59a1.14,1.14,0,0,0,.13.52l2.34,4.54v3.86a2.28,2.28,0,0,0-1.87,2.24,5.23,5.23,0,0,0,.95,3.19,7.56,7.56,0,0,0-.07,1.05,4.76,4.76,0,0,0,1.07,3l-.61,41.45H147.72a1.14,1.14,0,0,0-1.14,1.14V199a1.14,1.14,0,0,0,1.14,1.14h3.74v17.27h-19.1v-.9a1.14,1.14,0,0,0-1.14-1.14h-2.84V182.2h1.51a1.14,1.14,0,0,0,1-.67l2.75-6a1.14,1.14,0,0,1-1,.56h0a1.14,1.14,0,0,0,.9-1.85l-2.72-4.6a1.14,1.14,0,0,0-1-.56h-3.61v-5.78a1.14,1.14,0,0,0-1.14-1.14H122c-1.52-6.6-7.43-9.21-9.7-10v-5.08a1.14,1.14,0,0,0-.14-.55l-1.08-2a3.23,3.23,0,0,0-.74-5.65v-7a1.14,1.14,0,0,0-2.29,0v7a3.23,3.23,0,0,0-.4,5.87l-1,1.75a1.15,1.15,0,0,0-.14.55v5.08c-2.26.77-8.17,3.38-9.7,10H93.33a1.14,1.14,0,0,0-1.14,1.14v5.78H88.93a1.14,1.14,0,0,0-1,.56l-2.79,4.73s0,.06,0,.1a1.11,1.11,0,0,0-.07.16,2.58,2.58,0,0,0,0,.29,1.06,1.06,0,0,0,0,.13,1.22,1.22,0,0,0,0,.16s0,.08,0,.13,0,.07,0,.11l2.69,5.87v34.07H84.14A1.14,1.14,0,0,0,83,216.52v2.85H43.53c-.27-2.82-1.51-6.5-4.87-6.9l-1-1.46c-.47-.7-.91-1.36-1.34-2a14.51,14.51,0,0,1,4.61,2.72,1.14,1.14,0,0,0,.83.36h0a1.14,1.14,0,0,0,1.07-1.56c-1.15-4.81-7.37-12.28-12.83-12.28a5.75,5.75,0,0,0-3.84,1.44l-.12.05-.29-3.46a1.15,1.15,0,0,0,0-.24l1.64-1.39a1.14,1.14,0,0,0-.45-2l-3.07-.8a1.15,1.15,0,0,0-.58,0l-3.07.8a1.14,1.14,0,0,0-.62,1.8l1.72,2.24-.49,6a5.71,5.71,0,0,1-2.37.86,1,1,0,0,1-.92-.58,1.14,1.14,0,0,0-1.48-.44,2.17,2.17,0,0,0-1.19,1.28c-.32,1,.18,1.92.76,3a9.39,9.39,0,0,1,1.35,4c.15,2.92-2.06,7.07-2.9,8.53H12.33a1.14,1.14,0,0,0-1,1.76l2.21,3.43v19.1a8.71,8.71,0,0,0-2.32,3.61,37.62,37.62,0,0,1-2.12,4.42c-1,1.9-1.84,3.41-1.53,5a1.8,1.8,0,0,0,1.88,1.47A7.17,7.17,0,0,0,12.7,257a8.55,8.55,0,0,0,.88,5.37v2.94H3.95a1.14,1.14,0,0,0-1,1.62L7.3,276.5l0,.09,3,5.36s0,0,0,.06v5.51a5.26,5.26,0,0,0,2.19,4.58,7,7,0,0,0-.4,2.5A4.76,4.76,0,0,0,13.58,298v62.87A1.14,1.14,0,0,0,14.72,362H427.28a1.14,1.14,0,0,0,1.14-1.14V298s0,0,0,0h0a4.76,4.76,0,0,0,1.41-3.39,7,7,0,0,0-.4-2.5,5.26,5.26,0,0,0,2.19-4.58V282s0,0,0-.06l3-5.36,0-.09,4.39-9.58A1.15,1.15,0,0,0,439,265.83Zm-2.74,1.76-.6,1.31H366.55l.6-1.31h69.12Zm-79.56,92.13H315.88l0-2.25a1.07,1.07,0,0,0,0-.75l-1.16-63.94h0l-.07-4a5,5,0,0,0,2.21-4.07,7,7,0,0,0-.4-2.5,5,5,0,0,0,2.09-3.44h38.2V282a1.13,1.13,0,0,0,0,.19Zm-66-2.25a1.14,1.14,0,0,0,.06-.35,1.13,1.13,0,0,0-.07-.4l-1.16-63.94h0l-.07-4a5,5,0,0,0,2.21-4.07,7,7,0,0,0-.4-2.5,5,5,0,0,0,2.09-3.44h7.79a5,5,0,0,0,2.09,3.44,7,7,0,0,0-.4,2.5,5,5,0,0,0,2.21,4.07l-.07,4s0,0,0,0v0l-1.22,66.91h-13Zm-25.13,0a1.14,1.14,0,0,0,.06-.35,1.13,1.13,0,0,0-.07-.4l-1.16-63.94h0l-.07-4a5,5,0,0,0,2.21-4.07,7,7,0,0,0-.4-2.5,5,5,0,0,0,2.09-3.44H276a5,5,0,0,0,2.09,3.44,7,7,0,0,0-.4,2.5,5,5,0,0,0,2.21,4.07l-.07,4s0,0,0,0v0l-1.22,66.91h-13Zm-25.13,0a1.07,1.07,0,0,0,0-.75l-1.23-68a5,5,0,0,0,2.21-4.07,7,7,0,0,0-.4-2.5,5,5,0,0,0,2.09-3.44h7.79A5,5,0,0,0,253,282.2a7,7,0,0,0-.4,2.5,5,5,0,0,0,2.21,4.07l-.07,4s0,0,0,0v0l-1.22,66.91h-13Zm-38.91,2.25h-13l-1.22-66.92v0l-.07-4a5,5,0,0,0,2.21-4.07,7,7,0,0,0-.4-2.5,5,5,0,0,0,2.09-3.44h7.79A5,5,0,0,0,201,282.2a7,7,0,0,0-.4,2.5,5,5,0,0,0,2.21,4.07l-.07,4h0l-1.16,63.94a1.07,1.07,0,0,0,0,.75Zm-25.13,0h-13l-1.22-66.91v0s0,0,0,0l-.07-4a5,5,0,0,0,2.21-4.07,7,7,0,0,0-.4-2.5,5,5,0,0,0,2.09-3.44h7.79a5,5,0,0,0,2.09,3.44,7,7,0,0,0-.4,2.5,5,5,0,0,0,2.21,4.07l-.07,4h0a1.14,1.14,0,0,0,.7,1,1.14,1.14,0,0,1-.7-1l-1.16,63.94a1.07,1.07,0,0,0,0,.75Zm-25.13,0h-13L137,292.8v0s0,0,0,0l-.07-4a5,5,0,0,0,2.21-4.07,7,7,0,0,0-.4-2.5,5,5,0,0,0,2.09-3.44h7.79a5,5,0,0,0,2.09,3.44,7,7,0,0,0-.4,2.5,5,5,0,0,0,2.21,4.07l-.07,4h0l-1.16,63.94a1.07,1.07,0,0,0,0,.75Zm-23.77-79.12a2.4,2.4,0,0,1-1.66-1.83h12.7a2.4,2.4,0,0,1-1.64,1.83,1.19,1.19,0,0,0-1,1,1,1,0,0,0,.54,1.1,3.51,3.51,0,0,1,.44,2.06,2.79,2.79,0,0,1-1.38,2.3h-6.64a2.77,2.77,0,0,1-1.37-2.3,3.51,3.51,0,0,1,.44-2.06,1,1,0,0,0,.53-1.08A1.2,1.2,0,0,0,127.49,280.59Zm-42.88-4.12L78.91,271,77,266.79h43.91v2.45a1.14,1.14,0,0,0,1.14,1.14h1.25v6.09Zm-61-15.56h-.82a25.18,25.18,0,0,0,1.95-5.43,22.26,22.26,0,0,0,0-6.33c.52-2.08,1.18-5.4.58-7H83v18.79H73.57a1.14,1.14,0,0,0-1,1.62l1.27,2.77H24.71v-3.25A1.14,1.14,0,0,0,23.57,260.91Zm-7.71,2.29h6.57v2.1H15.86Zm0-23.36v-2.58H83v2.58H21.86c-.26-1.12-.83-2.39-2.1-2.39a2,2,0,0,0-1.41.65,3.62,3.62,0,0,0-1,1.75ZM221,219.79l101.35,38-2.9,3.17H122.55l-2.9-3.17Zm90.92,1.87h41.8v5.14h-41.8v-5.14Zm112.75,18.19a3.62,3.62,0,0,0-1-1.75,2,2,0,0,0-1.41-.65c-1.27,0-1.84,1.28-2.1,2.39H359v-2.58h67.14v2.58Zm-3.55,23.36h5v2.1h-6.57v-2.1Zm-3.82-1.14v3.25H368.2l1.27-2.77a1.14,1.14,0,0,0-1-1.62H359V242.13h57.69c-.6,1.63.06,4.95.58,7a22.26,22.26,0,0,0,0,6.33,25.19,25.19,0,0,0,1.95,5.43h-.82A1.14,1.14,0,0,0,417.29,262.06Zm-110,27.23h5l0,2.35h-5.07Zm6.75-6.65a3.51,3.51,0,0,1,.44,2.06,2.79,2.79,0,0,1-1.38,2.3H306.5a2.77,2.77,0,0,1-1.37-2.3,3.51,3.51,0,0,1,.44-2.06,1,1,0,0,0,.53-1.08,1.2,1.2,0,0,0-1-1,2.4,2.4,0,0,1-1.66-1.83h12.7a2.4,2.4,0,0,1-1.64,1.83,1.19,1.19,0,0,0-1,1A1,1,0,0,0,314.07,282.64ZM311,276.47H125.59v-6.09H316.41v6.09Zm-28.77,12.81h5l0,2.35h-5.07Zm6.75-6.65a3.51,3.51,0,0,1,.44,2.06A2.79,2.79,0,0,1,288,287h-6.64a2.77,2.77,0,0,1-1.37-2.3,3.51,3.51,0,0,1,.44-2.06,1,1,0,0,0,.53-1.08,1.2,1.2,0,0,0-1-1,2.4,2.4,0,0,1-1.66-1.83H291a2.4,2.4,0,0,1-1.64,1.83,1.19,1.19,0,0,0-1,1A1,1,0,0,0,288.94,282.64Zm-31.88,6.65h5l0,2.35H257Zm6.75-6.65a3.51,3.51,0,0,1,.44,2.06,2.79,2.79,0,0,1-1.38,2.3h-6.64a2.77,2.77,0,0,1-1.37-2.3,3.51,3.51,0,0,1,.44-2.06,1,1,0,0,0,.53-1.08,1.2,1.2,0,0,0-1-1,2.4,2.4,0,0,1-1.66-1.83h12.7a2.4,2.4,0,0,1-1.64,1.83,1.19,1.19,0,0,0-1,1A1,1,0,0,0,263.81,282.64Zm-31.88,6.65h5l0,2.35h-5.07Zm6.75-6.65a3.51,3.51,0,0,1,.44,2.06,2.79,2.79,0,0,1-1.38,2.3H231.1a2.77,2.77,0,0,1-1.37-2.3,3.51,3.51,0,0,1,.44-2.06,1,1,0,0,0,.53-1.08,1.2,1.2,0,0,0-1-1,2.4,2.4,0,0,1-1.66-1.83h12.7a2.4,2.4,0,0,1-1.64,1.83,1.19,1.19,0,0,0-1,1A1,1,0,0,0,238.67,282.64Zm-33.58,6.65h5l0,2.35H205Zm6.75-6.65a3.51,3.51,0,0,1,.44,2.06,2.79,2.79,0,0,1-1.38,2.3h-6.64a2.77,2.77,0,0,1-1.37-2.3,3.51,3.51,0,0,1,.44-2.06,1,1,0,0,0,.53-1.08,1.2,1.2,0,0,0-1-1,2.4,2.4,0,0,1-1.66-1.83h12.7a2.4,2.4,0,0,1-1.64,1.83,1.19,1.19,0,0,0-1,1A1,1,0,0,0,211.84,282.64ZM180,289.28h5l0,2.35h-5.07Zm6.75-6.65a3.51,3.51,0,0,1,.44,2.06,2.79,2.79,0,0,1-1.38,2.3h-6.63a2.79,2.79,0,0,1-1.38-2.3,3.51,3.51,0,0,1,.44-2.06,1,1,0,0,0,.53-1.08,1.2,1.2,0,0,0-1-1,2.4,2.4,0,0,1-1.66-1.83h12.7a2.4,2.4,0,0,1-1.64,1.83,1.19,1.19,0,0,0-1,1A1,1,0,0,0,186.7,282.64Zm-31.88,6.65h5l0,2.35h-5.07Zm6.75-6.65a3.51,3.51,0,0,1,.44,2.06,2.79,2.79,0,0,1-1.38,2.3H154a2.77,2.77,0,0,1-1.37-2.3,3.51,3.51,0,0,1,.44-2.06,1,1,0,0,0,.53-1.08,1.2,1.2,0,0,0-1-1,2.4,2.4,0,0,1-1.66-1.83h12.7a2.4,2.4,0,0,1-1.64,1.83,1.19,1.19,0,0,0-1,1A1,1,0,0,0,161.57,282.64Zm156-14.54H123.19v-4.9H318.81v4.9ZM75.35,263.2h45.55v1.31h-45ZM15.86,229.09H78.72l.94,3a1.15,1.15,0,0,0,.19.35l2,2.55h-66Zm71.27,0h42.95V235H84.71l-2.92-3.78-.67-2.11h6Zm29.68,29,2.63,2.87H85.29V237.26h44.8V251.4l-12.82,4.8a1.14,1.14,0,0,0-.44,1.84Zm15.55-20.78h35.45l-35.45,13.28ZM325.45,257a1.14,1.14,0,0,0-.71-.8l-12.82-4.8V237.26h44.8v23.65H322.55l2.63-2.87A1.14,1.14,0,0,0,325.45,257Zm-15.82-6.46-35.45-13.28h35.45Zm45.23-21.45h6l-.67,2.11L357.29,235H311.92v-5.89h42.95Zm8.42,0h62.86V235h-66l2-2.55a1.15,1.15,0,0,0,.19-.35ZM321.09,263.2h45.56l-.6,1.31h-45Zm105-36.4H356v-1.43h70.13Zm-116.51,1.14v7H268.08l-23.73-8.89h65.28Zm-135.71,7H132.37v-8.89h65.28Zm-43.83-10v1.85H88.28v-5.14h41.8ZM86,226.8H15.86v-1.43H86Zm43.69,62.48h5l0,2.35h-5.07Zm-.08,4.64h5.16L135.89,356h-7.41Zm25.13,0h5.16L161,356h-7.41Zm25.14,0H185L186.15,356h-7.41Zm25.13,0h5.16L211.29,356h-7.41Zm8.64,65.79-1.22-66.91v0s0,0,0,0l-.07-4a5,5,0,0,0,2.21-4.07,7,7,0,0,0-.4-2.5,5,5,0,0,0,2.09-3.44h9.49a5,5,0,0,0,2.09,3.44,7,7,0,0,0-.4,2.5,5,5,0,0,0,2.21,4.07l-.07,4s0,0,0,0v0l-1.22,66.91Zm18.2-65.79H237L238.12,356h-7.41Zm25.13,0h5.16L263.26,356h-7.41Zm25.13,0h5.16L288.39,356H281Zm25.13,0h5.16L313.53,356h-7.41Zm50.15-17.45H318.7v-6.09H320a1.14,1.14,0,0,0,1.14-1.14v-2.45H365L363.09,271Zm71.22-28.37a40.25,40.25,0,0,0,2.24,4.67,9.86,9.86,0,0,1,1.31,3,11.76,11.76,0,0,1-3.74-2.3,1.24,1.24,0,0,0-1.13-.82,1.17,1.17,0,0,0-1.15,1.16,1.45,1.45,0,0,0,.31.86c.43,1.14,1.16,4.13.18,6.17h-4.83a26.52,26.52,0,0,1-2.24-5.85,20.62,20.62,0,0,1,0-5.8,1.14,1.14,0,0,0,0-.46,20,20,0,0,1-.79-5.63,10.6,10.6,0,0,0,2.92-1.07,1.14,1.14,0,0,0,.57-.89,6.5,6.5,0,0,1,.16-.94,3.86,3.86,0,0,1-.54,2.67,1.14,1.14,0,0,0,.92,1.7l1.15.05C426.26,244.77,427.32,244.81,428.61,248.11Zm-4.07-5.68c0-.1.05-.2.08-.3h1.52v.47A10.89,10.89,0,0,0,424.54,242.43Zm-1-36.55a3.48,3.48,0,0,0,.82-.09h0a11.44,11.44,0,0,0-1.61,4.94c-.15,2.91,1.47,6.53,2.58,8.64h-2.78l-1.16-14A5.75,5.75,0,0,0,423.55,205.88Zm-5.12-8.32h0l1.81,21.81H416.6l1.8-21.81Zm0-3.35,1.11.29-.6.78h-.09l-1.06-.9ZM404,214.72a1.14,1.14,0,0,0,.93-.48c.38-.53.84-1.21,1.34-2,1.17-1.75,2.93-4.38,3.89-5.1l.36-.19a1.14,1.14,0,0,0-.86-2.1,2.42,2.42,0,0,0-.66.31c-.61.29-1.42.61-2.27,1-1.22.49-2.59,1-3.88,1.68,2.13-3.52,6-7.27,9.16-7.27a3.52,3.52,0,0,1,2.48,1,1.14,1.14,0,0,0,.42.25,6.74,6.74,0,0,1,.86.37l-1.42,17.18H400.79C401,217.68,401.7,214.72,404,214.72Zm-4.41,6.94h28l-.92,1.43H356v-1.43h43.55Zm-66.11-37.85a7.73,7.73,0,0,0-7.74,7.74v23.84h-1.56l-.61-29.22a2.64,2.64,0,0,0,1.07-2.09,3.9,3.9,0,0,0-.08-.8,2.7,2.7,0,0,0,.75-1.08H341.6a2.7,2.7,0,0,0,.75,1.08,3.91,3.91,0,0,0-.08.8,2.64,2.64,0,0,0,1.07,2.09l-.61,29.22h-1.56V191.55A7.75,7.75,0,0,0,333.44,183.81Zm5.45,7.74v23.84H328V191.55a5.45,5.45,0,1,1,10.9,0Zm5.67-7.47a1.27,1.27,0,0,1,.05-.42,1.14,1.14,0,0,0,.22-1.46h2.88a1.14,1.14,0,0,0,.22,1.46,1.26,1.26,0,0,1,.05.42c0,.13-.13.25-.24.32H344.8C344.69,184.32,344.56,184.21,344.56,184.08Zm-26.54-8h29.13v3.81H318Zm3.28-2.29,11.46-7,11.46,7H321.3Zm.75,8.38a1.14,1.14,0,0,0,.22,1.46,1.27,1.27,0,0,1,.05.42c0,.13-.13.25-.24.32h-2.94c-.11-.08-.24-.2-.24-.32a1.27,1.27,0,0,1,.05-.42,1.14,1.14,0,0,0,.22-1.46ZM320,186.69h1.3l.6,28.69h-2.5Zm25.67,0h1.3l.6,28.69H345Zm3.57-.52a2.64,2.64,0,0,0,1.07-2.09,3.91,3.91,0,0,0-.08-.8,2.7,2.7,0,0,0,.75-1.08h1v33.18h-2.12Zm4.88-10.06-1.75,3.81h-2.9v-3.81Zm-1.67-4.73,1.44,2.45h-5.25l-4-2.45h7.82Zm-8.18-6.93h3.29v4.64h-6.68l-7.49-4.57-.17-.08h11.05ZM333.77,142a1,1,0,1,1-1-1A1,1,0,0,1,333.77,142Zm-2.65,12.19A1.14,1.14,0,0,0,332,153V147.4l.59-1.07.59,1.07V153a1.14,1.14,0,0,0,.87,1.11c.07,0,7,1.75,8.76,8H322.36C324.13,155.94,330.82,154.22,331.12,154.15ZM318,164.45h14.34l-.17.08-7.49,4.57H318Zm-5.24,6.93h8.17l-4,2.45h-5.6Zm.08,8.54-1.75-3.81h4.64v3.81h-2.9Zm3.06,2.29h0a2.7,2.7,0,0,0,.75,1.08,3.9,3.9,0,0,0-.08.8,2.64,2.64,0,0,0,1.07,2.09l-.61,29.22H315.9Zm-4,35.46h44.8v1.71h-44.8v-1.71Zm-2.29,2v4.1H238.25l-10.94-4.1h82.32ZM163.69,148.2c0-1.43.44-1.79.44-1.79a1.9,1.9,0,0,1-1.21-1.49,1.14,1.14,0,0,0,.61.18h6.58A1.85,1.85,0,0,1,169,146.4s.44.36.44,1.79a2.43,2.43,0,0,1-1.09,2.06h-3.54A2.43,2.43,0,0,1,163.69,148.2Zm115.38-3.28a1.91,1.91,0,0,1-1.21,1.49s.44.36.44,1.79a2.43,2.43,0,0,1-1.09,2.06h-3.54a2.43,2.43,0,0,1-1.09-2.06c0-1.43.44-1.79.44-1.79a1.85,1.85,0,0,1-1.15-1.31h6.58A1.14,1.14,0,0,0,279.07,144.92Zm-1.76-2.1H164.68v-4.1H277.32Zm-11.73,3.59s.44.36.44,1.79a2.43,2.43,0,0,1-1.09,2.06h-3.54a2.43,2.43,0,0,1-1.09-2.06c0-1.43.44-1.79.44-1.79a1.85,1.85,0,0,1-1.15-1.31h7.14A1.85,1.85,0,0,1,265.59,146.4Zm-12.28,0s.44.36.44,1.79a2.43,2.43,0,0,1-1.09,2.06h-3.54A2.43,2.43,0,0,1,248,148.2c0-1.43.44-1.79.44-1.79a1.85,1.85,0,0,1-1.15-1.31h7.14A1.85,1.85,0,0,1,253.31,146.4Zm-12.28,0s.44.36.44,1.79a2.43,2.43,0,0,1-1.09,2.06h-3.54a2.43,2.43,0,0,1-1.09-2.06c0-1.43.44-1.79.44-1.79a1.85,1.85,0,0,1-1.15-1.31h7.14A1.85,1.85,0,0,1,241,146.4Zm-12.28,0s.44.36.44,1.79a2.43,2.43,0,0,1-1.09,2.06h-3.54a2.43,2.43,0,0,1-1.09-2.06c0-1.43.44-1.79.44-1.79a1.85,1.85,0,0,1-1.15-1.31h7.14A1.85,1.85,0,0,1,228.76,146.4Zm-10.69,0s.44.36.44,1.79a2.43,2.43,0,0,1-1.09,2.06h-3.54a2.43,2.43,0,0,1-1.09-2.06c0-1.43.44-1.79.44-1.79a1.85,1.85,0,0,1-1.15-1.31h7.14A1.85,1.85,0,0,1,218.07,146.4Zm-12.28,0s.44.36.44,1.79a2.43,2.43,0,0,1-1.09,2.06h-3.54a2.43,2.43,0,0,1-1.09-2.06c0-1.43.44-1.79.44-1.79a1.85,1.85,0,0,1-1.15-1.31h7.14A1.85,1.85,0,0,1,205.79,146.4Zm-12.28,0s.44.36.44,1.79a2.43,2.43,0,0,1-1.09,2.06h-3.54a2.43,2.43,0,0,1-1.09-2.06c0-1.43.44-1.79.44-1.79a1.85,1.85,0,0,1-1.15-1.31h7.14A1.85,1.85,0,0,1,193.52,146.4Zm-12.28,0s.44.36.44,1.79a2.43,2.43,0,0,1-1.09,2.06h-3.54A2.43,2.43,0,0,1,176,148.2c0-1.43.44-1.79.44-1.79a1.85,1.85,0,0,1-1.15-1.31h7.14A1.85,1.85,0,0,1,181.24,146.4Zm-10.62,4.83a4.76,4.76,0,0,0,1.07-3,7.56,7.56,0,0,0-.07-1.05,4.82,4.82,0,0,0,.85-2h.44a4.83,4.83,0,0,0,.85,2,7.67,7.67,0,0,0-.07,1.05,4.76,4.76,0,0,0,1.07,3l-.62,41.45h-2.91Zm6.41,1.31h3.6l.6,40.14h-4.8Zm5.87-1.31a4.76,4.76,0,0,0,1.07-3,7.63,7.63,0,0,0-.07-1.05,4.83,4.83,0,0,0,.85-2h.44a4.83,4.83,0,0,0,.85,2,7.56,7.56,0,0,0-.07,1.05,4.76,4.76,0,0,0,1.07,3l-.62,41.45h-2.91Zm6.41,1.31h3.6l.6,40.14h-4.8Zm5.87-1.31a4.76,4.76,0,0,0,1.07-3,7.69,7.69,0,0,0-.07-1.05,4.83,4.83,0,0,0,.85-2h.44a4.82,4.82,0,0,0,.85,2,7.56,7.56,0,0,0-.07,1.05,4.76,4.76,0,0,0,1.07,3l-.61,41.45h-2.91Zm6.41,1.31h3.59a2.29,2.29,0,0,0,1.12-.3,2.28,2.28,0,0,1-1.11.3l.6,40.14H201Zm5.87-1.31a4.76,4.76,0,0,0,1.07-3,7.67,7.67,0,0,0-.07-1.05,4.82,4.82,0,0,0,.85-2h.44a4.82,4.82,0,0,0,.85,2,7.64,7.64,0,0,0-.07,1.05,4.76,4.76,0,0,0,1.07,3L211,192.69h-2.91Zm6.41,1.31h3.59a2.3,2.3,0,0,0,1.12-.3,2.29,2.29,0,0,1-1.11.3l.6,40.14h-4.8Zm5.87-1.31a4.76,4.76,0,0,0,1.07-3,7.63,7.63,0,0,0-.07-1.05,4.44,4.44,0,0,0,.27-.43,4.44,4.44,0,0,0,.27.43,7.63,7.63,0,0,0-.07,1.05,4.76,4.76,0,0,0,1.07,3l-.62,41.45h-1.32Zm4.82,1.31h3.6l.6,40.14h-4.8Zm5.87-1.31a4.76,4.76,0,0,0,1.07-3,7.69,7.69,0,0,0-.07-1.05,4.82,4.82,0,0,0,.85-2h.44a4.83,4.83,0,0,0,.85,2,7.56,7.56,0,0,0-.07,1.05,4.76,4.76,0,0,0,1.07,3l-.61,41.45H231Zm6.41,1.31h3.6l.6,40.14h-4.8Zm5.87-1.31a4.76,4.76,0,0,0,1.07-3,7.56,7.56,0,0,0-.07-1.05,4.82,4.82,0,0,0,.85-2H245a4.83,4.83,0,0,0,.85,2,7.67,7.67,0,0,0-.07,1.05,4.76,4.76,0,0,0,1.07,3l-.62,41.45h-2.91Zm6.41,1.31h3.59a2.3,2.3,0,0,0,1.12-.3,2.29,2.29,0,0,1-1.11.3l.6,40.14h-4.8Zm5.87-1.31a4.76,4.76,0,0,0,1.07-3,7.69,7.69,0,0,0-.07-1.05,4.83,4.83,0,0,0,.85-2h.44a4.83,4.83,0,0,0,.85,2,7.67,7.67,0,0,0-.07,1.05,4.76,4.76,0,0,0,1.07,3l-.61,41.45h-2.91Zm6.41,1.31H265a2.3,2.3,0,0,0,1.12-.3,2.29,2.29,0,0,1-1.11.3l.6,40.14h-4.8Zm5.87-1.31a4.76,4.76,0,0,0,1.07-3,7.56,7.56,0,0,0-.07-1.05,4.83,4.83,0,0,0,.85-2h.44a4.83,4.83,0,0,0,.85,2,7.56,7.56,0,0,0-.07,1.05,4.76,4.76,0,0,0,1.07,3l-.61,41.45h-2.91Zm6.41,1.31h3.59a2.29,2.29,0,0,0,1.12-.3,2.29,2.29,0,0,1-1.11.3l.6,40.14h-4.8Zm-9.29-29.79v3.7h-4.1v-3.7h4.1Zm-4.83-2.29c-.33-2-.68-5.46.11-7.4a27.41,27.41,0,0,0,1.12-3,58.26,58.26,0,0,1,2.11,10.44Zm-5.65,6v-3.7H258v3.7Zm-2.29-3.7v3.7h-4.1v-3.7h4.1Zm-2-2.29h-3c.4-2.1.87-5.94-.42-8.37a1.62,1.62,0,0,1-.18-.46,5.81,5.81,0,0,1,1.47-.44,7.38,7.38,0,0,0,1.89-.58A67.21,67.21,0,0,1,249.56,120.47Zm-4.36,6h-4.1v-3.7h4.1Zm-6.38-3.7v3.7h-4.1v-3.7h4.1Zm-5.24-2.29H233c.4-2.1.87-5.94-.42-8.37-.6-1.14-.56-1.16.17-1.61a5.8,5.8,0,0,0,.92-.65c.73,1.67,1.62,6.28,2.19,10.63Zm-1.14,2.29v3.7h-4.1v-3.7h4.1Zm-6.38,0v3.7h-4.1v-3.7H226Zm-3.91-10.65c-1.29,2.43-.82,6.27-.41,8.37h-2.86c.56-4.34,1.46-9,2.19-10.63a5.9,5.9,0,0,0,.92.65C222.7,110.93,222.74,111,222.14,112.1Zm-2.48,10.65v3.7h-4.1v-3.7h4.1Zm-6.38,0v3.7h-4.1v-3.7h4.1Zm-4.16-2.29H205.8c0-1.84.11-5.42,0-7.9s.67-2.59,2-2.85a6,6,0,0,0,1.31-.36A81.35,81.35,0,0,1,209.12,120.47Zm-2.22,2.29v3.7h-4.1v-3.7h4.1Zm-6.38,0v3.7h-4.1v-3.7h4.1Zm-5.24-2.29h-2.71c.4-2.1.87-5.94-.42-8.37a1.62,1.62,0,0,1,.07-1.7,2.89,2.89,0,0,1,1.8-1.3c1,1.71,1.47,7.42,1.54,11.38Zm-1.14,2.29v3.7H190v-3.7h4.1Zm-10.48,3.7v-3.7h4.1v3.7Zm-4.25-6a7.92,7.92,0,0,0-.12-6.23c-.86-1.62.06-2.91,1.36-4.42l.11-.13A65.86,65.86,0,0,1,182,120.47Zm2,2.29v3.7h-4.1v-3.7h4.1Zm-6.38,0v3.7h-4.1v-3.7Zm102.35,3.7H273v-3.7h4.29Zm-4.07-16a5.8,5.8,0,0,0,.92-.65c.73,1.67,1.62,6.28,2.19,10.63H273.5c.4-2.1.87-5.94-.42-8.37C272.48,111,272.52,110.93,273.25,110.49Zm-2.51,12.26v3.7h-4.1v-3.7Zm-4.26-2.68h-1.36c-1.63-12.94-3.54-12.94-4.37-12.94a1.76,1.76,0,0,0-1.47.87,3.47,3.47,0,0,0-.7,1.33,24,24,0,0,1-1.06,2.88c-.95,2.31-.67,5.78-.37,7.87h-5.29c.14-5.07,0-10.7-1.13-11.9a1.45,1.45,0,0,0-1.05-.46,1.7,1.7,0,0,0-1.4.85,5.1,5.1,0,0,1-1.36.41c-1.19.25-2.54.54-3.08,1.71a2.74,2.74,0,0,0,.25,2.5c.9,1.7.56,4.89.18,6.9h-6.12c-1.63-12.94-3.54-12.94-4.37-12.94a1.76,1.76,0,0,0-1.47.87,2.48,2.48,0,0,1-.71.55c-1.35.83-2.41,2-1,4.63.9,1.7.56,4.89.18,6.9H224c-.38-2-.72-5.2.18-6.9,1.41-2.67.36-3.8-1-4.63a2.48,2.48,0,0,1-.71-.55,1.76,1.76,0,0,0-1.47-.87c-.83,0-2.74,0-4.37,12.94h-5.18c.29-5.66.32-12-.83-13.17a1.41,1.41,0,0,0-1-.46,1.63,1.63,0,0,0-1.35.81,3.63,3.63,0,0,1-.85.22c-1.45.28-4.14.79-3.88,5.23.13,2.23.08,5.48,0,7.37h-5.69c-.07-3.34-.42-10.21-2.08-12.48a2,2,0,0,0-1.68-.79,5,5,0,0,0-3.82,2.42,3.89,3.89,0,0,0-.13,4c.9,1.7.56,4.89.18,6.9h-6c-.71-13.31-2.43-13.31-3.38-13.31a1.73,1.73,0,0,0-1.44.86c-.13.19-.35.45-.58.72-1.15,1.35-3.3,3.85-1.64,7,.84,1.59.31,3.59-.15,4.76h-1.58V101.61h91ZM219.86,99.32H203.57c0-1,0-1.92,0-2.85.66-31.84,9.57-37,11.8-37.83a3.14,3.14,0,0,1,.47-.13h4Zm8.48-43.09H213.66V42.56h14.68Zm-6.2,2.29h4a2.92,2.92,0,0,1,.46.13c2.19.8,11.14,6,11.8,37.82,0,.92,0,1.88,0,2.85H222.14Zm18.57,40.81c-.07-13.8-1.62-23.19-3.68-29.56-1.73-5.35-3.82-8.58-5.69-10.54,5.81,2.37,21.64,11.37,23.18,39.22,0,.29,0,.58,0,.88ZM228.52,40.27h-15L212.9,37h16.2ZM205,69.76c-2.06,6.38-3.61,15.76-3.68,29.56H187.45c0-.3,0-.59,0-.89.77-13.85,5.24-25.06,13-32.51a32.55,32.55,0,0,1,10.19-6.71C208.79,61.17,206.7,64.4,205,69.76Zm56.25,9.57a67.77,67.77,0,0,1,5.17,20h-9.54C256,80.46,248.91,69.81,243,64.18a36,36,0,0,0-7.32-5.42C247.13,60.1,255.71,67,261.21,79.33ZM221,18.55a1.85,1.85,0,1,1-1.85,1.85A1.85,1.85,0,0,1,221,18.55Zm-.9,6.39a5.17,5.17,0,0,1,.71,0,1.18,1.18,0,0,0,.37,0,5.1,5.1,0,0,1,.71,0c2.14,0,7,1,7.39,9.74H212.71C213.1,25.92,218,24.94,220.1,24.94ZM180.79,79.33C186.29,67,194.87,60.1,206.32,58.76A36,36,0,0,0,199,64.18c-5.91,5.63-13,16.29-13.85,35.15h-9.54A67.77,67.77,0,0,1,180.79,79.33Zm-15.45,31.16a5.8,5.8,0,0,0,.92-.65c.73,1.67,1.62,6.28,2.19,10.63h-2.86c.4-2.1.87-5.94-.41-8.37C164.56,111,164.61,110.93,165.33,110.49Zm3.25,12.26v3.7h-3.91v-3.7Zm-6.37,9.75v-2.17H279.78v2.17l-2,3.92H164.24Zm2.53,20h3.6l.6,40.14h-4.8Zm-15.88,45.33V195H293.13v2.9H148.87Zm139.38,2.29v17.27H153.75V200.16ZM152.61,219.71h62.08l-10.94,4.1H132.37v-4.1Zm-26.51-4.33h-1.17l-.61-29.22a2.64,2.64,0,0,0,1.07-2.09,3.9,3.9,0,0,0-.08-.8,2.71,2.71,0,0,0,.75-1.08h0Zm-12-29.19a7.74,7.74,0,0,0-13.32,5.36v23.84H99.26l-.61-29.22a2.64,2.64,0,0,0,1.07-2.09,3.91,3.91,0,0,0-.08-.8,2.7,2.7,0,0,0,.75-1.08h16.32a2.71,2.71,0,0,0,.75,1.08,3.9,3.9,0,0,0-.08.8,2.64,2.64,0,0,0,1.07,2.09l-.61,29.22H116.3V191.55A7.7,7.7,0,0,0,114.14,186.19Zm-.13,5.36v23.84h-10.9V191.55a5.45,5.45,0,1,1,10.9,0Zm9-7.89a1.27,1.27,0,0,1,.05.42c0,.13-.13.25-.24.32h-2.94c-.11-.08-.24-.2-.24-.32a1.27,1.27,0,0,1,.05-.42,1.14,1.14,0,0,0,.22-1.46h2.89a1.14,1.14,0,0,0,.22,1.46Zm.93-3.74H94.85v-3.81H124Zm-26.6,3.74a1.27,1.27,0,0,1,.05.42c0,.13-.13.25-.24.32H94.25c-.11-.08-.24-.2-.24-.32a1.27,1.27,0,0,1,.05-.42,1.14,1.14,0,0,0,.22-1.46h2.88a1.14,1.14,0,0,0,.22,1.46Zm13.17-9.84H97.78l11.46-7,11.46,7ZM95.08,186.69h1.3l.6,28.69h-2.5Zm25.67,0H122l.6,28.69h-2.5Zm10.17-10.58-1.75,3.81h-2.9v-3.81Zm-1.66-4.73,1.44,2.45h-5.59l-4-2.45h8.17ZM124,164.45v4.64h-6.68l-7.49-4.57-.17-.08H124ZM110.13,142a1,1,0,1,1-1-1A1,1,0,0,1,110.13,142ZM108,154.15a1.14,1.14,0,0,0,.87-1.11V147.4l.59-1.07.59,1.07V153a1.14,1.14,0,0,0,.87,1.11c.07,0,7,1.75,8.76,8H99.19C101,155.94,107.65,154.22,108,154.15Zm-13.48,10.3h14.34l-.17.08-7.49,4.57H94.48Zm-4.89,6.93H97.4l-4,2.45H88.14Zm3,4.73v3.81h-2.9l-1.75-3.81Zm-2.49,6.1h1a2.71,2.71,0,0,0,.75,1.08,3.91,3.91,0,0,0-.08.8,2.64,2.64,0,0,0,1.07,2.09l-.61,29.22H90.07Zm-4.79,35.46h44.8v1.71H85.29ZM27.13,201.82a1.14,1.14,0,0,0,.42-.25,3.52,3.52,0,0,1,2.48-1c3.14,0,7,3.74,9.16,7.27-1.28-.65-2.65-1.19-3.88-1.68-.85-.34-1.66-.66-2.27-1a2.41,2.41,0,0,0-.66-.31,1.14,1.14,0,0,0-.86,2.1l.36.19c1,.72,2.72,3.35,3.89,5.1.5.74,1,1.43,1.34,2a1.14,1.14,0,0,0,.93.48c2.28,0,3,3,3.18,4.65H27.69l-1.42-17.18A6.69,6.69,0,0,1,27.13,201.82Zm-3.58-4.26h0l1.81,21.81H21.75Zm0-3.35.65.17-1.06.9h-.09l-.6-.78Zm-4.32,16.52a11.44,11.44,0,0,0-1.61-4.94h0a3.48,3.48,0,0,0,.82.09,5.74,5.74,0,0,0,2.16-.5l-1.16,14H16.68C17.78,217.26,19.4,213.64,19.25,210.73Zm1.25,10.93H86v1.43H15.34l-.92-1.43H20.5Zm-4.64,20.47h1.52c0,.1.05.2.08.3a10.88,10.88,0,0,0-1.6.17Zm-6,13.69a9.91,9.91,0,0,1,1.31-3,40.25,40.25,0,0,0,2.24-4.67c1.29-3.3,2.35-3.34,4.68-3.41l1.15-.05a1.14,1.14,0,0,0,.92-1.7,3.86,3.86,0,0,1-.54-2.67,6.57,6.57,0,0,1,.16.94,1.14,1.14,0,0,0,.57.89,10.6,10.6,0,0,0,2.92,1.07,20,20,0,0,1-.79,5.63,1.14,1.14,0,0,0,0,.46,20.62,20.62,0,0,1,0,5.8,26.56,26.56,0,0,1-2.24,5.85H15.38c-1-2-.25-5,.18-6.17a1.45,1.45,0,0,0,.31-.86,1.17,1.17,0,0,0-1.15-1.16,1.24,1.24,0,0,0-1.13.82A11.72,11.72,0,0,1,9.84,255.82Zm4.88,11.77H74.85l.6,1.31H6.33l-.6-1.31ZM9.35,275.5l-2-4.32H76.49l.43.93a1.15,1.15,0,0,0,.24.34L83,278.12v2.74H12.39Zm16.28,10.87h-13v-3.23h13ZM13.58,298h0a1.14,1.14,0,0,1,1.14-1.09A1.14,1.14,0,0,0,13.58,298Zm8.85,61.72H15.86V299.18h6.57Zm-6.6-62.82a2.77,2.77,0,0,1-1.37-2.3,3.51,3.51,0,0,1,.44-2.06,1,1,0,0,0,.54-1.1,1.19,1.19,0,0,0-1-1,2.4,2.4,0,0,1-1.64-1.83H25.5a2.4,2.4,0,0,1-1.64,1.83,1.19,1.19,0,0,0-1,1,1,1,0,0,0,.54,1.1,3.51,3.51,0,0,1,.44,2.06,2.79,2.79,0,0,1-1.38,2.3ZM41.13,314h1.3l.6,28.7h-2.5Zm-1.94-9.88H70v3.11H39.19Zm6.15,39.84a1.18,1.18,0,0,0,0-.12,1.14,1.14,0,0,0,0-.19l-.63-30.17a2.64,2.64,0,0,0,1.07-2.09,3.9,3.9,0,0,0-.08-.79,2.71,2.71,0,0,0,.75-1.08h4.94a7.74,7.74,0,0,0-4.52,7v32.17H45.33Zm14.73,4.76H49.16V316.52a5.45,5.45,0,1,1,10.9,0ZM45.33,351H63.88v2.7H45.33Zm17-2.29V316.52a7.72,7.72,0,0,0-4.5-7h4.93a2.7,2.7,0,0,0,.75,1.08,3.91,3.91,0,0,0-.08.79,2.64,2.64,0,0,0,1.07,2.09l-.63,30.34h0v4.88ZM66.79,314h1.3l.6,28.7h-2.5Zm2.31-3a1.25,1.25,0,0,1,.05.42c0,.13-.13.25-.24.32H66c-.11-.08-.24-.2-.24-.32a1.25,1.25,0,0,1,.05-.42,1.14,1.14,0,0,0,.22-1.46h2.88a1.14,1.14,0,0,0,.22,1.46Zm1.51-9.14h-32l-1-1.25a15.31,15.31,0,0,0,2.65-3,1.84,1.84,0,0,1,1.61-.83,2.17,2.17,0,0,1,1.1.28,1.15,1.15,0,0,0,.67.6,2,2,0,0,0,.64.1,6.51,6.51,0,0,0,3-1.21,6.92,6.92,0,0,1,2.14-1,4.47,4.47,0,0,0,2.28-.78,5.35,5.35,0,0,1,5.76,0,4.47,4.47,0,0,0,2.28.78,6.92,6.92,0,0,1,2.14,1,6.51,6.51,0,0,0,3,1.21,2,2,0,0,0,.64-.1,1.14,1.14,0,0,0,.67-.6,2.17,2.17,0,0,1,1.1-.28,1.84,1.84,0,0,1,1.61.83,15.31,15.31,0,0,0,2.65,3Zm-27.39,7.68a1.14,1.14,0,0,0,.22,1.46,1.24,1.24,0,0,1,.05.42c0,.13-.13.25-.24.32H40.3c-.11-.08-.24-.2-.24-.32a1.24,1.24,0,0,1,.05-.42,1.14,1.14,0,0,0,.22-1.46ZM43,359.71H40.5V345H43v14.76ZM45.33,356H63.88v3.75H45.33Zm23.38,3.75H66.17V345h2.54Zm14.29,0H71V343.94a1.15,1.15,0,0,0,0-.12,1.14,1.14,0,0,0,0-.19l-.63-30.17a2.64,2.64,0,0,0,1.07-2.09,3.91,3.91,0,0,0-.08-.79,2.83,2.83,0,0,0,1-2.22v-5l1.74-2.29a1.15,1.15,0,0,0-.27-1.64,12.61,12.61,0,0,1-3-3.08,4.12,4.12,0,0,0-3.5-1.83,4.18,4.18,0,0,0-2.69.91,12.61,12.61,0,0,1-1.54-.82,7.33,7.33,0,0,0-3.27-1.32,2.44,2.44,0,0,1-1.16-.47,7.63,7.63,0,0,0-8.06,0,2.44,2.44,0,0,1-1.16.47,7.34,7.34,0,0,0-3.27,1.32,12.6,12.6,0,0,1-1.54.82,4.18,4.18,0,0,0-2.69-.91,4.12,4.12,0,0,0-3.5,1.83,12.63,12.63,0,0,1-3,3.08,1.14,1.14,0,0,0-.28,1.64l1.74,2.29v5a2.82,2.82,0,0,0,1,2.22,3.9,3.9,0,0,0-.08.79,2.64,2.64,0,0,0,1.07,2.09l-.63,30.34h0v15.9H24.71V298s0,0,0,0a4.76,4.76,0,0,0,1.41-3.39,7,7,0,0,0-.4-2.5,5.26,5.26,0,0,0,2.19-4.58v-4.37H83Zm2.29-77.52a1.13,1.13,0,0,0,0-.19v-3.25h38.2a5,5,0,0,0,2.09,3.44,7,7,0,0,0-.4,2.5,5,5,0,0,0,2.21,4.07l-.07,4h0l-1.16,63.94a1.07,1.07,0,0,0,0,.75l0,2.25H85.29Zm48.55,77.52h-5.43l0-1.46h7.5l0,1.46Zm19.71,0,0-1.46h7.5l0,1.46Zm25.13,0,0-1.46h7.5l0,1.46Zm25.13,0,0-1.46h7.5l0,1.46Zm26.83,0,0-1.46h7.5l0,1.46Zm25.13,0,0-1.46h7.5l0,1.46Zm25.13,0,0-1.46h7.5l0,1.46Zm31,0H306l0-1.46h7.5l0,1.46Zm62-45.74h1.3l.6,28.7h-2.5ZM372,304.1h30.85v3.11H372Zm6.15,39.71h0l-.63-30.34a2.64,2.64,0,0,0,1.07-2.09,3.9,3.9,0,0,0-.08-.79,2.7,2.7,0,0,0,.75-1.08h4.93a7.72,7.72,0,0,0-4.5,7v32.17h-1.54v-4.88Zm14.73,4.89h-10.9V316.52a5.45,5.45,0,1,1,10.9,0ZM378.12,351h18.55v2.7H378.12Zm17-2.29V316.52a7.74,7.74,0,0,0-4.52-7h4.94a2.71,2.71,0,0,0,.75,1.08,3.9,3.9,0,0,0-.08.79,2.64,2.64,0,0,0,1.07,2.09l-.63,30.34h0v4.88ZM399.58,314h1.3l.6,28.7H399Zm2.31-3a1.24,1.24,0,0,1,.05.42c0,.13-.13.25-.24.32h-2.94c-.11-.08-.24-.2-.24-.32a1.24,1.24,0,0,1,.05-.42,1.14,1.14,0,0,0,.21-1.46h2.88a1.14,1.14,0,0,0,.22,1.46Zm1.51-9.14h-32l-1-1.25a15.31,15.31,0,0,0,2.65-3,1.84,1.84,0,0,1,1.61-.83,2.17,2.17,0,0,1,1.1.28,1.14,1.14,0,0,0,.67.6,2,2,0,0,0,.64.1,6.51,6.51,0,0,0,3-1.21,6.92,6.92,0,0,1,2.14-1,4.47,4.47,0,0,0,2.28-.78,5.35,5.35,0,0,1,5.76,0,4.47,4.47,0,0,0,2.28.78,6.92,6.92,0,0,1,2.14,1,6.51,6.51,0,0,0,3,1.21,2,2,0,0,0,.64-.1,1.14,1.14,0,0,0,.67-.6,2.17,2.17,0,0,1,1.1-.28,1.84,1.84,0,0,1,1.61.83,15.31,15.31,0,0,0,2.65,3ZM376,309.49a1.14,1.14,0,0,0,.22,1.46,1.25,1.25,0,0,1,.05.42c0,.13-.13.25-.24.32h-2.94c-.11-.08-.24-.2-.24-.32a1.25,1.25,0,0,1,.05-.42,1.14,1.14,0,0,0,.22-1.46Zm-.17,50.22h-2.54V345h2.54v14.76Zm2.29-3.75h18.55v3.75H378.12Zm23.38,3.75H399V345h2.54Zm2.28-15.91h0l-.63-30.34a2.64,2.64,0,0,0,1.07-2.09,3.9,3.9,0,0,0-.08-.79,2.82,2.82,0,0,0,1-2.22v-5l1.74-2.29a1.15,1.15,0,0,0-.27-1.64,12.62,12.62,0,0,1-3-3.08,4.12,4.12,0,0,0-3.5-1.83,4.18,4.18,0,0,0-2.69.91,12.64,12.64,0,0,1-1.54-.82,7.34,7.34,0,0,0-3.27-1.32,2.44,2.44,0,0,1-1.16-.47,7.63,7.63,0,0,0-8.06,0,2.44,2.44,0,0,1-1.16.47,7.33,7.33,0,0,0-3.27,1.32,12.6,12.6,0,0,1-1.54.82,4.18,4.18,0,0,0-2.69-.91,4.12,4.12,0,0,0-3.5,1.83,12.63,12.63,0,0,1-3,3.08,1.14,1.14,0,0,0-.28,1.64l1.74,2.29v5a2.83,2.83,0,0,0,1,2.22,3.91,3.91,0,0,0-.08.79,2.64,2.64,0,0,0,1.07,2.09L371,343.79h0v15.9H359V283.15h55.08v4.37a5.26,5.26,0,0,0,2.19,4.58,7,7,0,0,0-.4,2.5,4.76,4.76,0,0,0,1.41,3.39s0,0,0,0v61.67h-13.5v-15.9Zm25.56-57.43h-13v-3.23h13Zm-3.2,73.34h-6.57V299.18h6.57Zm1.43-69.23a1.19,1.19,0,0,0-1,1,1,1,0,0,0,.54,1.1,3.51,3.51,0,0,1,.44,2.06,2.79,2.79,0,0,1-1.38,2.3h-6.63a2.79,2.79,0,0,1-1.38-2.3,3.51,3.51,0,0,1,.44-2.06,1,1,0,0,0,.54-1.1,1.19,1.19,0,0,0-1-1,2.4,2.4,0,0,1-1.64-1.83h12.7A2.4,2.4,0,0,1,427.56,290.49Zm5.08-15-3,5.36H359v-2.74l5.86-5.67a1.15,1.15,0,0,0,.24-.34l.43-.93h69.12Z"/><path class="cls-1" d="M387.39,294.29a3.75,3.75,0,1,0,3.75,3.75A3.75,3.75,0,0,0,387.39,294.29Zm0,5.21a1.46,1.46,0,1,1,1.46-1.46A1.46,1.46,0,0,1,387.39,299.5Z"/><path class="cls-1" d="M122.49,258.87a1.14,1.14,0,0,0,1.12.94H318.4a1.14,1.14,0,0,0,.31-2.24L221.4,221.12a1.14,1.14,0,0,0-.8,0l-97.39,36.47A1.14,1.14,0,0,0,122.49,258.87ZM221,223.41l91.08,34.11H129.92Z"/></svg>