<svg id="Слой_1" data-name="Слой 1" xmlns="http://www.w3.org/2000/svg" viewBox="0 0 654 112"><defs><style>.cls-1{fill:#fff;}</style></defs><title>Монтажная область 2</title><path class="cls-1" d="M148.48,54.46H165c4.77,0,7.84-1.36,9.38-4.26,1.36-2.56,1.88-6.48,2.39-10.57h6V78.49h-6c-.51-3.41-.85-7.84-2.22-10.4-1.53-3.24-4.26-4.77-9.55-4.77H148.48V94.14c0,4.26,1.53,7.16,4.6,8.52,1.87.85,5.46,1.19,9,1.71V111H108.76v-6.65a30,30,0,0,0,7.33-1.19,7.31,7.31,0,0,0,4.26-6.67V26.36c0-7-.85-9.53-4.09-11.06-1.36-.68-3.58-1-7.5-1.54V7.12h91.38V36.61H193c-4.09-16.19-11.25-20.46-25.91-20.46H148.48Z"/><circle class="cls-1" cx="259.75" cy="59.11" r="52.86"/><path class="cls-1" d="M51.51,59.11a52,52,0,0,1,52-52H0v103.9H103.46A52,52,0,0,1,51.51,59.11Z"/><path class="cls-1" d="M373.77,30.69h-.15q-5.78,0-9.25-3a9.93,9.93,0,0,1-3.47-7.92q0-5.22,3.39-8.06t9.47-2.83V6.63h5.75V8.9a14.6,14.6,0,0,1,9.32,2.8q3.54,2.8,3.54,8.1A10,10,0,0,1,389,27.71q-3.43,3-9.22,3h-.22v3h-5.75Zm-5.21-7a7.28,7.28,0,0,0,5.1,1.59h.11v-11q-3.71,0-5.32,1.32a5.12,5.12,0,0,0-1.61,4.2,5.15,5.15,0,0,0,1.72,3.93m11-9.45v11h.22q6.71,0,6.71-5.52a5.18,5.18,0,0,0-1.59-4.15q-1.59-1.37-5.27-1.37Z"/><polygon class="cls-1" points="396.62 33.14 396.62 7.19 402.36 7.19 402.36 23.09 414.93 7.19 419.71 7.19 419.71 33.14 413.96 33.14 413.96 17.31 401.32 33.14 396.62 33.14"/><polygon class="cls-1" points="442.91 22.76 431.38 22.76 431.38 33.14 425.64 33.14 425.64 7.19 431.38 7.19 431.38 17.39 442.91 17.39 442.91 7.19 448.65 7.19 448.65 33.14 442.91 33.14 442.91 22.76"/><path class="cls-1" d="M463.54,7.19h4.26l11.38,26h-6l-2.11-4.82H460.2l-2.11,4.82h-5.93Zm-1.33,16.27H469l-3.33-7.75Z"/><polygon class="cls-1" points="499.97 22.76 488.44 22.76 488.44 33.14 482.69 33.14 482.69 7.19 488.44 7.19 488.44 17.39 499.97 17.39 499.97 7.19 505.71 7.19 505.71 33.14 499.97 33.14 499.97 22.76"/><path class="cls-1" d="M534.56,28.25a11.55,11.55,0,0,1-4.65,3.95,14.66,14.66,0,0,1-6.4,1.39,12.9,12.9,0,0,1-9.65-3.69,13.3,13.3,0,0,1-3.62-9.73A13.21,13.21,0,0,1,514,10.62a12.86,12.86,0,0,1,9.67-3.87,14.26,14.26,0,0,1,6.29,1.35,9.9,9.9,0,0,1,4.21,3.58l-3.89,3.56a7.32,7.32,0,0,0-2.82-2.17,8.24,8.24,0,0,0-3.37-.76,7.79,7.79,0,0,0-5.69,2.13,7.67,7.67,0,0,0-2.17,5.73A7.52,7.52,0,0,0,524,28a8.71,8.71,0,0,0,7.15-3.45Z"/><path class="cls-1" d="M540.46,10.64a13.34,13.34,0,0,1,22.85,9.53,13.37,13.37,0,1,1-26.73,0,13,13,0,0,1,3.87-9.53m4.26,15.2a7.43,7.43,0,0,0,10.51,0,7.82,7.82,0,0,0,2.11-5.69,7.63,7.63,0,0,0-2.2-5.67,7.29,7.29,0,0,0-10.42,0,7.7,7.7,0,0,0-2.17,5.67,7.7,7.7,0,0,0,2.17,5.67"/><path class="cls-1" d="M567.78,7.19h11.61q9,0,9,6.63a7,7,0,0,1-2.52,5.56q3.38,1.59,3.38,6a6.57,6.57,0,0,1-2.75,5.82,12.78,12.78,0,0,1-7.38,1.89H567.78Zm5.75,5.38v4.75h5.37a4.79,4.79,0,0,0,2.59-.58,1.82,1.82,0,0,0,.89-1.61,2.23,2.23,0,0,0-.85-1.95,5.66,5.66,0,0,0-3.11-.61Zm0,9.93v5.26h5a7.88,7.88,0,0,0,3.63-.61,2.18,2.18,0,0,0,1.08-2.06,2.15,2.15,0,0,0-1-2,7,7,0,0,0-3.41-.61Z"/><path class="cls-1" d="M599.79,15.79h3.86q5.34,0,8.12,2.32a7.75,7.75,0,0,1,2.78,6.28,7.67,7.67,0,0,1-2.94,6.52q-3,2.22-8.29,2.22H594V7.19h5.75Zm0,5.38v6.6h3.67a7.76,7.76,0,0,0,3.89-.74,2.83,2.83,0,0,0,1.22-2.63q0-3.23-5-3.23Zm17.05-14h5.74V33.14h-5.74Z"/><path class="cls-1" d="M628.54,33.14v-26h5.74v15.9l12.57-15.9h4.78v26h-5.75V17.31L633.24,33.14ZM638.1,0a2.13,2.13,0,0,0,2.22,1.89,2.47,2.47,0,0,0,1.5-.48A2.09,2.09,0,0,0,642.62,0h4.82a5.9,5.9,0,0,1-2.3,4.28,7,7,0,0,1-4.6,1.8,7.24,7.24,0,0,1-5-1.65A7.18,7.18,0,0,1,633.28,0Z"/><path class="cls-1" d="M362.91,67.69h2.82q2.71-5.71,2.7-17.46V47.11H387.3V67.69h3V77.4h-5.38V73.06H368.28V77.4h-5.37Zm11-13.75q-.22,9.08-2.22,13.75h9.9V52.49h-7.64Z"/><polygon class="cls-1" points="394.75 73.06 394.75 47.11 400.5 47.11 400.5 63.02 413.06 47.11 417.85 47.11 417.85 73.06 412.1 73.06 412.1 57.23 399.46 73.06 394.75 73.06"/><path class="cls-1" d="M424,73.06V47.11h10.75a16.67,16.67,0,0,1,5.41.78A7.83,7.83,0,0,1,443.62,50a8.36,8.36,0,0,1,1.67,2.82,10.14,10.14,0,0,1,.5,3.23,8.4,8.4,0,0,1-2.67,6.28q-2.67,2.58-8.34,2.58h-5v8.15Zm5.75-20.57v7h4.93q5.11,0,5.12-3.52t-4.89-3.52Z"/><polygon class="cls-1" points="450.06 47.11 469.9 47.11 469.9 52.49 455.81 52.49 455.81 57.31 468.97 57.31 468.97 62.5 455.81 62.5 455.81 67.69 470.23 67.69 470.23 73.06 450.06 73.06 450.06 47.11"/><polygon class="cls-1" points="475.64 47.11 481.38 47.11 481.38 57.23 491.35 47.11 498.84 47.11 487.57 58.6 499.58 73.06 492.02 73.06 483.24 62.46 481.38 64.35 481.38 73.06 475.64 73.06 475.64 47.11"/><polygon class="cls-1" points="499.96 47.11 522.34 47.11 522.34 52.49 514 52.49 514 73.06 508.26 73.06 508.26 52.49 499.96 52.49 499.96 47.11"/><path class="cls-1" d="M528.48,50.56a13.34,13.34,0,0,1,22.85,9.53,13.36,13.36,0,1,1-22.85-9.53m4.26,15.2A7.12,7.12,0,0,0,538,67.95a7.05,7.05,0,0,0,5.26-2.17,7.81,7.81,0,0,0,2.11-5.69,7.63,7.63,0,0,0-2.21-5.67,7.29,7.29,0,0,0-10.42,0,7.7,7.7,0,0,0-2.17,5.67,7.71,7.71,0,0,0,2.17,5.67"/><path class="cls-1" d="M556.06,73.06V47.11h10.75a16.69,16.69,0,0,1,5.42.78A7.85,7.85,0,0,1,575.65,50a8.36,8.36,0,0,1,1.67,2.82,10,10,0,0,1,.5,3.23,8.41,8.41,0,0,1-2.67,6.28q-2.67,2.58-8.34,2.58h-5v8.15Zm5.75-20.57v7h4.93q5.12,0,5.12-3.52T567,52.49Z"/><path class="cls-1" d="M606.62,68.54H592.87V64.83l14.72-17.72h4.6V63.54h4v5h-4v4.52h-5.56Zm0-5V56.31l-6.34,7.23Z"/><path class="cls-1" d="M621.45,67.87a3.43,3.43,0,0,1,2.5-1,3.32,3.32,0,0,1,2.41,1,3,3,0,0,1,1,2.17,3.06,3.06,0,0,1-1,2.24,3.32,3.32,0,0,1-2.41,1,3.43,3.43,0,0,1-2.5-1,3.07,3.07,0,0,1-1-2.26,3,3,0,0,1,1-2.19"/><path class="cls-1" d="M634,50.5q3-3.65,8.47-3.65A10.36,10.36,0,0,1,651,50.52a14.55,14.55,0,0,1,3,9.56,14.68,14.68,0,0,1-3,9.58,10.27,10.27,0,0,1-8.43,3.65q-5.56,0-8.54-3.63t-3-9.6a14.66,14.66,0,0,1,3-9.58m4.45,15.29a4.88,4.88,0,0,0,4.1,2q5.48,0,5.48-7.67t-5.56-7.67a4.77,4.77,0,0,0-4.06,2A9.43,9.43,0,0,0,637,60.09a9.27,9.27,0,0,0,1.5,5.71"/><path class="cls-1" d="M373.34,95.24a6,6,0,0,0-1-.19V94.1h7.31V95a4.05,4.05,0,0,0-1,.17,1.17,1.17,0,0,0-.6,1.19v12.2a1.13,1.13,0,0,0,.6,1.17,6.73,6.73,0,0,0,1,.19v.94H372.3V110a4.58,4.58,0,0,0,1.07-.17,1.17,1.17,0,0,0,.58-1.19v-5.85h-6.85v5.85c0,.66.19,1,.61,1.17a6.53,6.53,0,0,0,1,.19v.94h-7.3V110a4.39,4.39,0,0,0,1-.17,1.17,1.17,0,0,0,.61-1.19V96.41a1.12,1.12,0,0,0-.61-1.16,6.19,6.19,0,0,0-1-.19V94.1h7.3V95a4.59,4.59,0,0,0-1.07.17,1.17,1.17,0,0,0-.58,1.19v5.12H374V96.41c0-.66-.19-1-.61-1.16"/><path class="cls-1" d="M390.29,111.28c-4.9,0-8.59-3.28-8.59-8.64a8.51,8.51,0,0,1,8.88-8.93,8.3,8.3,0,0,1,8.67,8.66,8.6,8.6,0,0,1-9,8.91m.14-16.43c-3.64,0-4.39,3.57-4.39,7.57,0,4.66.95,7.67,4.35,7.67,3.81,0,4.51-3.85,4.51-7.5,0-4.3-.87-7.74-4.47-7.74"/><path class="cls-1" d="M401.33,110a4.29,4.29,0,0,0,1-.17,1.16,1.16,0,0,0,.6-1.19V96.4c0-.6-.19-1-.6-1.16a7.24,7.24,0,0,0-1-.2V94.1h7.79c4.05,0,6.11,1.58,6.11,4,0,1.82-1.55,3.4-4.17,3.91v.1c3.57.17,5.19,1.77,5.19,4,0,3.25-3.2,4.8-6.89,4.8h-8Zm5.66-8.25h.51c2.5,0,3.42-1.24,3.42-3.18,0-2.24-1.16-3.18-3-3.18H407Zm.82,1.14H407v6.8h1.12c2.74,0,4-1.29,4-3.42,0-1.75-.95-3.38-4.25-3.38"/><path class="cls-1" d="M426.85,100.84c3,0,5.75,1.53,5.75,4.74s-2.81,5.34-6.07,5.34H418.3V110a3.51,3.51,0,0,0,1-.19c.41-.2.6-.51.6-1.17V96.41a1.17,1.17,0,0,0-.6-1.19,6.58,6.58,0,0,0-1-.17V94.1h7.3V95a3.35,3.35,0,0,0-1,.19c-.41.19-.61.51-.61,1.16v4.44ZM424,109.63h1.38c2.28,0,3.16-1.58,3.16-3.81s-.9-3.69-2.77-3.69H424Zm15.26.15a6.6,6.6,0,0,0,1,.19v.94H433V110a4.39,4.39,0,0,0,1-.17,1.16,1.16,0,0,0,.61-1.19V96.41a1.12,1.12,0,0,0-.61-1.16,6.25,6.25,0,0,0-1-.19V94.1h7.3V95a4.55,4.55,0,0,0-1.07.17,1.17,1.17,0,0,0-.58,1.19v12.21c0,.65.19,1,.6,1.17"/><path class="cls-1" d="M443.54,109.75c.46-.27.53-.63.53-1.33V96.6c0-.76-.12-1.12-.58-1.33a3.81,3.81,0,0,0-1.07-.22V94.1h13v4.2h-1c-.58-2.3-1.6-2.91-3.69-2.91h-2.64v6.28h2a1.33,1.33,0,0,0,1.31-.6,4.8,4.8,0,0,0,.34-1.5h1.07v5.53h-1.07a5.54,5.54,0,0,0-.32-1.48,1.36,1.36,0,0,0-1.34-.65h-2v6.67h3.11c2.38,0,3.2-1,4.1-3.76l.92.1-.42,5H442.42V110a2.59,2.59,0,0,0,1.12-.22"/><path class="cls-1" d="M469.92,108.52a1.19,1.19,0,0,0,.66,1.21,6.11,6.11,0,0,0,1.28.25v.94h-7.59V110a4.43,4.43,0,0,0,1-.17,1.17,1.17,0,0,0,.6-1.19v-12c0-.76-.12-1.12-.58-1.33a3.87,3.87,0,0,0-1.07-.22V94.1h13v4.2h-1c-.58-2.3-1.6-2.91-3.69-2.91h-2.65Z"/><path class="cls-1" d="M493,98.78c0,3.3-2.79,5.32-5.95,5.32h-2.64v4.51c0,.61.19,1,.6,1.17a6.06,6.06,0,0,0,1.12.19v.94h-7.38V110a4.37,4.37,0,0,0,1-.17c.41-.17.61-.56.61-1.19V96.41a1.11,1.11,0,0,0-.61-1.16,4.37,4.37,0,0,0-1-.19V94.1h8.63c2.94,0,5.61,1.48,5.61,4.69m-8.59,4h1.38c2.26,0,3.11-1.58,3.11-3.79s-.85-3.64-2.72-3.64h-1.77Z"/><path class="cls-1" d="M498,105.09l-1.33,3.52c-.22.58,0,1,.7,1.19.22.08.83.1,1.39.18v.94h-5.51V110a3.83,3.83,0,0,0,1-.27,1.54,1.54,0,0,0,1-1.1l5.9-14.82h2l5.44,14.82a1.47,1.47,0,0,0,.94,1.1,2.82,2.82,0,0,0,.95.27v.94H502.8V110a8.35,8.35,0,0,0,1.19-.22.86.86,0,0,0,.56-1.14l-1.21-3.52Zm4.9-1.29-2.09-6.09-2.33,6.09Z"/><path class="cls-1" d="M523.46,95.24a6.17,6.17,0,0,0-1-.19V94.1h7.3V95a4.07,4.07,0,0,0-1,.17,1.17,1.17,0,0,0-.6,1.19v12.2a1.13,1.13,0,0,0,.6,1.17,6.74,6.74,0,0,0,1,.19v.94h-7.3V110a4.59,4.59,0,0,0,1.07-.17,1.17,1.17,0,0,0,.58-1.19v-5.85h-6.85v5.85c0,.66.19,1,.61,1.17a6.52,6.52,0,0,0,1,.19v.94h-7.31V110a4.39,4.39,0,0,0,1-.17,1.17,1.17,0,0,0,.61-1.19V96.41a1.12,1.12,0,0,0-.61-1.16,6.16,6.16,0,0,0-1-.19V94.1h7.31V95a4.57,4.57,0,0,0-1.07.17,1.17,1.17,0,0,0-.58,1.19v5.12h6.85V96.41c0-.66-.19-1-.61-1.16"/><path class="cls-1" d="M550,95a4.83,4.83,0,0,0-1,.17,1.17,1.17,0,0,0-.61,1.19v12.2a1.11,1.11,0,0,0,.64,1.17,6.18,6.18,0,0,0,1,.19v.94h-7.28V110a4.8,4.8,0,0,0,1-.17,1.17,1.17,0,0,0,.58-1.19V97.72l-7.4,13.2h-5.07V110a4.35,4.35,0,0,0,1-.17,1.16,1.16,0,0,0,.61-1.19V96.41a1.12,1.12,0,0,0-.61-1.16,6.16,6.16,0,0,0-1-.19V94.1h7.31V95a4.59,4.59,0,0,0-1.07.17,1.17,1.17,0,0,0-.58,1.19v10.92L545,94.1h5Z"/></svg>