<svg id="Слой_1" data-name="Слой 1" xmlns="http://www.w3.org/2000/svg" viewBox="0 0 238 132"><defs><style>.cls-1{fill:none;}.cls-2{fill:#8ac000;}</style></defs><title>Монтажная область 39</title><rect class="cls-1" width="238" height="132"/><path class="cls-2" d="M126,119.88a3.5,3.5,0,1,1,3.5,3.5,3.5,3.5,0,0,1-3.5-3.5"/><path d="M21.05,110.39q0,6.05-3.26,9.33T8.64,123H1V98.8H9.18q5.69,0,8.78,3t3.09,8.6m-6.63.23a7.83,7.83,0,0,0-1.28-4.93,4.7,4.7,0,0,0-3.9-1.6H7.38v13.55H8.8a5.09,5.09,0,0,0,4.27-1.73,8.5,8.5,0,0,0,1.36-5.29"/><rect x="42.22" y="98.7" width="6.08" height="24.29"/><path d="M68.26,113.93a9.69,9.69,0,0,1-2.32,6.9,8.49,8.49,0,0,1-6.51,2.48A8.32,8.32,0,0,1,53,120.78a11.17,11.17,0,0,1,0-13.71,8.58,8.58,0,0,1,6.52-2.44,9.12,9.12,0,0,1,4.59,1.13A7.64,7.64,0,0,1,67.18,109a10.67,10.67,0,0,1,1.08,4.93m-11.41,0a8.18,8.18,0,0,0,.61,3.54,2.1,2.1,0,0,0,2,1.22,2,2,0,0,0,2-1.22,8.47,8.47,0,0,0,.58-3.54,8,8,0,0,0-.59-3.49,2.31,2.31,0,0,0-4,0,7.86,7.86,0,0,0-.61,3.5"/><rect x="70.67" y="104.95" width="6.08" height="18.04"/><rect x="70.67" y="98.7" width="6.08" height="4.07"/><path d="M89.08,118.39a8.87,8.87,0,0,0,2.94-.62v4.54a11.86,11.86,0,0,1-2.34.77,12.89,12.89,0,0,1-2.61.23q-3.06,0-4.42-1.54a7,7,0,0,1-1.35-4.72v-7.44H79.17V105H81.3v-4.61l6.13-1.07V105h3.88v4.67H87.43v7q0,1.75,1.65,1.75"/><path d="M103.15,118.39a8.87,8.87,0,0,0,2.94-.62v4.54a11.84,11.84,0,0,1-2.34.77,12.89,12.89,0,0,1-2.61.23q-3.06,0-4.42-1.54a7,7,0,0,1-1.35-4.72v-7.44H93.25V105h2.13v-4.68l6.13-1V105h3.88v4.67h-3.88v7q0,1.75,1.65,1.75"/><path d="M122.34,106.76a8.42,8.42,0,0,0-6.15-2.13,8.33,8.33,0,0,0-6.44,2.44q-2.25,2.44-2.25,7a9.15,9.15,0,0,0,2.43,6.82,9.33,9.33,0,0,0,6.84,2.4,20,20,0,0,0,3.64-.29,10.54,10.54,0,0,0,2.94-1l-.93-4.07a12,12,0,0,1-4.91,1,4.17,4.17,0,0,1-2.78-.86,3.12,3.12,0,0,1-1.08-2.37h10.87v-2.77a8.19,8.19,0,0,0-2.17-6.12m-8.58,5a3.3,3.3,0,0,1,.85-2.17,2.5,2.5,0,0,1,1.8-.69,2.35,2.35,0,0,1,1.86.78,3.13,3.13,0,0,1,.72,2.09Z"/><path d="M37.7,106.76a8.42,8.42,0,0,0-6.15-2.13,8.32,8.32,0,0,0-6.44,2.44q-2.26,2.44-2.26,7a9.15,9.15,0,0,0,2.43,6.82,9.33,9.33,0,0,0,6.84,2.4,20,20,0,0,0,3.64-.29,10.54,10.54,0,0,0,2.94-1l-.93-4.07a12,12,0,0,1-4.91,1,4.17,4.17,0,0,1-2.78-.86A3.12,3.12,0,0,1,29,115.65H39.87v-2.77a8.19,8.19,0,0,0-2.17-6.12m-8.58,5a3.3,3.3,0,0,1,.85-2.17,2.5,2.5,0,0,1,1.8-.69,2.36,2.36,0,0,1,1.86.78,3.14,3.14,0,0,1,.72,2.09Z"/></svg>