<svg id="Слой_1" data-name="Слой 1" xmlns="http://www.w3.org/2000/svg" viewBox="0 0 220 132"><defs><style>.cls-1{fill:none;}.cls-2{fill:#28478b;}</style></defs><title>Монтажная область 40</title><rect class="cls-1" width="220" height="132"/><path class="cls-2" d="M88.91,83.89v22.65a15.33,15.33,0,0,0-2.09,2V83.89H61.74v20.62H59.66V83.89H34.57v20.66H32.49V83.89H7.4v23.54L1,128.78H6.63l2.83-9.45h.81l4.67,9.45h6.8l-4.53-9.45H27.49l-2.85,9.45h6.15l2.81-9.43H35v0h13.7l-2.72,9.43h6.2l2.63-9.43h2.79l.07,9.43h5.2l6-9.43h3.91l-2,9.43h6.11l2-9.43h3.53c-.14,2.92.61,5.58,2.54,7.36,2.37,2.17,6,2.59,8.69,2.59a52,52,0,0,0,11.34-1.39l2.12-8.56h7V83.89ZM31.59,105.75,31.22,107l-3.33,11.09-.13.39h-11l-.86-1.81,11.83-12.09h-7.6l-9.25,10,3-10H8.3V84.79H31.59v21Zm6.48,9.38h0c-.23,0-.45,0-.71,0H35l.69-2.55.33-1.27.78-3H39c2,0,3.22.11,3.67.75.35.48.3,1.3-.11,2.55-.7,2.15-1.59,3.25-4.46,3.47m17,3.31,2.45-8.71.09,8.71Zm3.73-13.93H52.92l-4,13.93H42.74a8.31,8.31,0,0,0,5.66-6.7c.49-2.57.26-4.26-.79-5.52-1.57-1.88-4.72-1.72-7.52-1.72H35.47V84.79H58.76v19.73Zm14.15,13.93H69.4l5.31-8.35-1.8,8.35Zm13-13.54v4.82a19.45,19.45,0,0,0-3.11,6.67,13.45,13.45,0,0,0-.37,2H79l2.93-13.9H72.08l-8.82,13.9h-.64V84.79h23.3v20.12Zm13.44,19.22a22.29,22.29,0,0,1-3.92.4c-3.36,0-5.7-1.56-5.75-5.21h10.86l-1.19,4.81Zm13.76-5.69h-5.87l1-3.88H96.45l-1,3.88H89.8v-.8c.09-.44.16-.9.27-1.39,1-4.19,3.78-8.32,8.54-8.32,1.88,0,3.75.72,3.49,3.32h7a6.21,6.21,0,0,0-.58-5.18c-1.49-2.07-4.5-2.9-8.39-2.9A19,19,0,0,0,89.8,105.9V84.79h23.32v33.66Z"/></svg>