<svg id="Слой_1" data-name="Слой 1" xmlns="http://www.w3.org/2000/svg" viewBox="0 0 108 51"><defs><style>.cls-1{fill:#0078c1;}</style></defs><title>Монтажная область 1_1</title><polygon class="cls-1" points="54.99 30.89 58.94 17.76 55.05 17.76 55.05 15.56 62.56 15.56 62.56 17.75 58.61 30.84 62.76 30.84 62.76 33.1 54.99 33.1 54.99 30.89"/><path class="cls-1" d="M48.48,26.51l.58-8.77h.19l.58,8.77ZM44.74,33.1H48l.31-4.66H50l.31,4.66h3.3L51.81,15.57H46.51Z"/><path class="cls-1" d="M68,25.21V17.74h.89c.36,0,.63.32.63.87v5.72c0,.55-.26.87-.63.87ZM64.66,33.1H68v-6H70c2.37,0,2.74-1.91,2.74-3.14V18.7c0-1.23-.37-3.13-2.74-3.13H64.66Z"/><path class="cls-1" d="M83.27,33.1l-1.63-6.46a3.24,3.24,0,0,0,1-2.63V18.7c0-1.23-.38-3.13-2.74-3.13H74.62V33.1H78v-6h.56l1.1,6ZM78,17.74h.89c.36,0,.63.32.63.87v5.72c0,.55-.26.87-.63.87H78Z"/><polygon class="cls-1" points="103.61 15.56 101.41 27.89 99.22 15.56 94.83 15.56 94.83 33.1 98.2 33.1 98.2 22.1 98.33 22.1 100.06 33.1 102.76 33.1 104.5 22.1 104.62 22.1 104.62 33.1 108 33.1 108 15.56 103.61 15.56"/><path class="cls-1" d="M90.17,15.56h-2.8c-2.37,0-2.51,1.91-2.51,3.13V30c0,1.23.14,3.13,2.51,3.13h2.8c2.36,0,2.51-1.91,2.51-3.13V18.7c0-1.23-.15-3.13-2.51-3.13m-1.4,15.37a.72.72,0,0,1-.75-.7V18.36a.75.75,0,0,1,1.49,0V30.24a.72.72,0,0,1-.75.7"/><path class="cls-1" d="M39.73,21.14h3.16V18.7c0-1.23-.15-3.13-2.51-3.13h-2.8c-2.37,0-2.51,1.91-2.51,3.13V30c0,1.23.14,3.13,2.51,3.13h2.8c2.36,0,2.51-1.91,2.51-3.13V24.45h-4v2h.88v3.81a.75.75,0,0,1-1.5,0V18.36a.75.75,0,0,1,1.49,0v2.78Z"/><path class="cls-1" d="M108,38.95H35.08V50.64H108ZM43,48.47H41.19L39.6,43.82h0c.09.81.31,2,.31,2.84v1.81H38.14V40.84h1.78l1.57,4.79h0c-.05-.85-.29-2.05-.29-2.89v-1.9H43Zm20.82-6.18H61.35v1.5h2.19v1.44H61.35V47h2.44v1.44H59.5V40.84h4.29Zm20.55,0H81.9v1.5h2.19v1.44H81.9v3.24H80.05V40.84h4.29Zm20.6,0h-1.35v6.18h-1.7V42.28h-1.45V40.84h4.5Z"/><path class="cls-1" d="M28.2,9.43A29.38,29.38,0,0,0,24.1.36a31.45,31.45,0,0,0-3.79,7.93,28.69,28.69,0,0,0-.95,11.43,31.65,31.65,0,0,0,1.93,7.33,25.75,25.75,0,0,0,2.82,5.06,27.42,27.42,0,0,0,4.66-11.89A26.86,26.86,0,0,0,28.2,9.43M24.1,31a12.76,12.76,0,0,1-1.41-5.76,12.11,12.11,0,0,1,1.43-5.71,13,13,0,0,1,1.37,5.46,12.32,12.32,0,0,1-1.39,6m3.79-13.61a25.46,25.46,0,0,1-.52,4.78,29.52,29.52,0,0,0-.58-6.79A29.44,29.44,0,0,0,24.08,8a29.3,29.3,0,0,0-2.67,7.31,34.27,34.27,0,0,0-.62,6.87,34.06,34.06,0,0,1-.45-6.66,29.45,29.45,0,0,1,1-6,32.49,32.49,0,0,1,2.77-6.63,29.66,29.66,0,0,1,2.81,6.54,29.08,29.08,0,0,1,1,8"/><path class="cls-1" d="M17.57,33.1v5.51l0,0a4.93,4.93,0,1,1,7,7l0,0h0l0,0a9.85,9.85,0,1,1-7-16.79V15.65A17.49,17.49,0,1,0,30.39,45.1v-12Z"/></svg>