<svg id="Слой_1" data-name="Слой 1" xmlns="http://www.w3.org/2000/svg" viewBox="0 0 227 57"><defs><style>.cls-1{fill:#0079c0;}</style></defs><title>Монтажная область 2_1</title><rect class="cls-1" x="106.87" y="0.18" width="1.46" height="56.65"/><path class="cls-1" d="M75.21,26.71a.63.63,0,0,1-.65-.6V15.79a.65.65,0,0,1,1.28,0V26.11a.63.63,0,0,1-.65.6m1.21-13.34H74c-2,0-2.17,1.65-2.17,2.72v9.78c0,1.07.12,2.72,2.17,2.72h2.42c2,0,2.17-1.65,2.17-2.72V16.09c0-1.07-.12-2.72-2.17-2.72"/><polygon class="cls-1" points="30.86 13.37 36.44 13.37 36.44 15.26 33.78 15.26 33.78 28.59 30.86 28.59 30.86 13.37"/><path class="cls-1" d="M36.87,28.59h2.86l.28-4h1.38l.27,4h2.86L43,13.37H38.39Zm3.23-5.72.5-7.61h.16l.5,7.61Z"/><path class="cls-1" d="M48.7,23.26v2.86a.46.46,0,0,0,.46.5.48.48,0,0,0,.46-.5V22.59c0-.48-.08-1-1.17-1H47.25V19.92h1.23c.84,0,1.13-.2,1.13-1.13v-3a.48.48,0,0,0-.46-.5.46.46,0,0,0-.46.5v2.48H45.77V16.09c0-1.07.13-2.72,2.17-2.72h2.42c2,0,2.17,1.65,2.17,2.72v2.44a1.83,1.83,0,0,1-2,2.06v.15a1.79,1.79,0,0,1,2,2.07v3.06c0,1.07-.12,2.72-2.17,2.72H47.94c-2,0-2.17-1.65-2.17-2.72V23.26Z"/><polygon class="cls-1" points="54.46 13.37 61.22 13.37 61.22 28.59 58.5 28.59 58.5 15.26 57.19 15.26 57.19 28.59 54.46 28.59 54.46 13.37"/><path class="cls-1" d="M63.34,28.59h2.92V23.42h1.67c2,0,2.37-1.65,2.37-2.72v-4.6c0-1.07-.32-2.72-2.37-2.72H63.34Zm2.92-6.85V15.26H67c.32,0,.55.28.55.76v5c0,.48-.23.76-.55.76Z"/><polygon class="cls-1" points="87.92 13.37 91.73 13.37 91.73 28.59 88.8 28.59 88.8 19.05 88.7 19.05 87.19 28.59 84.86 28.59 83.35 19.05 83.25 19.05 83.25 28.59 80.33 28.59 80.33 13.37 84.12 13.37 86.02 24.07 87.92 13.37"/><path class="cls-1" d="M24.62,14.92a22.08,22.08,0,0,1-.45,4.14,25.65,25.65,0,0,0-.5-5.89,25.57,25.57,0,0,0-2.35-6.36A25.46,25.46,0,0,0,19,13.16a29.72,29.72,0,0,0-.54,6,29.44,29.44,0,0,1-.39-5.78,25.67,25.67,0,0,1,.84-5.24,28.34,28.34,0,0,1,2.4-5.76A26,26,0,0,1,23.75,8a25.33,25.33,0,0,1,.87,6.9M21.33,26.73a11,11,0,0,1-1.23-5,10.5,10.5,0,0,1,1.24-5,11.27,11.27,0,0,1,1.19,4.73,10.65,10.65,0,0,1-1.21,5.21M24.89,8.06A25.55,25.55,0,0,0,21.33.19,27.28,27.28,0,0,0,18,7.07,24.92,24.92,0,0,0,17.22,17a27.44,27.44,0,0,0,1.68,6.36,22.28,22.28,0,0,0,2.45,4.39,23.76,23.76,0,0,0,4-10.31,23.34,23.34,0,0,0-.5-9.36"/><path class="cls-1" d="M15.66,28.59v4.78l0,0a4.28,4.28,0,0,1,6.06,6l0,0h0l0,0A8.54,8.54,0,0,1,8.57,28.63a8.37,8.37,0,0,1,1-1.27,8.54,8.54,0,0,1,6-2.49V13.45A15.18,15.18,0,1,0,26.79,39V28.59Z"/><path class="cls-1" d="M89,40.21c0,1.45-.66,1.7-2.34,1.7H85.12V35.31h1.54v2.55h.26c1.52,0,2.08.35,2.08,1.67ZM76.12,36.56H75v5.36H73.48V36.56H72.23V35.3h3.89Zm-11.87,3c0,1.34-.68,1.7-2.2,1.7v.65h-1.5v-.65c-1.52,0-2.22-.36-2.22-1.7V37.5c0-1.35.66-1.69,2.22-1.69v-.5H62v.5c1.54,0,2.2.34,2.2,1.69Zm-14-3H48.15v1.3H50v1.25H48.15v1.56h2.11v1.25h-3.7V35.3h3.7Zm-12.8,5.36H35.92V39h-.79v2.89H33.59V35.31h1.54v2.55h.79V35.31h1.54Zm54.26-8.26H30.86V43.81H91.73ZM59.83,37.45v2.12c0,.39.12.48.47.48h.25V37H60.3c-.34,0-.47.1-.47.49M87,39h-.34v1.73H87c.35,0,.45-.09.45-.47v-.79c0-.38-.1-.47-.45-.47M62.28,37H62V40h.24c.34,0,.47-.1.47-.49V37.44c0-.39-.12-.47-.47-.47"/><path class="cls-1" d="M128.31,24.4a4.61,4.61,0,0,1-3.41-1.34c-1.28-1.3-1.34-2.62-1.34-5.38s.06-4.08,1.34-5.38A4.85,4.85,0,0,1,133,15h-2a2.64,2.64,0,0,0-2.67-2.28,2.59,2.59,0,0,0-1.95.82c-.67.71-.8,1.5-.8,4.12s.13,3.42.8,4.12a2.58,2.58,0,0,0,1.95.82A2.69,2.69,0,0,0,131,20.33h2a4.58,4.58,0,0,1-4.71,4.06"/><polygon class="cls-1" points="139.24 16.53 139.24 24.29 137.34 24.29 137.34 16.53 134.35 16.53 134.35 14.88 142.11 14.88 142.11 16.53 139.24 16.53"/><path class="cls-1" d="M150.56,23.56a3.18,3.18,0,0,1-2.28.83,2.88,2.88,0,0,1-2.47-1.08v4.77h-1.89V14.88h1.86v1a2.91,2.91,0,0,1,2.49-1.11,3.22,3.22,0,0,1,2.3.83c.91.93,1.06,2.43,1.06,4s-.15,3.06-1.06,4m-2.78-7.11c-1.73,0-2,1.45-2,3.12s.24,3.14,2,3.14,1.95-1.47,1.95-3.14-.24-3.12-1.95-3.12"/><path class="cls-1" d="M155.48,20.13c0,1.63.84,2.63,2.39,2.63a2.81,2.81,0,0,0,2.28-1l1.21,1.13a4.41,4.41,0,0,1-3.52,1.47c-2.36,0-4.23-1.24-4.23-4.83,0-3.06,1.58-4.81,4-4.81s4,1.82,4,4.57v.8Zm4-2.6a2.06,2.06,0,0,0-3.73,0,2.91,2.91,0,0,0-.24,1.28h4.23a3.2,3.2,0,0,0-.26-1.28"/><polygon class="cls-1" points="171.47 24.29 171.47 18.25 169.3 22.56 168.11 22.56 165.9 18.25 165.9 24.29 164.01 24.29 164.01 14.88 165.88 14.88 168.7 20.48 171.51 14.88 173.36 14.88 173.36 24.29 171.47 24.29"/><polygon class="cls-1" points="182.22 24.29 182.22 17.81 178.19 24.29 176.3 24.29 176.3 14.88 178.19 14.88 178.19 21.26 182.22 14.88 184.12 14.88 184.12 24.29 182.22 24.29"/><polygon class="cls-1" points="194.68 24.29 194.68 18.25 192.5 22.56 191.32 22.56 189.11 18.25 189.11 24.29 187.22 24.29 187.22 14.88 189.09 14.88 191.91 20.48 194.71 14.88 196.57 14.88 196.57 24.29 194.68 24.29"/><path class="cls-1" d="M203,24.4c-2.12,0-4.19-1.3-4.19-4.83s2.08-4.81,4.19-4.81a3.86,3.86,0,0,1,3.1,1.32l-1.3,1.26a2.19,2.19,0,0,0-1.8-.89,2.12,2.12,0,0,0-1.74.83,3.48,3.48,0,0,0-.56,2.28,3.54,3.54,0,0,0,.56,2.3,2.12,2.12,0,0,0,1.74.84,2.19,2.19,0,0,0,1.8-.89l1.3,1.24A3.88,3.88,0,0,1,203,24.4"/><path class="cls-1" d="M207.7,24.29l2-3.86a2.62,2.62,0,0,1-1.95-2.67,2.82,2.82,0,0,1,3-2.88h4.44v9.41h-1.89V20.78h-1.73l-1.78,3.51Zm5.7-7.89h-2.21a1.37,1.37,0,0,0-1.54,1.45,1.35,1.35,0,0,0,1.54,1.41h2.21Z"/><path class="cls-1" d="M123.88,34.37h1.91v9.41h-1.91Zm6.07,9.41-3.8-4.9,3.58-4.51H132l-3.75,4.42,4,5Z"/><path class="cls-1" d="M138.77,41.94a11.17,11.17,0,0,1-.56-4.16c0-4.08.22-5.12,1.41-6.14s3.1-1.11,5.64-1.19v1.67c-1.22.11-3.14,0-4.21.72-.89.59-1.13,1.43-1.13,2.77a2.94,2.94,0,0,1,2.58-1.23,3.36,3.36,0,0,1,2.3.8A5.27,5.27,0,0,1,146,39c0,1.88-.33,3-1.15,3.79a3.77,3.77,0,0,1-2.71,1.06,3.52,3.52,0,0,1-3.4-1.95m4.77-.32a3.88,3.88,0,0,0,.59-2.51,3.85,3.85,0,0,0-.58-2.52,1.89,1.89,0,0,0-1.41-.59,1.81,1.81,0,0,0-1.43.59,3.79,3.79,0,0,0-.63,2.49,3.63,3.63,0,0,0,.67,2.54,2,2,0,0,0,2.78,0"/><path class="cls-1" d="M154.47,42.77a3.82,3.82,0,0,1-2.82,1.11,3.77,3.77,0,0,1-2.8-1.11,5,5,0,0,1-1.11-3.71,4.94,4.94,0,0,1,1.11-3.69,3.77,3.77,0,0,1,2.8-1.11,3.82,3.82,0,0,1,2.82,1.11,4.94,4.94,0,0,1,1.11,3.69,5,5,0,0,1-1.11,3.71M153,36.48a1.92,1.92,0,0,0-1.39-.54,1.88,1.88,0,0,0-1.37.54,3.65,3.65,0,0,0-.65,2.58,3.65,3.65,0,0,0,.65,2.58,1.89,1.89,0,0,0,1.37.56,1.93,1.93,0,0,0,1.39-.56,3.64,3.64,0,0,0,.65-2.58,3.64,3.64,0,0,0-.65-2.58"/><path class="cls-1" d="M163.27,43.77V36h-2.73v2.73c0,4-1.17,5-3,5h-.89V42.1h.3c.82,0,1.78-.19,1.78-3.82V34.37h6.44v9.41Z"/><path class="cls-1" d="M172.4,43.77H168V34.37h1.89v3.54h2.49a2.93,2.93,0,1,1,0,5.86m-.32-4.31h-2.17v2.77h2.17a1.39,1.39,0,1,0,0-2.77"/><polygon class="cls-1" points="177.43 43.77 177.43 34.37 179.32 34.37 179.32 42.12 182.51 42.12 182.51 34.37 184.4 34.37 184.4 42.12 187.58 42.12 187.58 34.37 189.47 34.37 189.47 43.77 177.43 43.77"/><path class="cls-1" d="M193.68,39.62c0,1.63.84,2.64,2.39,2.64a2.81,2.81,0,0,0,2.28-1l1.21,1.13A4.41,4.41,0,0,1,196,43.89c-2.36,0-4.23-1.24-4.23-4.83,0-3.06,1.58-4.81,4-4.81s4,1.82,4,4.57v.8Zm4-2.6a2.06,2.06,0,0,0-3.73,0,2.91,2.91,0,0,0-.24,1.28h4.23a3.21,3.21,0,0,0-.26-1.28"/><polygon class="cls-1" points="209.59 43.77 209.59 37.74 207.42 42.05 206.23 42.05 204.02 37.74 204.02 43.77 202.13 43.77 202.13 34.37 204 34.37 206.82 39.97 209.63 34.37 211.48 34.37 211.48 43.77 209.59 43.77"/><path class="cls-1" d="M217.46,45.65a2.49,2.49,0,0,1-2.62,1.86h-.76V45.8h.48c.78,0,1.08-.19,1.35-1l.52-1.48-3.3-9h2L217.4,41l2.19-6.64h2Z"/><path class="cls-1" d="M226.17,39.84h-1.48l-.41-9.28h2.3Zm-1.78,1.91h2.08v2h-2.08Z"/></svg>