<svg id="Слой_1" data-name="Слой 1" xmlns="http://www.w3.org/2000/svg" viewBox="0 0 402 132"><defs><style>.cls-1{fill:none;}.cls-2{fill:#d0d0d0;}.cls-3{fill:#e1e1e1;}.cls-4{fill:#646464;}.cls-5{fill:#7f7f7f;}.cls-6{fill:#8b8b8b;}.cls-7{fill:#a1a1a1;}.cls-8{fill:#b5b5b5;}.cls-9{fill:#bfbfbf;}.cls-10{fill:#d9d9d9;}.cls-11{fill:#e9e9e9;}</style></defs><title>Монтажная область 41</title><rect class="cls-1" width="402" height="132"/><path d="M243.76,122.62l4.94.77c1.6.24,2.47.92,2.47,2.13,0,1.74-1.4,2.91-3.48,2.91a4,4,0,0,1-4.26-3.87,6.07,6.07,0,0,1,.34-1.94m-45.4-8.71v5.27a7,7,0,0,1-2.76.68,2.4,2.4,0,0,1-2.57-2.52,2.78,2.78,0,0,1,2-2.71,12.43,12.43,0,0,1,3.29-.73m88.5,3.56a5.07,5.07,0,0,1-3.12,1.28,2.78,2.78,0,0,1-2.9-2.86c0-1.69.77-2.52,2.18-3.44Zm-55.78-5.55h-5.66c.1-3.34,1-4.74,3-4.74s2.61,1.26,2.71,4.74m16.07,3.24c-1.5,0-2.42-1.6-2.42-4.16,0-2.37,1-3.92,2.47-3.92s2.47,1.4,2.47,3.68c0,2.76-1,4.41-2.52,4.41m30-7.5v-1.79h-7.5v1.79l1.89.29.34.44-3.63,8.76-3.78-8.76.29-.44,2-.29v-1.79h-15a12.93,12.93,0,0,0-4.92-.82c-5.18,0-8.37,2.37-8.37,6.2,0,2.71,1.36,4.31,4.6,5.42-1.65,1.16-2.28,2.08-2.28,3.29a4.71,4.71,0,0,0,.63,2.08c-2.37,0-3.78,1.35-3.78,3.53,0,3.2,3,5,8.42,5,6.29,0,10.84-2.76,10.84-6.53,0-3-2.61-4.26-10.12-5l-1.55-.14a4,4,0,0,1,0-2.13,10.5,10.5,0,0,0,1.69.1c5.33,0,8.52-2.18,8.52-5.86a5.32,5.32,0,0,0-.88-3h3.26l7.5,15.83a7.42,7.42,0,0,1-2.28,3.15l-2.42-2.66a3.9,3.9,0,0,0-2.42,3.49,2.78,2.78,0,0,0,2.9,3c2.81,0,5.08-2.81,7-7.16l7-15.63ZM228.8,105c-6,0-9.53,3.63-9.53,9.24s3.44,9,9.53,9a17.32,17.32,0,0,0,8.18-2v-3.24a12.5,12.5,0,0,1-6.49,1.89c-3.34,0-5-1.84-5.23-5.66h11.81v-.48c0-5.47-2.91-8.71-8.28-8.71m-24.15,15.92-.39-.48v-7.94c0-3.53-.29-4.5-1.55-5.71s-3.39-1.79-6.1-1.79c-5,0-9.05,1.94-9.05,4.4,0,1,.58,1.4,2.13,1.4h4.21V107c3.15,0,4.45,1,4.45,3.49v1c-5.9,1.31-8.47,2-9.58,2.86a5,5,0,0,0-2.08,4.11,4.78,4.78,0,0,0,5.13,4.84c1.89,0,3.58-.63,6.49-2.42l.48,2h7.84V121ZM183.21,105.1a18.58,18.58,0,0,0-4.74,3.92l.34-4.06h-2.08l-6.39,2.13v1.69h2.57v11.62l-.39.48-1.89.15v1.89H181.9V121l-2.66-.15-.44-.48V110.23a6.76,6.76,0,0,1,.87,0c1.69,0,2.61.63,3.34,2.37h2.52l1-6.82a3.84,3.84,0,0,0-2.76-.68,2.76,2.76,0,0,0-.58,0m-34.9,6.53c-1.84-.73-2.52-1.31-2.52-2.32,0-1.21,1-2,2.66-2a5.8,5.8,0,0,1,2.61.68l.48.48.44,2.76h2.57v-5.37a28.63,28.63,0,0,0-6.78-.92c-4.74,0-7.89,2.18-7.89,5.52,0,2.47,1.65,3.82,7.26,6.19,1.74.68,2.28,1.21,2.28,2.23,0,1.31-1,2.08-2.81,2.08a8.14,8.14,0,0,1-3.58-.87l-.39-.44-.39-3.24H139.7v5.9a31.84,31.84,0,0,0,7.55,1c4.69,0,8.13-2.47,8.13-5.86,0-2.61-1.36-3.73-7.07-5.86M285,101.76a1.72,1.72,0,0,1,1.69,1.94c0,1.45-.91,2.22-2.31,3a4.44,4.44,0,0,1-1.28-2.89,1.89,1.89,0,0,1,1.89-2.08m-71,4.12v-5H210.9L208.67,105l-3,1.94v1.6h2.52v10.46c0,2.86,1.55,4.26,4.69,4.26a15.1,15.1,0,0,0,6.19-1.55v-2a12.57,12.57,0,0,1-1.79.19c-2.42,0-3.19-.68-3.19-3v-8.28h5v-2.61Zm-49.71,0v-5h-3.2L159,105l-3,1.94v1.6h2.52v10.46c0,2.86,1.55,4.26,4.69,4.26a13.71,13.71,0,0,0,6-1.55v-2a7.45,7.45,0,0,1-1.6.19c-2.42,0-3.19-.68-3.19-3v-8.28h4.79v-2.61ZM293.23,118l3.15-2.59v-5.76l-5.89,4.81-3.55-4.57c2.27-1.45,4.35-3.1,4.35-6.44a5.93,5.93,0,0,0-6.19-6.15,6.33,6.33,0,0,0-6.63,6.44,8.21,8.21,0,0,0,2,5.27c-2.53,1.51-4.71,3.44-4.71,7,0,4.11,3,7.26,7.94,7.26a8.53,8.53,0,0,0,5.86-2.23l1.45,1.84h6Z"/><path d="M70.94,105.05c-3.32.54-5,3-5,7.31s2.26,7.26,5.73,7.26c1.61,0,3.08-.54,6.17-2.05v3.52c-3.7,1.7-5.88,2.22-8.86,2.22-3.23,0-5.5-.86-7.36-2.75a10,10,0,0,1-2.85-7.21c0-6.22,4.61-10.43,11.34-10.43,4.47,0,7.54,2,7.54,5a3.24,3.24,0,0,1-3.55,3.26,5.84,5.84,0,0,1-3.13-1Z"/><path d="M54.54,113.35c3-3.76,4-5.27,4-7.12a3.32,3.32,0,0,0-3.41-3.32,4,4,0,0,0-2.81,1.15v7.65l-4.88,6.51V103.4H42.83l-7.72,12.8V103.4H32.44l-7,1.71v1.79l3.82.39V123H34.2l7.4-12.17V123H47Z"/><path d="M10.68,120.56c.53,0,.76,0,1.09,0,4,0,6.11-2.48,6.11-7.24,0-4-1.74-6.17-5-6.17a19.5,19.5,0,0,0-2.23.2Zm0,8.58,3.2.71v1.82H1.32v-1.82l2.86-.71v-22H1V105.3L8.69,103h2v2.62c3.6-2.14,4.84-2.52,6.68-2.52,4.27,0,7.41,3.93,7.41,9.38,0,6.3-4.2,10.53-10.82,10.53a30.61,30.61,0,0,1-3.28-.19Z"/><rect class="cls-2" x="99.41" y="77.32" width="4.88" height="9.62"/><rect class="cls-3" x="89.68" y="62.89" width="9.73" height="14.43"/><rect class="cls-4" x="47.48" y="86.94" width="19.24" height="4.81"/><rect class="cls-4" x="66.72" y="77.32" width="12" height="9.62"/><rect class="cls-5" x="66.72" y="72.5" width="12" height="4.82"/><rect class="cls-6" x="78.72" y="77.32" width="7.19" height="9.62"/><polygon class="cls-7" points="78.72 77.32 85.91 77.32 85.91 62.89 66.72 62.89 66.72 72.5 78.72 72.5 78.72 77.32"/><rect class="cls-7" x="85.91" y="77.32" width="3.78" height="9.62"/><rect class="cls-8" x="89.68" y="77.32" width="9.73" height="9.62"/><rect class="cls-9" x="66.72" y="57.03" width="19.18" height="5.86"/><rect class="cls-10" x="66.72" y="53.27" width="19.18" height="3.76"/><rect class="cls-11" x="85.9" y="57.03" width="3.78" height="5.86"/><rect class="cls-9" x="85.91" y="62.89" width="3.78" height="14.43"/></svg>