<svg id="Слой_1" data-name="Слой 1" xmlns="http://www.w3.org/2000/svg" viewBox="0 0 264 249"><defs><style>.cls-1{fill:none;}.cls-2{fill:#d0d0d0;}.cls-3{fill:#e0e0e0;}.cls-4{fill:#646464;}.cls-5{fill:#7f7f7f;}.cls-6{fill:#8a8a8a;}.cls-7{fill:#a1a1a1;}.cls-8{fill:#b4b4b4;}.cls-9{fill:#bebebe;}.cls-10{fill:#d7d7d7;}.cls-11{fill:#e8e8e8;}</style></defs><title>Монтажная область 42</title><rect class="cls-1" width="264" height="249"/><path d="M70.55,222c-3.3.53-5,3-5,7.27s2.25,7.21,5.7,7.21c1.61,0,3.07-.53,6.13-2v3.5c-3.68,1.69-5.85,2.21-8.81,2.21-3.21,0-5.47-.85-7.31-2.73a9.89,9.89,0,0,1-2.83-7.17c0-6.18,4.58-10.37,11.27-10.37,4.44,0,7.49,2,7.49,5a3.22,3.22,0,0,1-3.53,3.24,5.81,5.81,0,0,1-3.11-.94Z"/><path d="M54.25,230.25c3-3.73,4-5.24,4-7.07a3.3,3.3,0,0,0-3.39-3.3A3.9,3.9,0,0,0,52.08,221v7.6l-4.85,6.47V220.36H42.61l-7.67,12.72V220.36H32.29l-7,1.7v1.78l3.8.38v15.6H34l7.36-12.09v12.09h5.37Z"/><path d="M10.67,237.42c.52,0,.75,0,1.08,0,4,0,6.07-2.46,6.07-7.19,0-4-1.73-6.13-4.93-6.13a19.58,19.58,0,0,0-2.22.2Zm0,8.52,3.18.71v1.8H1.36v-1.8l2.84-.71V224.12H1v-1.87l7.64-2.32h2v2.61c3.58-2.13,4.81-2.5,6.64-2.5,4.24,0,7.37,3.91,7.37,9.32,0,6.26-4.17,10.47-10.75,10.47a29.84,29.84,0,0,1-3.26-.19Z"/><rect class="cls-2" x="98.85" y="194.45" width="4.85" height="9.56"/><rect class="cls-3" x="89.17" y="180.1" width="9.67" height="14.35"/><rect class="cls-4" x="47.24" y="204" width="19.12" height="4.78"/><rect class="cls-4" x="66.36" y="194.45" width="11.92" height="9.56"/><rect class="cls-5" x="66.36" y="189.65" width="11.92" height="4.79"/><rect class="cls-6" x="78.28" y="194.45" width="7.14" height="9.56"/><polygon class="cls-7" points="78.28 194.44 85.42 194.44 85.42 180.1 66.36 180.1 66.36 189.65 78.28 189.65 78.28 194.44"/><rect class="cls-7" x="85.42" y="194.45" width="3.75" height="9.56"/><rect class="cls-8" x="89.17" y="194.45" width="9.67" height="9.56"/><rect class="cls-9" x="66.36" y="174.28" width="19.06" height="5.82"/><rect class="cls-10" x="66.36" y="170.54" width="19.06" height="3.74"/><rect class="cls-11" x="85.42" y="174.28" width="3.75" height="5.82"/><rect class="cls-9" x="85.42" y="180.1" width="3.75" height="14.35"/><path d="M105,122.79l4.94.78c1.59.24,2.46.92,2.46,2.13,0,1.74-1.4,2.9-3.48,2.9a4,4,0,0,1-4.26-3.87,6,6,0,0,1,.34-1.93m-45.37-8.7v5.27a7,7,0,0,1-2.76.68,2.4,2.4,0,0,1-2.56-2.52,2.78,2.78,0,0,1,2-2.71,12.59,12.59,0,0,1,3.29-.73M148,117.64a5.07,5.07,0,0,1-3.12,1.28,2.78,2.78,0,0,1-2.9-2.86c0-1.69.77-2.51,2.18-3.43ZM92.31,112.1H86.65c.1-3.34,1-4.74,2.95-4.74s2.61,1.26,2.71,4.74m16.06,3.24c-1.5,0-2.42-1.6-2.42-4.16,0-2.37,1-3.92,2.47-3.92s2.47,1.4,2.47,3.68c0,2.76-1,4.4-2.52,4.4m30-7.5v-1.79h-7.5v1.79l1.89.29.34.44-3.63,8.76-3.77-8.76.29-.44,2-.29v-1.79H113a13,13,0,0,0-4.92-.82c-5.17,0-8.36,2.37-8.36,6.19,0,2.71,1.36,4.3,4.59,5.42-1.64,1.16-2.27,2.08-2.27,3.29a4.69,4.69,0,0,0,.63,2.08c-2.37,0-3.77,1.36-3.77,3.53,0,3.19,3,5,8.42,5,6.29,0,10.83-2.76,10.83-6.53,0-2.95-2.62-4.26-10.11-5l-1.54-.15a3.92,3.92,0,0,1,0-2.13,10.82,10.82,0,0,0,1.69.09c5.32,0,8.51-2.18,8.51-5.85a5.3,5.3,0,0,0-.88-3h3.25L126.6,124a7.44,7.44,0,0,1-2.27,3.14l-2.42-2.66a3.91,3.91,0,0,0-2.42,3.48,2.78,2.78,0,0,0,2.9,3c2.8,0,5.08-2.81,7-7.16l7-15.62ZM90,105.14c-6,0-9.53,3.63-9.53,9.24s3.43,9,9.53,9a17.31,17.31,0,0,0,8.17-2V118.1A12.5,12.5,0,0,1,91.73,120c-3.34,0-5-1.83-5.22-5.66h11.8v-.49c0-5.46-2.9-8.7-8.27-8.7M65.9,121l-.39-.48v-7.93c0-3.53-.29-4.5-1.54-5.7s-3.39-1.79-6.1-1.79c-5,0-9,1.94-9,4.4,0,1,.58,1.4,2.13,1.4h4.21v-3.73c3.14,0,4.45,1,4.45,3.48v1c-5.9,1.31-8.46,2-9.57,2.85A5,5,0,0,0,48,118.68a4.78,4.78,0,0,0,5.13,4.84c1.89,0,3.58-.63,6.48-2.42l.48,2h7.84V121.2ZM44.48,105.28a18.61,18.61,0,0,0-4.74,3.92l.34-4.06H38l-6.39,2.13V109h2.57v11.61l-.39.48-1.89.15v1.88H43.17V121.2L40.51,121l-.44-.48V110.41a7.1,7.1,0,0,1,.87,0c1.69,0,2.61.63,3.34,2.37H46.8l1-6.82a3.82,3.82,0,0,0-2.75-.68,2.82,2.82,0,0,0-.58,0M9.61,111.81c-1.84-.72-2.51-1.3-2.51-2.32,0-1.21,1-2,2.66-2a5.84,5.84,0,0,1,2.61.68l.48.48.43,2.76h2.57v-5.37a28.67,28.67,0,0,0-6.77-.92c-4.74,0-7.88,2.17-7.88,5.51,0,2.47,1.64,3.82,7.25,6.19,1.74.67,2.27,1.21,2.27,2.23,0,1.31-1,2.08-2.8,2.08a8.11,8.11,0,0,1-3.58-.87L4,119.84l-.39-3.24H1v5.9a32,32,0,0,0,7.54,1c4.69,0,8.13-2.47,8.13-5.85,0-2.61-1.36-3.72-7.06-5.85m136.62-9.86a1.71,1.71,0,0,1,1.69,1.93c0,1.44-.91,2.22-2.3,3a4.44,4.44,0,0,1-1.27-2.89,1.88,1.88,0,0,1,1.89-2.08m-70.9,4.11v-5H72.14l-2.23,4.06-3,1.94v1.59h2.52v10.45c0,2.86,1.54,4.26,4.69,4.26a15.09,15.09,0,0,0,6.19-1.54v-2a12.65,12.65,0,0,1-1.79.19c-2.42,0-3.19-.68-3.19-3v-8.27h5v-2.61Zm-49.67,0v-5H22.47l-2.23,4.06-3,1.94v1.59h2.52v10.45c0,2.86,1.55,4.26,4.69,4.26a13.71,13.71,0,0,0,6-1.54v-2a7.47,7.47,0,0,1-1.6.19c-2.42,0-3.19-.68-3.19-3v-8.27h4.79v-2.61Zm128.75,12.16,3.14-2.59v-5.76l-5.88,4.81-3.54-4.57c2.27-1.45,4.35-3.09,4.35-6.43a5.93,5.93,0,0,0-6.19-6.14,6.33,6.33,0,0,0-6.63,6.43,8.21,8.21,0,0,0,2,5.26c-2.53,1.51-4.7,3.44-4.7,7,0,4.1,2.95,7.25,7.93,7.25a8.52,8.52,0,0,0,5.85-2.22l1.45,1.84h6Z"/></svg>