<svg id="Слой_1" data-name="Слой 1" xmlns="http://www.w3.org/2000/svg" viewBox="0 0 116 48"><defs><style>.cls-1{fill:#28478b;}</style></defs><title>Монтажная область 32</title><path class="cls-1" d="M89.17,0V22.47a15.21,15.21,0,0,0-2.07,2V0H62.2V20.46H60.14V0H35.24V20.5H33.18V0H8.29V23.36L1.94,44.54H7.52l2.81-9.38h.81l4.63,9.38h6.75L18,35.16h10.2l-2.83,9.38H31.5l2.79-9.35h1.34v0H49.22l-2.7,9.35h6.16l2.61-9.35h2.77l.07,9.35H63.3l5.93-9.35h3.88l-2,9.35h6.06l2-9.35h3.51c-.14,2.9.6,5.53,2.52,7.31,2.35,2.16,6,2.57,8.62,2.57A51.56,51.56,0,0,0,105,43.65l2.1-8.49h6.92V0ZM32.29,21.69l-.36,1.2-3.31,11-.13.39H17.6l-.85-1.79,11.74-12H20.95l-9.18,9.89,3-9.89H9.18V.89H32.29v20.8ZM38.72,31h0c-.22,0-.45,0-.71,0H35.67l.68-2.53.32-1.26.78-2.94H39.6c2,0,3.19.11,3.64.74.35.47.3,1.29-.11,2.53-.7,2.14-1.58,3.22-4.43,3.44m16.83,3.29L58,25.64l.09,8.65Zm3.7-13.82H53.46l-4,13.82H43.35A8.25,8.25,0,0,0,49,27.64c.49-2.55.25-4.22-.78-5.48-1.56-1.87-4.68-1.71-7.46-1.71H36.14V.89H59.25V20.46Zm14,13.82H69.81L75.07,26l-1.79,8.29ZM86.2,20.85v4.79a19.3,19.3,0,0,0-3.08,6.62,13.35,13.35,0,0,0-.37,2h-3.4L82.25,20.5H72.47l-8.75,13.8h-.64V.89H86.2v20ZM99.53,39.93a22.12,22.12,0,0,1-3.89.4c-3.34,0-5.66-1.55-5.7-5.17h10.78l-1.18,4.77Zm13.65-5.64h-5.83l1-3.85H96.65l-1,3.85H90v-.79c.09-.43.16-.89.27-1.38,1-4.15,3.75-8.26,8.47-8.26,1.87,0,3.72.71,3.47,3.29h6.94a6.16,6.16,0,0,0-.58-5.14c-1.48-2.05-4.46-2.87-8.33-2.87A18.88,18.88,0,0,0,90,21.84V.89h23.14v33.4Z"/></svg>