<svg id="Слой_1" data-name="Слой 1" xmlns="http://www.w3.org/2000/svg" xmlns:xlink="http://www.w3.org/1999/xlink" viewBox="0 0 132 28"><defs><style>.cls-1{fill:none;}.cls-2{clip-path:url(#clip-path);}.cls-3{fill:#8ac000;}</style><clipPath id="clip-path"><rect class="cls-1" x="-485" width="414" height="419.16" transform="translate(-556 419.16) rotate(180)"/></clipPath></defs><title>Монтажная область 31</title><path class="cls-3" d="M123.81,20.75a3.43,3.43,0,1,1,3.43,3.43,3.43,3.43,0,0,1-3.43-3.43"/><path d="M21,11.45q0,5.93-3.19,9.14t-9,3.21H1.34V.1h8Q14.92.1,18,3t3,8.43m-6.49.23a7.67,7.67,0,0,0-1.26-4.83A4.6,4.6,0,0,0,9.41,5.27H7.59V18.55H9a5,5,0,0,0,4.18-1.69,8.33,8.33,0,0,0,1.33-5.18"/><rect x="41.72" width="5.96" height="23.8"/><path d="M67.23,14.92A9.49,9.49,0,0,1,65,21.69a8.32,8.32,0,0,1-6.38,2.43,8.16,8.16,0,0,1-6.25-2.48A9.42,9.42,0,0,1,50,14.92,9.36,9.36,0,0,1,52.28,8.2a8.4,8.4,0,0,1,6.39-2.39,8.93,8.93,0,0,1,4.49,1.11,7.48,7.48,0,0,1,3,3.18,10.45,10.45,0,0,1,1.06,4.83m-11.18,0a8,8,0,0,0,.59,3.47,2.06,2.06,0,0,0,2,1.19,2,2,0,0,0,2-1.19,8.3,8.3,0,0,0,.57-3.47,7.88,7.88,0,0,0-.58-3.42,2.27,2.27,0,0,0-3.95,0,7.7,7.7,0,0,0-.59,3.43"/><rect x="69.6" y="6.12" width="5.96" height="17.68"/><rect x="69.6" width="5.96" height="3.98"/><path d="M87.63,19.29a8.69,8.69,0,0,0,2.88-.61v4.45a11.62,11.62,0,0,1-2.29.76,12.63,12.63,0,0,1-2.55.23q-3,0-4.33-1.51A6.86,6.86,0,0,1,80,18V10.69H77.93V6.12H80V1.61l6-1V6.12h3.8v4.57H86v6.88q0,1.72,1.61,1.72"/><path d="M101.42,19.29a8.69,8.69,0,0,0,2.88-.61v4.45a11.6,11.6,0,0,1-2.29.76,12.63,12.63,0,0,1-2.55.23q-3,0-4.33-1.51A6.85,6.85,0,0,1,93.8,18V10.69H91.71V6.12H93.8V1.54l6-1V6.12h3.8v4.57h-3.8v6.88q0,1.72,1.61,1.72"/><path d="M120.22,7.89a8.25,8.25,0,0,0-6-2.08,8.16,8.16,0,0,0-6.31,2.4q-2.21,2.39-2.21,6.87a9,9,0,0,0,2.38,6.69,9.14,9.14,0,0,0,6.7,2.35,19.57,19.57,0,0,0,3.56-.28,10.32,10.32,0,0,0,2.88-1l-.92-4a12.7,12.7,0,0,1-1.93.63,12.79,12.79,0,0,1-2.89.31,4.08,4.08,0,0,1-2.72-.84,3.06,3.06,0,0,1-1.06-2.33h10.65V13.89a8,8,0,0,0-2.13-6m-8.4,4.88a3.23,3.23,0,0,1,.83-2.13,2.45,2.45,0,0,1,1.76-.68,2.31,2.31,0,0,1,1.82.77,3.07,3.07,0,0,1,.71,2Z"/><path d="M37.29,7.89a8.25,8.25,0,0,0-6-2.08A8.15,8.15,0,0,0,25,8.21q-2.21,2.39-2.21,6.87a9,9,0,0,0,2.39,6.69,9.14,9.14,0,0,0,6.7,2.35,19.58,19.58,0,0,0,3.57-.28,10.33,10.33,0,0,0,2.88-1l-.92-4a12.7,12.7,0,0,1-1.92.63,12.81,12.81,0,0,1-2.89.31,4.08,4.08,0,0,1-2.72-.84,3.06,3.06,0,0,1-1.06-2.33H39.42V13.89a8,8,0,0,0-2.12-6m-8.4,4.88a3.23,3.23,0,0,1,.83-2.13A2.45,2.45,0,0,1,31.48,10a2.31,2.31,0,0,1,1.82.77,3.08,3.08,0,0,1,.71,2Z"/></svg>