<svg id="Слой_1" data-name="Слой 1" xmlns="http://www.w3.org/2000/svg" viewBox="0 0 258 30"><defs><style>.cls-1{fill:#2b467b;}</style></defs><title>Монтажная область 33</title><path class="cls-1" d="M18.79,20.67v-.6c1.51-.17,2.08-.81,2-2.85L20.16,4,13.82,20.53H13L6.53,4,6,16.41c-.11,2.61.45,3.31,2.43,3.66v.6H1.92v-.6c1.83-.21,2.57-1.2,2.71-3.84L5.26,3.91c.11-2.32-1.44-2.61-2.5-2.82V.49H8.08l6.09,15.63L20.12.6h5v.63c-1.59.14-2.36.92-2.29,2.74l.6,12.64c.11,2.43.81,3.28,2.61,3.45v.6H18.79"/><path class="cls-1" d="M32.83,21c-4.33,0-6-3-6-6,0-3.73,2.81-7.12,6.58-7.12A6.05,6.05,0,0,1,37.2,9a4.54,4.54,0,0,1-.81,2.22l-.24,0a4.55,4.55,0,0,0-3.67-1.83,3.16,3.16,0,0,0-2.29.8,4.34,4.34,0,0,0-1,3.14c0,3.1,1.3,6.06,4.79,6.06a7.21,7.21,0,0,0,3.7-1.05L38,19a7.42,7.42,0,0,1-5.14,2"/><path class="cls-1" d="M52.48,20.67c-2.78-3.13-5.35-6.38-7.75-9.33l-1,1.05v1.13c0,6.06,0,6.23,2.29,6.55v.6H38.85v-.6c2.08-.17,2.29-.53,2.29-6.16v-7c0-5.21-.11-5.67-2.29-5.84V.49h7.22v.6c-2,.28-2.29.6-2.29,5.78v3.8L49.1,4.79c1.31-1.41,1.41-2.15,1.41-2.57,0-.64-.35-.95-1.23-1.13V.49H56v.6c-2,.07-3.1,1.23-5.21,3.56L46.49,9.44c1.34,1.73,3.63,4.47,5,6.09C55,19.65,56.18,20,57.3,20.07v.6H52.48"/><path class="cls-1" d="M60.58,4.54A1.56,1.56,0,0,1,59,2.92,1.56,1.56,0,0,1,60.58,1.3,1.59,1.59,0,0,1,62.2,2.92a1.59,1.59,0,0,1-1.62,1.62M57.23,20.67v-.6c2.22-.1,2.25-.1,2.25-4.58V12.4c0-3.52-.25-3.63-2.29-3.7V8.1h4.72v7.43c0,4.44.07,4.4,2,4.54v.6Z"/><path class="cls-1" d="M74,20.67v-.6c1.8-.11,1.94-.14,1.94-4.33V13.21c0-3-1.23-3.7-2.78-3.7-1.9,0-3.49,1.44-3.49,2.61v3.42c0,4.43.07,4.4,2,4.54v.6H64.94v-.6C67.16,20,67.2,20,67.2,15.5V12.4c0-3.52-.25-3.63-2.29-3.7V8.1h4.72v2.26a5.9,5.9,0,0,1,4.62-2.43c2,0,4.08,1.2,4.08,5v2.81c0,4.19,0,4.23,2.22,4.33v.6H74"/><path class="cls-1" d="M86.1,21c-1.66,0-3.66-.42-4.15-1.23a11.21,11.21,0,0,1-.32-2.89h.74a3.69,3.69,0,0,0,3.8,3.21c1.83,0,2.92-.71,2.92-1.87,0-3.45-7.22-2.61-7.22-6.84,0-1.93,1.51-3.55,4.12-3.55a10.3,10.3,0,0,1,3.7.64A8.54,8.54,0,0,1,90,11.59h-.57a4,4,0,0,0-3.62-2.92c-1.16,0-2.11.53-2.11,1.58,0,3,7.18,2.29,7.18,6.94,0,2.08-1.83,3.8-4.82,3.8"/><path class="cls-1" d="M101.95,12.5H95.47c.21-2.33,1.27-3.63,3.27-3.63s3.17,1.3,3.2,3.63M104.24,19l-.28-.6a7.2,7.2,0,0,1-3.7,1.06c-3.48,0-4.93-3.13-4.82-6h8.8c.14-2.89-1.37-5.64-5-5.64s-6.13,2.92-6.13,7c0,3.17,1.62,6.23,6,6.23a7.4,7.4,0,0,0,5.14-2"/><path class="cls-1" d="M116.13,11.17l-2.5,7.11C112,23,111.06,26.06,106.37,28a6.27,6.27,0,0,1-1.2-2c3.56-.81,5.32-2.36,6.45-5.25l-3.28-7.29c-1.94-4.3-2.08-4.51-3.52-4.58v-.6h5.88v.6c-.91.11-1.2.39-1.2.88a8.17,8.17,0,0,0,.88,2.64l2.36,5.53,2.43-7.15c.42-1.23-.17-1.83-1.27-1.9v-.6h4.54v.6c-.88,0-1.76.67-2.32,2.29"/><path class="cls-1" d="M133,18.17a7.56,7.56,0,0,1-4.29,1.06c-3.7,0-6.62-2.61-6.62-6.1,0-2.18.95-3.55,2.39-3.94a31.53,31.53,0,0,0,8.52,9m8.17,2.5v-.6c-1.41-.14-3.53-1.3-5.78-3a13.13,13.13,0,0,0,1.2-4.72c.18-1.23,1.09-1.2,1.69-1.27v-.56h-5.7v.56c1.34.18,2.64.35,2.64,2.43a5.46,5.46,0,0,1-.67,2.92c-5-3.91-9.61-9.33-9.61-12,0-1.34.81-2,2.11-2a4.27,4.27,0,0,1,3.91,3.21h.56l-.07-3.8h-.57a.51.51,0,0,1-.42.42c-.7,0-1.69-.77-3.42-.77a3.67,3.67,0,0,0-3.87,3.8,6.52,6.52,0,0,0,.85,3,5.64,5.64,0,0,0-4,5.63c0,4.68,3.56,7.22,7.57,7.22a9.26,9.26,0,0,0,6.31-2.32,19.36,19.36,0,0,0,2.92,1.86Z"/><path class="cls-1" d="M151.13,21.17c-5.84,0-9.54-3.87-9.54-10,0-6.44,4-11.13,10-11.13,3,0,4.12.85,5.32.85A1.11,1.11,0,0,0,158,.21h.57l.21,6h-.6c-1-3.48-3-5.25-6.48-5.25-4.51,0-7.25,3.17-7.25,8.84,0,5.88,2.81,9.82,7.53,9.82a8.25,8.25,0,0,0,6.41-2.78l.56.63c-1.09,1.8-4.05,3.66-7.86,3.66"/><path class="cls-1" d="M171.38,15.21c0,2.92-1.3,4.72-3.94,4.72-2.29,0-4.44-2.11-4.44-6.37,0-3,1.44-4.69,3.87-4.69,2.25,0,4.51,2.18,4.51,6.34m2.5-.81a6.35,6.35,0,0,0-2.78-5.6,7.19,7.19,0,0,0-3.87-1,6.48,6.48,0,0,0-6.73,6.58A6.38,6.38,0,0,0,163.27,20a7.29,7.29,0,0,0,3.91,1,6.43,6.43,0,0,0,6.69-6.59"/><path class="cls-1" d="M192.5,20.67v-.6c1.83-.14,1.87-.32,1.87-4.12V13.07c0-2.61-1-3.56-2.61-3.56-1.87,0-3.48,1.41-3.48,2.68v3.55c0,4,0,4.16,2,4.33v.6H184v-.6c1.76-.11,1.87-.32,1.87-4.47V13.07c0-2.5-.81-3.56-2.71-3.56s-3.41,1.41-3.41,2.71v3.66c0,4,.18,4,2,4.19v.6h-6.65v-.6c2.11,0,2.18,0,2.18-4.08V12.4c0-3.52-.24-3.63-2.29-3.7V8.1h4.72v2.26a5.79,5.79,0,0,1,4.4-2.43A3.6,3.6,0,0,1,188,10.67a5.92,5.92,0,0,1,4.79-2.75c2.22,0,4.12,1.3,4.12,4.79V16c0,3.66-.11,4,2.18,4.08v.6H192.5"/><path class="cls-1" d="M211.37,14.65c0,3.28-1.37,5.39-3.95,5.39-1.65,0-3.48-.95-3.48-2.18V11.62c0-1.06,1.51-2.11,3.21-2.11,2.6,0,4.22,1.94,4.22,5.14m2.54-.32c0-3.66-2.36-6.41-5.63-6.41a5.62,5.62,0,0,0-4.33,2V8.1h-4.61v.6c1.94.07,2.18.17,2.18,4.3v8.59c0,4.48.11,4.83-2.08,4.93v.6h6.72v-.6c-2.39-.07-2.22-.46-2.22-5.14V19.65A5.39,5.39,0,0,0,207.71,21c3.8,0,6.2-2.85,6.2-6.66"/><path class="cls-1" d="M222.74,17.68c0,1.05-1.41,1.93-2.54,1.93a1.88,1.88,0,0,1-1.94-2.11c0-2.57,2.68-2.29,4.47-3.28v3.46m5.21,3v-.6h-.74c-1.76,0-2-.6-2-3.1V12.75A7.94,7.94,0,0,0,225,10.6c-.6-2-2.22-2.68-4.44-2.68a7.62,7.62,0,0,0-4.47,1.45,5.12,5.12,0,0,0,1,2.11l.32-.07a3.26,3.26,0,0,1,3-2.36,2.26,2.26,0,0,1,2.36,2.53V13c0,1-4.22,1.13-5.95,2.57a2.73,2.73,0,0,0-1,2.11A3.18,3.18,0,0,0,219.22,21a4.48,4.48,0,0,0,3.59-1.73c.18.92,1,1.41,2.19,1.41Z"/><path class="cls-1" d="M236.76,20.67v-.6c1.79-.11,1.94-.14,1.94-4.33V13.21c0-3-1.24-3.7-2.78-3.7-1.9,0-3.48,1.44-3.48,2.61v3.42c0,4.43.07,4.4,2,4.54v.6h-6.73v-.6C230,20,230,20,230,15.5V12.4c0-3.52-.25-3.63-2.29-3.7V8.1h4.72v2.26A5.89,5.89,0,0,1,237,7.92c2,0,4.08,1.2,4.08,5v2.81c0,4.19,0,4.23,2.22,4.33v.6h-6.58"/><path class="cls-1" d="M253.76,11.17l-2.5,7.11C249.6,23,248.69,26.06,244,28a6.13,6.13,0,0,1-1.2-2c3.56-.81,5.32-2.36,6.45-5.25L246,13.45c-1.94-4.3-2.08-4.51-3.52-4.58v-.6h5.88v.6c-.92.11-1.2.39-1.2.88A8.19,8.19,0,0,0,248,12.4l2.36,5.53,2.43-7.15c.42-1.23-.18-1.83-1.27-1.9v-.6h4.54v.6c-.88,0-1.76.67-2.33,2.29"/></svg>