<svg id="Слой_1" data-name="Слой 1" xmlns="http://www.w3.org/2000/svg" viewBox="0 0 624 108"><defs><style>.cls-1{fill:#fff;}</style></defs><title>Монтажная область 37</title><path class="cls-1" d="M158.61,49.32h16.74c4.84,0,7.95-1.39,9.5-4.35,1.38-2.61,1.9-6.61,2.42-10.79h6V73.85h-6c-.52-3.48-.87-8-2.24-10.61-1.56-3.3-4.31-4.87-9.67-4.87H158.61V89.82c0,4.35,1.55,7.31,4.66,8.7,1.9.87,5.53,1.22,9.15,1.74V107h-54v-6.78A30.27,30.27,0,0,0,125.8,99a7.47,7.47,0,0,0,4.31-6.8V20.64c0-7.12-.86-9.72-4.15-11.29-1.38-.7-3.62-1-7.6-1.57V1h92.56V31.1h-7.25c-4.15-16.53-11.4-20.88-26.25-20.88H158.61Z"/><path class="cls-1" d="M324.45,54.07A52.62,52.62,0,1,1,271.83,1a52.82,52.82,0,0,1,52.62,53"/><path class="cls-1" d="M61.28,53.93A53.25,53.25,0,0,1,114.53.68H1V107.19H114.53A53.25,53.25,0,0,1,61.28,53.93Z"/><path class="cls-1" d="M403.28,45a21.51,21.51,0,0,1-8.88,7.21,29.27,29.27,0,0,1-12.4,2.6q-12.36,0-19.66-7.36T355,27.83q0-11.55,7.41-19.29T381.86.81a29.06,29.06,0,0,1,12.36,2.53,19.55,19.55,0,0,1,8.24,6.6l-6,5.74a18.12,18.12,0,0,0-14.16-6.12q-8.08,0-13,5t-4.87,13.28q0,8.22,5.05,13.25t13.15,5A18.86,18.86,0,0,0,398,39.16Z"/><polygon class="cls-1" points="407.04 1.42 407.04 54.25 416.1 54.25 416.1 33.57 443.66 33.57 443.66 24.97 416.1 24.97 416.1 10.02 445.61 10.02 445.61 1.42 407.04 1.42"/><path class="cls-1" d="M462.47,41a17.44,17.44,0,0,0,24.68,0q5-5.09,5-13.17A17.77,17.77,0,0,0,487,14.7a17.26,17.26,0,0,0-24.53,0,17.83,17.83,0,0,0-5.09,13.17A17.85,17.85,0,0,0,462.47,41M455.69,8.62a27.32,27.32,0,0,1,38.13-.11,26.11,26.11,0,0,1,7.75,19.32,26.06,26.06,0,0,1-7.79,19.28,27.3,27.3,0,0,1-38,0,26.05,26.05,0,0,1-7.79-19.32,26.22,26.22,0,0,1,7.75-19.21"/><path class="cls-1" d="M544.5,15.83v20.3H526.82Zm1.27-14.42L514.84,38.33v5.88H544.5v10h8.77v-10h8.91V36.14h-8.91V1.42Z"/><path class="cls-1" d="M566.75,44.93a5.93,5.93,0,0,1,4.35-1.7A5.8,5.8,0,0,1,575.33,45a5.22,5.22,0,0,1,1.76,3.77,5.38,5.38,0,0,1-1.72,4,5.83,5.83,0,0,1-4.27,1.7,5.9,5.9,0,0,1-4.38-1.7,5.46,5.46,0,0,1-1.69-4,5.24,5.24,0,0,1,1.72-3.81"/><path class="cls-1" d="M590.46,41.34a11.69,11.69,0,0,0,9.93,4.75q13.33,0,13.33-18.26,0-8.9-3.37-13.58T600.23,9.57a11.46,11.46,0,0,0-9.89,4.75q-3.45,4.76-3.45,13.51t3.56,13.51m-6.89-33q6-7.48,16.66-7.47T617,8.36q6,7.47,6,19.47t-5.92,19.51q-5.92,7.43-16.7,7.43T583.6,47.35q-6-7.44-6-19.51t6-19.47"/><path class="cls-1" d="M363.09,76V92.39a3.31,3.31,0,0,0,1.33,3.09,6.1,6.1,0,0,0,2.67.88V97.9H356.3V96.35a7.15,7.15,0,0,0,2.38-.71c1-.5,1.63-1.46,1.63-3.25v-17c0-2.88-1.13-4.5-3.8-4.88V69h9.76l14.68,19.1V74.5a3.31,3.31,0,0,0-1.33-3.09,6.1,6.1,0,0,0-2.67-.88V69h10.8v1.54a7.16,7.16,0,0,0-2.38.71c-1,.5-1.63,1.46-1.63,3.25V98.06h-4.21Z"/><path class="cls-1" d="M399.87,98.52c-6.3,0-9.8-3.63-9.8-10,0-6.8,4.09-11.8,11.39-11.8,5,0,7.92,2.42,8.09,7.22a10.73,10.73,0,0,1,0,1.63l-1.17,1.75H396.12c.12,4.09,1.67,6.84,6.3,6.84a19.62,19.62,0,0,0,6.13-1.08l.08,2.25A13,13,0,0,1,399.87,98.52Zm-3.71-13.26h7c0-.46.08-.92.08-1.42,0-2.84-1-4.67-3.17-4.67C397.62,79.17,396.45,81.71,396.16,85.26Z"/><path class="cls-1" d="M437.48,91.35l3.09-8.68c.83-2.54-.08-3.54-2.13-3.84v-1.5h8.26v1.5a4.64,4.64,0,0,0-3.17,3l-6.8,16.39h-2.79l-5.21-12.84-5,12.84h-3.54l-6-17.14a3.37,3.37,0,0,0-2.79-2.25v-1.5h11.8v1.5c-1.63,0-2.5.71-2.13,2l3.21,10.3,5-13.8H432Z"/><path class="cls-1" d="M468.34,98.52c-6.3,0-9.8-3.63-9.8-10,0-6.8,4.09-11.8,11.39-11.8,5,0,7.92,2.42,8.09,7.22a10.63,10.63,0,0,1,0,1.63l-1.17,1.75H464.58c.13,4.09,1.67,6.84,6.3,6.84A19.62,19.62,0,0,0,477,93.1l.08,2.25A13,13,0,0,1,468.34,98.52Zm-3.71-13.26h7c0-.46.08-.92.08-1.42,0-2.84-1-4.67-3.17-4.67C466.09,79.17,464.92,81.71,464.62,85.26Z"/><path class="cls-1" d="M494.44,69.16a7.6,7.6,0,0,0-2,0V67.7a26.77,26.77,0,0,1,6.92-1.46c2,0,2.46.79,2.46,2.59V93.6c0,2.34.92,2.71,3.09,2.59l0,1a10.77,10.77,0,0,1-5,1.21c-3.46,0-4.46-1.42-4.5-3.54-1.63,2.13-3.63,3.63-6.46,3.63-4.84,0-8.13-4.34-8.13-10.18,0-7.51,5.67-11.59,11.89-11.59a14.22,14.22,0,0,1,2.71.29V70.87C495.52,69.66,495.4,69.29,494.44,69.16Zm1.08,24.4V79.92a7.53,7.53,0,0,0-3.17-.75c-3.5,0-5.17,2.71-5.17,7.51,0,4.5,1.46,7.55,5.46,7.55A7,7,0,0,0,495.52,93.56Z"/><path class="cls-1" d="M513.24,89.6a2.23,2.23,0,0,0-.46,1.29c0,1,.75,1.54,2.88,1.54h3.21c5.55,0,9.38,1.59,9.38,5.92,0,4.63-4.38,9-12.72,9-6,0-9.22-2.21-9.22-5.21,0-2.21,1.71-3.59,5-4.71-2.21-.67-3-2-3-3.55,0-2,1.58-3.54,3.71-4.59-2.84-1-4.55-2.84-4.55-5.63,0-3.88,3.42-6.88,9.34-6.88a11.19,11.19,0,0,1,7,2c2.09-1.08,1.67-3.88,4.09-3.88a1.8,1.8,0,0,1,2,1.75c0,2.08-2.63,3-5,3.21A5.29,5.29,0,0,1,526,83.13c0,4.13-3.92,6.8-9.18,6.8A19.49,19.49,0,0,1,513.24,89.6Zm-.54,8.09a3.9,3.9,0,0,0-1.21,3c0,2.5,1.63,4.34,5.46,4.34,3.67,0,5.92-1.71,5.92-4.34,0-2-1.29-2.84-4.5-2.84h-3.09A16.08,16.08,0,0,1,512.7,97.69Zm3.79-18.81c-2,0-2.79,1.83-2.79,4.34s.83,4.59,3.13,4.59,2.79-1.88,2.79-4.34C519.63,80.46,518.46,78.88,516.5,78.88Z"/><path class="cls-1" d="M541,98.52c-6.3,0-9.8-3.63-9.8-10,0-6.8,4.09-11.8,11.39-11.8,5,0,7.92,2.42,8.09,7.22a10.63,10.63,0,0,1,0,1.63l-1.17,1.75H537.22c.13,4.09,1.67,6.84,6.3,6.84a19.62,19.62,0,0,0,6.13-1.08l.08,2.25A13,13,0,0,1,541,98.52Zm-3.71-13.26h7c0-.46.08-.92.08-1.42,0-2.84-1-4.67-3.17-4.67C538.72,79.17,537.55,81.71,537.26,85.26Z"/><path class="cls-1" d="M553.86,97.06l-.12-5.8,1.42-.17c1.29,3.21,3.5,5.17,6.21,5.17,2.21,0,3.5-1.13,3.5-2.75s-1.38-2.25-3.21-2.79l-2-.58c-2.63-.75-5.46-2.67-5.46-6.21,0-4.21,3.88-7.17,9.05-7.17a13.18,13.18,0,0,1,6.42,1.58l.33,5-1.75.13c-1.71-3.46-3.21-4.59-5.5-4.59-2,0-3,1.17-3,2.63,0,1.63,1.17,2.46,2.79,3l2.46.71c2.5.67,5.59,2,5.59,6,0,4.84-4.88,7.3-9.72,7.3A17.91,17.91,0,0,1,553.86,97.06Z"/></svg>