<svg id="Слой_1" data-name="Слой 1" xmlns="http://www.w3.org/2000/svg" xmlns:xlink="http://www.w3.org/1999/xlink" viewBox="0 0 143 78"><defs><style>.cls-1{fill:none;}.cls-2{clip-path:url(#clip-path);}.cls-3{fill:#0079be;}</style><clipPath id="clip-path"><rect class="cls-1" x="-0.04" width="143.08" height="78"/></clipPath></defs><title>Монтажная область 24</title><g class="cls-2"><path class="cls-3" d="M107.41,24.36h-2.84c-2.41,0-2.55,1.94-2.55,3.2V39c0,1.26.14,3.2,2.55,3.2h2.84c2.41,0,2.55-1.94,2.55-3.2V27.55c0-1.25-.15-3.2-2.55-3.2M106,40a.74.74,0,0,1-.76-.71V27.2a.77.77,0,0,1,1.51,0V39.32A.74.74,0,0,1,106,40"/></g><polygon class="cls-3" points="53.87 24.36 60.42 24.36 60.42 26.58 57.3 26.58 57.3 42.24 53.87 42.24 53.87 24.36"/><path class="cls-3" d="M64.73,35.52l.59-8.95h.19l.59,8.95Zm-3.8,6.72h3.36l.32-4.75h1.62l.32,4.75h3.36L68.11,24.36h-5.4Z"/><g class="cls-2"><path class="cls-3" d="M74.83,36v3.37a.54.54,0,0,0,.54.59.57.57,0,0,0,.54-.59V35.19c0-.56-.1-1.17-1.38-1.17H73.13V32h1.44c1,0,1.33-.23,1.33-1.33V27.16a.56.56,0,0,0-.54-.59.54.54,0,0,0-.54.59v2.92H71.39V27.55c0-1.25.15-3.2,2.55-3.2h2.85c2.4,0,2.55,1.94,2.55,3.2v2.86A2.15,2.15,0,0,1,77,32.84V33a2.1,2.1,0,0,1,2.33,2.43V39c0,1.26-.15,3.2-2.55,3.2H73.94c-2.4,0-2.55-1.94-2.55-3.2V36Z"/></g><polygon class="cls-3" points="81.6 24.36 89.55 24.36 89.55 42.24 86.34 42.24 86.34 26.58 84.8 26.58 84.8 42.24 81.6 42.24 81.6 24.36"/><g class="cls-2"><path class="cls-3" d="M95.47,34.19V26.58h.9c.37,0,.64.33.64.89V33.3c0,.56-.27.89-.64.89ZM92,42.24h3.43V36.16h2c2.41,0,2.79-1.94,2.79-3.2V27.55c0-1.25-.38-3.2-2.79-3.2H92Z"/></g><polygon class="cls-3" points="120.92 24.36 125.39 24.36 125.39 42.24 121.95 42.24 121.95 31.02 121.83 31.02 120.06 42.24 117.32 42.24 115.55 31.02 115.43 31.02 115.43 42.24 111.99 42.24 111.99 24.36 116.45 24.36 118.68 36.92 120.92 24.36"/><g class="cls-2"><path class="cls-3" d="M46.85,18.11a30,30,0,0,0-4.18-9.25,32,32,0,0,0-3.86,8.08,29.35,29.35,0,0,0-1,11.66,32.29,32.29,0,0,0,2,7.47,26.33,26.33,0,0,0,2.88,5.16,28,28,0,0,0,4.75-12.12,27.45,27.45,0,0,0-.59-11M42.67,40.05a13,13,0,0,1-1.44-5.87,12.34,12.34,0,0,1,1.46-5.82,13.27,13.27,0,0,1,1.4,5.56,12.49,12.49,0,0,1-1.42,6.13m3.87-13.88A25.94,25.94,0,0,1,46,31a30.16,30.16,0,0,0-.59-6.92,30.05,30.05,0,0,0-2.76-7.47,29.89,29.89,0,0,0-2.72,7.46,34.93,34.93,0,0,0-.63,7,34.53,34.53,0,0,1-.45-6.79,30.18,30.18,0,0,1,1-6.15,33.32,33.32,0,0,1,2.82-6.76,30.42,30.42,0,0,1,2.86,6.66,29.76,29.76,0,0,1,1,8.11"/><path class="cls-3" d="M36,42.24v5.62l0,0a5,5,0,1,1,7.12,7.09l0,0h0l0,0a10,10,0,0,1-15.43-12.7,9.71,9.71,0,0,1,1.23-1.49A10,10,0,0,1,36,37.86V24.45a17.83,17.83,0,1,0,13.07,30V42.24Z"/><path class="cls-3" d="M90.79,52.08h-.28V55.7h.28c.4,0,.55-.11.55-.57v-2.5c0-.46-.15-.55-.55-.55m29,2.42h-.4v2h.4c.41,0,.53-.1.53-.55V55c0-.44-.12-.54-.53-.54M87.91,52.65v2.49c0,.46.15.56.55.56h.29V52.08h-.29c-.4,0-.55.12-.55.57m37.48-4.46H53.87V60.12h71.53ZM61.63,57.9H59.82V54.5h-.93v3.4H57.07V50.13h1.81v3h.93v-3h1.82Zm15-6.3H74.19v1.53h2.22V54.6H74.19v1.83h2.48V57.9H72.32V50.13h4.35ZM93.1,55.13c0,1.58-.8,2-2.59,2v.77H88.75v-.77c-1.79,0-2.6-.42-2.6-2V52.7c0-1.58.78-2,2.6-2v-.58h1.76v.58c1.81,0,2.59.4,2.59,2Zm13.95-3.53h-1.37v6.3H104V51.6h-1.47V50.13h4.57Zm15.13,4.3c0,1.7-.77,2-2.74,2h-1.81V50.13h1.81v3h.3c1.78,0,2.44.41,2.44,2Z"/></g></svg>