<svg id="Слой_1" data-name="Слой 1" xmlns="http://www.w3.org/2000/svg" viewBox="0 0 167 61"><defs><style>.cls-1{fill:#fff;stroke:#fff;stroke-miterlimit:10;}.cls-2,.cls-3{fill:#1370b8;}.cls-2{fill-rule:evenodd;}.cls-3{font-size:17px;font-family:Stem-Regular, Stem-Regular;letter-spacing:0.04em;}</style></defs><title>Монтажная область 54 копия 3</title><rect class="cls-1" x="0.5" y="0.5" width="166" height="60"/><path class="cls-2" d="M31.09,40.6a.5.5,0,1,1,0,1H29.47a3.11,3.11,0,0,1-3.1-3.1V28.1A3.11,3.11,0,0,1,29.47,25h26a3.11,3.11,0,0,1,3.1,3.11V38.5a3.11,3.11,0,0,1-3.1,3.1H53.84a.5.5,0,0,1,0-1h1.63a2.1,2.1,0,0,0,2.09-2.09V28.1A2.11,2.11,0,0,0,55.47,26h-26a2.11,2.11,0,0,0-2.09,2.1V38.5a2.1,2.1,0,0,0,2.09,2.09Zm0,0"/><path class="cls-2" d="M51.74,35.9v7.8A1.82,1.82,0,0,1,51.22,45l0,0a1.8,1.8,0,0,1-1.24.5H35A1.8,1.8,0,0,1,33.72,45l0,0a1.8,1.8,0,0,1-.5-1.24V35.9a.5.5,0,0,1,.5-.5H51.24a.5.5,0,0,1,.5.5Zm-1,7.8V36.4H34.2V43.7a.79.79,0,0,0,.21.54l0,0a.81.81,0,0,0,.56.24H49.94a.81.81,0,0,0,.54-.22l0,0a.78.78,0,0,0,.24-.56Zm-17,1.24,0-.68a.5.5,0,0,0,0,.68Zm0,0"/><path class="cls-2" d="M30.77,27.92a1.47,1.47,0,0,1,1,.43l0,0a1.47,1.47,0,0,1,0,2,1.47,1.47,0,0,1-2.09,0l0,0a1.47,1.47,0,0,1,0-2h0a1.48,1.48,0,0,1,1-.43Zm.33,1.14a.49.49,0,0,0-.33-.14.48.48,0,0,0-.33.14h0a.49.49,0,0,0-.13.33.46.46,0,0,0,.12.32v0a.47.47,0,0,0,.67,0,.45.45,0,0,0,.14-.33.48.48,0,0,0-.12-.31Zm-1.41,1.34,0-.68a.51.51,0,0,0,0,.68Zm0,0"/><path class="cls-2" d="M37.59,41.6a.5.5,0,0,1,0-1h4.87a.5.5,0,0,1,0,1Zm0-2.6a.5.5,0,0,1,0-1h9.75a.5.5,0,0,1,0,1Zm0,0"/><path class="cls-2" d="M51.74,22.9a.5.5,0,0,1-1,0V20.3a.81.81,0,0,0-.23-.56h0a.79.79,0,0,0-.56-.23H35a.79.79,0,0,0-.56.23l0,0a.78.78,0,0,0-.21.54v2.6a.5.5,0,1,1-1,0V20.3a1.79,1.79,0,0,1,.5-1.23l0,0A1.8,1.8,0,0,1,35,18.5H49.94a1.81,1.81,0,0,1,1.27.53h0a1.81,1.81,0,0,1,.53,1.27Zm0,0"/><path class="cls-2" d="M34.67,29.91a.5.5,0,1,1,0-1h19.5a.5.5,0,0,1,0,1Zm0,0"/><text class="cls-3" transform="translate(77.93 36.86)">PRINT</text></svg>