<svg id="Слой_1" data-name="Слой 1" xmlns="http://www.w3.org/2000/svg" viewBox="0 0 237 61"><defs><style>.cls-1,.cls-2{fill:#fff;}.cls-1{fill-rule:evenodd;}.cls-2{font-size:17px;font-family:Stem-Regular, Stem-Regular;letter-spacing:-0.06em;}.cls-3{letter-spacing:0.02em;}.cls-4{letter-spacing:0.04em;}.cls-5{letter-spacing:-0.06em;}.cls-6{fill:none;stroke:#fff;stroke-miterlimit:10;}</style></defs><title>Монтажная область 54</title><path class="cls-1" d="M30.64,40.6a.5.5,0,1,1,0,1H29a3.11,3.11,0,0,1-3.1-3.1V28.1A3.11,3.11,0,0,1,29,25H55a3.11,3.11,0,0,1,3.1,3.11V38.5A3.11,3.11,0,0,1,55,41.6H53.38a.5.5,0,0,1,0-1H55A2.1,2.1,0,0,0,57.1,38.5V28.1A2.11,2.11,0,0,0,55,26H29a2.11,2.11,0,0,0-2.09,2.1V38.5A2.1,2.1,0,0,0,29,40.6Zm0,0"/><path class="cls-1" d="M51.29,35.9v7.8A1.82,1.82,0,0,1,50.76,45l0,0a1.8,1.8,0,0,1-1.24.5H34.54A1.8,1.8,0,0,1,33.26,45l0,0a1.8,1.8,0,0,1-.5-1.24V35.9a.5.5,0,0,1,.5-.5H50.79a.5.5,0,0,1,.5.5Zm-1,7.8V36.4H33.74V43.7a.79.79,0,0,0,.21.54l0,0a.81.81,0,0,0,.56.24H49.49a.81.81,0,0,0,.54-.22l0,0a.78.78,0,0,0,.24-.56Zm-17,1.24,0-.68a.5.5,0,0,0,0,.68Zm0,0"/><path class="cls-1" d="M30.31,27.92a1.47,1.47,0,0,1,1,.43l0,0a1.47,1.47,0,0,1,0,2,1.47,1.47,0,0,1-2.09,0l0,0a1.47,1.47,0,0,1,0-2h0a1.48,1.48,0,0,1,1-.43Zm.33,1.14a.49.49,0,0,0-.33-.14.48.48,0,0,0-.33.14h0a.49.49,0,0,0-.13.33.46.46,0,0,0,.12.32v0a.47.47,0,0,0,.67,0,.45.45,0,0,0,.14-.33.48.48,0,0,0-.12-.31Zm-1.41,1.34,0-.68a.51.51,0,0,0,0,.68Zm0,0"/><path class="cls-1" d="M37.14,41.6a.5.5,0,0,1,0-1H42a.5.5,0,0,1,0,1Zm0-2.6a.5.5,0,0,1,0-1h9.75a.5.5,0,0,1,0,1Zm0,0"/><path class="cls-1" d="M51.29,22.9a.5.5,0,0,1-1,0V20.3a.81.81,0,0,0-.23-.56h0a.79.79,0,0,0-.56-.23H34.54a.79.79,0,0,0-.56.23l0,0a.78.78,0,0,0-.21.54v2.6a.5.5,0,1,1-1,0V20.3a1.79,1.79,0,0,1,.5-1.23l0,0a1.8,1.8,0,0,1,1.28-.53H49.49a1.81,1.81,0,0,1,1.27.53h0a1.81,1.81,0,0,1,.53,1.27Zm0,0"/><path class="cls-1" d="M34.21,29.91a.5.5,0,1,1,0-1h19.5a.5.5,0,0,1,0,1Zm0,0"/><text class="cls-2" transform="translate(77.85 36.86)">Р<tspan class="cls-3" x="10.32" y="0">А</tspan><tspan class="cls-4" x="22.29" y="0">СПЕЧ</tspan><tspan class="cls-5" x="71.81" y="0">АТА</tspan><tspan class="cls-4" x="102.15" y="0">ТЬ</tspan></text><polyline class="cls-6" points="236.5 41.95 236.5 60.5 0.5 60.5 0.5 41.5"/><polyline class="cls-6" points="0.5 19.05 0.5 0.5 236.5 0.5 236.5 19.5"/></svg>